<svg id="Layer_1" data-name="Layer 1" xmlns="http://www.w3.org/2000/svg" width="500" height="500" viewBox="0 0 500 500"><defs><style>.cls-1{fill:#373d46;}.cls-2{fill:#41fd2e;}.cls-3{fill:#63676d;}.cls-4{fill:#eaeaea;}</style></defs><title>bud</title><circle class="cls-1" cx="250" cy="250" r="208"/><path class="cls-2" d="M250,55A195,195,0,0,1,387.89,387.89,195,195,0,0,1,112.11,112.11,193.72,193.72,0,0,1,250,55m0-26C128,29,29,128,29,250s99,221,221,221,221-98.95,221-221S372.05,29,250,29Z"/><path class="cls-3" d="M337.18,264.2a86.21,86.21,0,1,1-57.56-81.38A86.28,86.28,0,0,1,337.18,264.2Z"/><path d="M266.82,351.47l12-3-13-53,5-33,3.51,1.31a18.93,18.93,0,0,0,9.25,1l55.66-7.73A11.09,11.09,0,0,0,348.61,244l-2.79-14.52-6.93-23.87a41.3,41.3,0,0,0-6.5-13.1l-13.8-18.61a42.67,42.67,0,0,0-11.53-10.68L287.3,150.79A64.22,64.22,0,0,0,269.13,143L257,139.84a74.64,74.64,0,0,0-18.69-2.37h-28.2a77,77,0,0,0-8.59.47l-48,5.23a54.49,54.49,0,0,0-5.39.87l-6.52,1.4a14.22,14.22,0,0,0-8,4.81l0,.07a2.71,2.71,0,0,0,.38,3.88l128.22,102a3.71,3.71,0,0,1,1.37,3.31l-3.42,29.89a1.17,1.17,0,0,1-2.13.55l-27.2-38.44s0,0,0,0l12-1-47.74-37.25a40.72,40.72,0,0,0-4.73-3.18l-59-34.12a2.94,2.94,0,0,0-4,1l-.5.84a2.22,2.22,0,0,0,.53,2.89L184.93,226a2.47,2.47,0,0,1,.45,3.42l-.28.36a2.41,2.41,0,0,1-3.13.64l-42.33-24.31a3.31,3.31,0,0,0-4.49,1.17h0a3.2,3.2,0,0,0,.54,4l35.05,33.3a13.9,13.9,0,0,0,7.27,3.63l19.23,3.2a6.6,6.6,0,0,0,1.17.1h25.41l32,49Z"/><ellipse class="cls-4" cx="302.89" cy="225.12" rx="6.5" ry="34.21" transform="translate(-2.38 447.02) rotate(-72.63)"/><ellipse class="cls-4" cx="313.57" cy="207.13" rx="6.5" ry="23.67" transform="matrix(0.5, -0.87, 0.87, 0.5, -22.6, 375.13)"/><ellipse class="cls-4" cx="277.87" cy="166.99" rx="6.5" ry="27.95" transform="translate(3.79 340.13) rotate(-63.29)"/><ellipse class="cls-4" cx="197.82" cy="149.48" rx="35" ry="3.01"/><ellipse class="cls-4" cx="212.34" cy="170.51" rx="5.76" ry="54.35" transform="translate(-11.46 325.67) rotate(-73.5)"/><ellipse class="cls-4" cx="204.85" cy="194.47" rx="6.5" ry="53.64" transform="translate(-72.51 247.89) rotate(-54.41)"/></svg>
