<svg id="Layer_1" data-name="Layer 1" xmlns="http://www.w3.org/2000/svg" width="467" height="468" viewBox="0 0 467 468"><defs><style>.cls-1{fill:#373d46;}.cls-2{fill:#41fd2e;}.cls-3{fill:#28292c;}.cls-4{fill:#63676d;}.cls-5{fill:#eaeaea;stroke:#fff;stroke-miterlimit:10;stroke-width:10px;}</style></defs><title>bud_7</title><circle class="cls-1" cx="236.06" cy="233.78" r="208"/><path class="cls-2" d="M236.06,38.78A195,195,0,0,1,373.94,371.67,195,195,0,0,1,98.17,95.9,193.73,193.73,0,0,1,236.06,38.78m0-26c-122.06,0-221,99-221,221s98.94,221,221,221,221-98.94,221-221-98.95-221-221-221Z"/><path class="cls-3" d="M143.94,383.69v-3.43q0-62.55-.05-125.12a6.8,6.8,0,0,1,2.37-5.52c8.85-8.29,13-19.12,15.62-30.57a152.17,152.17,0,0,0,3.2-47.67c-.22-2.59.4-3.92,2.94-5,12.78-5.61,25.47-11.41,38.13-17.3a5.11,5.11,0,0,1,5.79.47c6.77,4.59,14.13,8,22.37,8.87,10.2,1.13,19.1-2.76,27.34-8.09,3.24-2.1,5.6-2.06,8.92-.48,11.93,5.68,24,11.08,36.08,16.43,2.48,1.1,3.42,2.31,3.19,5.19-1.42,18.42-.34,36.66,5.06,54.45,2.86,9.41,7.22,18,14.67,24.72a4.49,4.49,0,0,1,1.33,3q.09,64.64,0,129.27a3.89,3.89,0,0,1-.24.83Zm181-5.86V349.06q0-45.6,0-91.2c0-1.39-.15-3.22-1-4.1-10.42-10.7-15-24.08-17.86-38.27-2.7-13.46-3.18-27.09-2.56-40.76.11-2.41-.59-3.59-2.85-4.49-4.44-1.78-8.74-3.93-13.11-5.91-5.88-2.67-11.77-5.32-17.74-8-.37.75-.64,1.21-.84,1.69q-19.22,47.24-38.38,94.49a11.16,11.16,0,0,0-.66,4c-.05,10.66,0,21.33,0,32,0,1,.12,2.05.2,3.43h91v17.73h-91v11.47h91v17.75H230c0,8.2-.19,16.07.08,23.93.14,3.93,2.12,7.31,5,10.09,3.75,3.64,8.33,4.93,13.44,4.92q29.92,0,59.84,0Zm-118.77-222c-10.94,5-21.38,9.84-31.91,14.48-2.23,1-2.87,2.17-2.75,4.55.71,14.75,0,29.43-3.22,43.89-2.76,12.3-7,24-15.83,33.38A7.89,7.89,0,0,0,150,258q.09,57.92,0,115.82c0,1.24.11,2.48.16,3.81H231c-7.28-6.83-7.44-15.16-7.4-23.73.13-32.31,0-64.63.12-96.94a23.51,23.51,0,0,1,1.55-8c2.57-6.89,5.59-13.6,8.16-20.49a8.23,8.23,0,0,0,0-5.39c-6.13-15.45-12.46-30.82-18.72-46.22C211.89,170,209.09,163.08,206.13,155.83Zm8.28,2.22-.42.77c7.87,19.32,15.73,38.65,23.94,58.83l24.23-59.6-.58-.57C246,166.71,230.27,167.18,214.41,158.05Z"/><path class="cls-4" d="M324.9,377.83H308.33q-29.93,0-59.84,0c-5.11,0-9.69-1.28-13.44-4.92-2.87-2.78-4.85-6.16-5-10.09-.27-7.86-.08-15.73-.08-23.93h91.1V321.16h-91V309.69h91V292H230c-.08-1.38-.2-2.41-.2-3.43,0-10.67,0-21.34,0-32a11.16,11.16,0,0,1,.66-4Q249.66,205.22,268.9,158c.2-.48.47-.94.84-1.69,6,2.7,11.86,5.35,17.74,8,4.37,2,8.67,4.13,13.11,5.91,2.26.9,3,2.08,2.85,4.49-.62,13.67-.14,27.3,2.56,40.76,2.85,14.19,7.44,27.57,17.86,38.27.86.88,1,2.71,1,4.1q.08,45.6,0,91.2v28.77Zm-50.74-216.5v126.8h17.47v-3.6q0-28.45,0-56.92c0-18.44,0-36.88-.05-55.32,0-1.2-.44-3.08-1.25-3.49C285.12,166.17,279.76,163.87,274.16,161.33Z"/><path class="cls-4" d="M206.13,155.83c3,7.25,5.76,14.13,8.57,21,6.26,15.4,12.59,30.77,18.72,46.22a8.23,8.23,0,0,1,0,5.39c-2.57,6.89-5.59,13.6-8.16,20.49a23.51,23.51,0,0,0-1.55,8c-.1,32.31,0,64.63-.12,96.94,0,8.57.12,16.9,7.4,23.73H150.23c0-1.33-.16-2.57-.16-3.81q0-57.9,0-115.82a7.89,7.89,0,0,1,2.4-5.88c8.83-9.41,13.07-21.08,15.83-33.38,3.25-14.46,3.93-29.14,3.22-43.89-.12-2.38.52-3.56,2.75-4.55C184.75,165.67,195.19,160.82,206.13,155.83Zm-5.31,5.47c-5.12,2.33-9.8,4.59-14.61,6.57-2.21.91-2.93,2.14-2.93,4.52q.12,56,.07,112c0,1.24.11,2.47.17,3.69h17.3Zm19.12,177.41V321.34H153.85v17.37Zm.14-46.51H153.83v17.06h66.25Z"/><path class="cls-4" d="M214.41,158.05c15.86,9.13,31.58,8.66,47.17-.57l.58.57-24.23,59.6c-8.21-20.18-16.07-39.51-23.94-58.83Z"/><path class="cls-3" d="M274.16,161.33c5.6,2.54,11,4.84,16.16,7.47.81.41,1.24,2.29,1.25,3.49.07,18.44.05,36.88.05,55.32q0,28.47,0,56.92v3.6H274.16Z"/><path class="cls-3" d="M200.82,161.3V288.08h-17.3c-.06-1.22-.17-2.45-.17-3.69q0-56-.07-112c0-2.38.72-3.61,2.93-4.52C191,165.89,195.7,163.63,200.82,161.3Z"/><path class="cls-3" d="M219.94,338.71H153.85V321.34h66.09Z"/><path class="cls-3" d="M220.08,292.2v17.06H153.83V292.2Z"/><line class="cls-5" x1="163.94" y1="152.22" x2="132.94" y2="101.22"/><line class="cls-5" x1="205.09" y1="135.81" x2="191.79" y2="77.63"/><line class="cls-5" x1="245.44" y1="131.56" x2="245.44" y2="71.87"/><line class="cls-5" x1="286.05" y1="134.07" x2="296.83" y2="75.37"/><line class="cls-5" x1="321.18" y1="150.45" x2="347.71" y2="96.98"/></svg>
