<svg id="Layer_1" data-name="Layer 1" xmlns="http://www.w3.org/2000/svg" width="500" height="500" viewBox="0 0 500 500"><defs><style>.cls-1{fill:#373d46;}.cls-2{fill:#41fd2e;}.cls-3{fill:#63676d;}.cls-4{fill:#fff;}</style></defs><title>bud_3</title><circle class="cls-1" cx="255.32" cy="257.97" r="208"/><path class="cls-2" d="M255.32,63A195,195,0,0,1,393.21,395.86,195,195,0,1,1,117.44,120.09,193.69,193.69,0,0,1,255.32,63m0-26c-122,0-221,98.95-221,221s99,221,221,221,221-98.94,221-221-98.94-221-221-221Z"/><path class="cls-3" d="M267.93,269.88q11.16,20.55,22.29,41.11c4.2,7.8,2.94,11.6-5,15.47a55.73,55.73,0,0,1-42.25,3.15,15.14,15.14,0,0,0-11.72.92q-33.33,15.24-66.83,30.08c-15,6.64-28.55,1.94-36.31-12.24-1.35-2.47-2.71-4.93-4-7.42-7.17-13.55-3.23-27.9,9.78-36,10.66-6.6,21.15-13.48,31.95-19.84,3.63-2.14,4.79-3.53,2.59-7.75-2.62-5-.63-9.86,3.89-13.08s9.28-2.85,13.89.35c2,1.41,2.33,6.34,6.12,4,4.21-2.58,9.44-3.94,11-10.06a55.69,55.69,0,0,1,25.95-35c7.8-4.72,11.6-3.63,16.09,4.59Q256.66,249,267.93,269.88ZM252.55,278c-5.57-10.26-11.36-20.41-16.61-30.83-2.46-4.88-4.16-4-7-.55a41.61,41.61,0,0,0-9.49,20.95,11.32,11.32,0,0,1-5.75,8.81c-7.61,4.54-15.11,9.25-22.63,13.91l-47.33,29.39c-3.78,2.34-6.45,5.48-5.23,10.11.81,3.07,2.52,5.93,4.05,8.76,4.08,7.57,7.49,8.91,15.2,5.51q36.47-16.06,72.8-32.44c4.67-2.12,8.76-2.62,13.54-.34,6.55,3.12,13.6,3.78,20.87,3.09,5-.47,7-1.39,3.8-6.78C263,297.9,257.91,287.85,252.55,278Z"/><path class="cls-4" d="M328,237c13.18,24.68,7,55.06-14.84,73.32-5.43,4.52-10.72,4.68-14.28.43s-2.55-9.41,2.87-13.95c22.06-18.46,20.05-52.06-4.14-66.85a40.1,40.1,0,0,0-33.67-4.35c-7.35,2.19-12.25.5-13.92-4.9s1.38-9.71,8.72-11.92C285.87,200.59,314.79,212.37,328,237Z"/><path class="cls-4" d="M361.21,227.2c-4,2.16-7.88,4.5-12,6.43-4.25,2-8.28,1.29-10.53-3.07-2.09-4.06-.58-7.81,3.23-10,8.22-4.73,16.55-9.29,25-13.59,4.14-2.11,8.18-1.39,10.46,3.11s.27,8-3.69,10.34-8.31,4.56-12.48,6.82Z"/><path class="cls-4" d="M257.94,157c2.25,9.91,4.87,20.37,6.9,30.95.74,3.87-2,6.57-5.75,7.48-4,1-7.21-.94-8.2-4.56-2.77-10.19-5.16-20.5-7.28-30.85-.73-3.58,1.67-6.28,5.12-7.28C252.46,151.63,255.47,153.1,257.94,157Z"/><path class="cls-4" d="M326.76,315.63c3.58-1.88,6.73-1,9.37,1.77,6.59,6.84,13.14,13.71,19.59,20.68,3.18,3.44,2.86,7.33-.29,10.42s-7.15,3-10.37-.28c-6.78-7-13.55-13.92-20-21.16C321.3,322.85,322.28,318.06,326.76,315.63Z"/><path class="cls-4" d="M326.37,162.67a7.37,7.37,0,0,1,.16,7.05c-3.76,8.48-7.5,17-11.32,25.41-2,4.36-5.33,6.47-9.91,4.44-4.84-2.14-5.59-6.18-3.53-10.82q5.49-12.42,11.06-24.82a7.92,7.92,0,0,1,7.55-5.13A6.35,6.35,0,0,1,326.37,162.67Z"/><path class="cls-4" d="M388.71,277.59c1.76,2.91,1.88,5.48.4,7.83a7.18,7.18,0,0,1-7.11,3.66c-10-1.42-20.07-2.91-30-4.84-4.08-.8-6.06-4.15-5.33-8.35s3.59-6.59,7.83-6c10,1.37,20,3.08,30,4.76A5.55,5.55,0,0,1,388.71,277.59Z"/></svg>
