<svg id="Layer_1" data-name="Layer 1" xmlns="http://www.w3.org/2000/svg" width="500" height="500" viewBox="0 0 500 500"><defs><style>.cls-1{fill:#373d46;}.cls-2{fill:#41fd2e;}.cls-3,.cls-4,.cls-5{fill:none;stroke:#eaeaea;stroke-miterlimit:10;}.cls-3{stroke-width:5px;}.cls-4{stroke-width:7px;}.cls-5{stroke-width:6px;}</style></defs><title>bud_2</title><circle class="cls-1" cx="255" cy="246.87" r="208"/><path class="cls-2" d="M255,51.87A195,195,0,0,1,392.89,384.76,195,195,0,0,1,117.11,109,193.73,193.73,0,0,1,255,51.87m0-26c-122,0-221,98.95-221,221s98.95,221,221,221,221-98.94,221-221-98.95-221-221-221Z"/><polygon class="cls-3" points="158.59 284.41 246.83 287.58 322 205.3 344.87 287.58 354.68 284.41 318.73 154.67 308.92 157.84 318.73 192.65 230.49 224.29 223.95 198.97 210.88 198.97 220.69 227.45 155.32 274.92 158.59 284.41"/><polygon class="cls-3" points="178.58 274.29 235.06 274.29 225.1 237.74 178.58 274.29"/><polygon class="cls-3" points="235.06 234.41 308.16 204.51 245.03 267.64 235.06 234.41"/><line class="cls-4" x1="191.87" y1="197.87" x2="248.35" y2="197.87"/><circle class="cls-5" cx="160.31" cy="279.27" r="59.81"/><circle class="cls-5" cx="349.69" cy="285.92" r="59.81"/><line class="cls-4" x1="301.52" y1="154.67" x2="324.77" y2="148.03"/></svg>
