<svg id="Layer_1" data-name="Layer 1" xmlns="http://www.w3.org/2000/svg" width="493" height="478" viewBox="0 0 493 478"><defs><style>.cls-1{fill:#373d46;}.cls-2{fill:#41fd2e;}.cls-3{fill:#eaeaea;}</style></defs><title>bud_6</title><circle class="cls-1" cx="250" cy="239" r="208"/><path class="cls-2" d="M250,44A195,195,0,0,1,387.89,376.89,195,195,0,0,1,112.11,101.11,193.72,193.72,0,0,1,250,44m0-26C127.94,18,29,117,29,239s98.94,221,221,221,221-98.95,221-221S372.05,18,250,18Z"/><path class="cls-3" d="M259.32,322.37c14.1-3.63,26.49-.7,33.53,1,18.91,4.69,20.59,11.89,34.16,12.08,1.84,0,21.05,0,27.5-12.21,4.88-9.28-.3-20.38-2.87-25.86-3.68-7.9-8.55-13.09-30.89-30.77-23.83-18.84-17.38-17.69-27.2-26.26-17.26-15.07-23.89-19.09-34.51-21.12-13.69-2.62-25.27,5.19-26.4,6-10,7-8.7,14.29-19.44,32.24-9.29,15.51-12.28,13.39-24.53,32-11.2,17-16.81,25.5-15.88,35.75,1.45,16.1,16.68,32.31,30.06,31.9,8.71-.27,10-7.38,32.09-22C245.65,328,251.18,324.46,259.32,322.37Z"/><ellipse class="cls-3" cx="163.93" cy="245.02" rx="24.03" ry="34" transform="translate(-93.47 101.3) rotate(-27.04)"/><ellipse class="cls-3" cx="334.87" cy="218.4" rx="24.03" ry="34" transform="translate(-3.05 4.75) rotate(-0.81)"/><ellipse class="cls-3" cx="201.61" cy="173.25" rx="29.76" ry="38.52" transform="translate(-56.72 110.59) rotate(-27.04)"/><ellipse class="cls-3" cx="275.93" cy="163.13" rx="38.52" ry="29.76" transform="translate(88.54 423.19) rotate(-84.82)"/></svg>
