<svg id="Layer_1" data-name="Layer 1" xmlns="http://www.w3.org/2000/svg" width="499" height="489" viewBox="0 0 499 489"><defs><style>.cls-1{fill:#373d46;}.cls-2{fill:#41fd2e;}.cls-3{fill:#fdd800;}.cls-4{fill:#fee000;}.cls-5{fill:#fede00;}.cls-6{fill:#fdd700;}.cls-7{fill:#fad500;}.cls-8{fill:#fcd700;}.cls-9{fill:#fad600;}.cls-10{fill:#f9d500;}.cls-11{fill:#fbd600;}.cls-12{fill:#fbd700;}.cls-13{fill:#d8bd00;}.cls-14{fill:#dec000;}.cls-15{fill:#eece00;}.cls-16{fill:#e9cb00;}.cls-17{fill:#eccc00;}.cls-18{fill:#e1c200;}.cls-19{fill:#e9cd00;}.cls-20{fill:#ba9e00;}.cls-21{fill:#d5b900;}.cls-22{fill:#eacc00;}.cls-23{fill:#fee100;}.cls-24{fill:#fedf00;}.cls-25{fill:#ebcd00;}.cls-26{fill:#e0bf00;}.cls-27{fill:#e7c800;}.cls-28{fill:#fadf00;}.cls-29{fill:#fee300;}.cls-30{fill:#fce000;}.cls-31{fill:#fee400;}.cls-32{fill:#0f0d00;}.cls-33{fill:#f0cd00;}.cls-34{fill:#241f00;}.cls-35{fill:#fee200;}.cls-36{fill:#e2c800;}.cls-37{fill:#110e00;}.cls-38{fill:#382f00;}.cls-39{fill:#1d1900;}.cls-40{fill:#8c7800;}.cls-41{fill:#f0ce00;}.cls-42{fill:#fde000;}.cls-43{fill:#584a00;}.cls-44{fill:#211c00;}.cls-45{fill:#daba00;}.cls-46{fill:#d9bd00;}.cls-47{fill:#bfa200;}.cls-48{fill:#1b1700;}.cls-49{fill:#423800;}.cls-50{fill:#af9500;}.cls-51{fill:#050400;}.cls-52{fill:#050500;}.cls-53{fill:#0d0b00;}.cls-54{fill:#ddbc00;}.cls-55{fill:#292300;}</style></defs><title>bud_1</title><circle class="cls-1" cx="257.67" cy="250.14" r="208"/><path class="cls-2" d="M257.67,55.14A195,195,0,0,1,395.56,388,195,195,0,0,1,119.78,112.25,193.72,193.72,0,0,1,257.67,55.14m0-26c-122.06,0-221,99-221,221s98.94,221,221,221,221-98.94,221-221-98.95-221-221-221Z"/><path class="cls-3" d="M368.54,382.05c-1.44,3.73-4.68,1.91-7,1.93q-103.08.94-206.14,1.54c-2.3,0-5.53,1.89-7-1.85,1.26-2.58.74-5.34.72-8q-.88-124.71-1.86-249.41c0-2.68.45-5.44-.83-8,1.44-3.73,4.68-1.91,7-1.93q103.07-.94,206.14-1.54c2.3,0,5.52-1.89,7,1.85-1.25,2.58-.73,5.34-.72,8q.9,124.71,1.86,249.41C367.72,376.72,367.25,379.48,368.54,382.05Z"/><path class="cls-4" d="M368.54,382.05c-2.72-3.61-1.84-7.84-1.87-11.84q-1-120.87-1.8-241.74c0-4-1-8.21,1.69-11.86.3,18.63.72,37.27.87,55.9q.82,99.2,1.48,198.39C368.94,374.61,368.67,378.33,368.54,382.05Z"/><path class="cls-5" d="M362.57,374c-2.41,4.39-6.62,4.14-10.73,4.17L165,379.51c-4.11,0-8.31.34-10.79-4a21.24,21.24,0,0,1,3.16-2.51c4.72-2.58,9.91-2,15-2.07q86-.76,172-1.29c5,0,10.23-.66,15,1.85A21.17,21.17,0,0,1,362.57,374Z"/><path class="cls-5" d="M152.39,126.33c2.42-4.38,6.63-4.14,10.73-4.17l186.8-1.39c4.11,0,8.32-.34,10.8,4a21.7,21.7,0,0,1-3.16,2.5c-4.72,2.58-9.91,2-14.95,2.07q-86,.77-172,1.29c-5,0-10.22.66-15-1.85A21.77,21.77,0,0,1,152.39,126.33Z"/><path class="cls-4" d="M358.6,124.82l2.12,0q.93,124.58,1.85,249.17h-2.11c-4.24-3.38-4.45-8.19-4.42-13,.21-39.73-.27-79.47-.31-119.19,0-33.57-.64-67.22-1.35-100.83C354.26,135.26,353.42,129.19,358.6,124.82Z"/><path class="cls-1" d="M156.36,375.46l-1.85-249.12a59.68,59.68,0,0,1,7-.85q95-.78,190.07-1.42a57.67,57.67,0,0,1,7,.75l1.86,249.12a57.79,57.79,0,0,1-7,.85q-95,.78-190.07,1.42A57.67,57.67,0,0,1,156.36,375.46Z"/><path class="cls-6" d="M204.46,277.13,192.9,293.49c-3.15-4.64-6.22-9.17-11.12-16.42.06,8.05-.19,13.25.22,18.4.43,5.33-1.53,7.09-6.87,7.16-5.56.08-5.88-2.8-5.86-7,.07-10.88-.22-21.77-.12-32.66,0-2.7-1.63-7,3-7.36,4.08-.35,8.95-2.21,12,2.87,2.76,4.64,5.62,9.22,8.94,14.66,2.87-5,5.55-9.09,7.67-13.47,2.73-5.63,7.63-4.89,12.25-4.51,6.3.51,3.76,5.74,3.6,8.73-.71,12.57,2.79,25.32-1.55,37.72-7.93-.2-10.45-4.22-9.48-11.94C206,285.62,206.72,281.13,204.46,277.13Z"/><path class="cls-7" d="M240.66,187c-1.2-1.08-2.47-2.08-3.57-3.25-2.9-3.09-3.5-9.75-8.34-9.17-5.75.69-2,6.64-2.82,10.16-1.1,4.65-4.61,3-7.34,3.28-3.23.3-6.13.11-6.11-4.51.05-12.56-.09-25.13-.25-37.69,0-3.36,1.31-5.14,4.74-5,8.11.25,16.31-1.28,24.31,1.13,10,3,15.9,15.05,9.14,22.34-7.07,7.61-3.66,12.45.16,18.56C248.84,187.94,243.41,184.31,240.66,187Z"/><path class="cls-8" d="M182.76,188.49c-14.24,0-14.24,0-14.35-14.74-.07-8.84-.16-17.68-.17-26.52,0-2.66-.46-6,3.58-6,8.46,0,17-1.49,25.37.83,8.59,2.4,11.37,9.35,7.34,17.48-1,1.94-4.07,2.56-.84,6.27,8.95,10.25,4.74,20.15-8.73,22C190.94,188.35,186.83,188.28,182.76,188.49Z"/><path class="cls-9" d="M292.59,300.93c-4.55-1.8-5.23-6.73-8-10-1.37-1.6-2.47-3.4-4.83-2.88-2.73.61-2.35,3.05-2.23,5,.31,5.17.31,9.09-7.08,9-8.34-.14-5.92-5.73-6-9.91-.3-10.18,0-20.38-.4-30.56-.23-5.39,1.68-7.4,7-7,7.4.61,14.9-1.16,22.24,1.32,10,3.38,15.81,15.19,8.91,22.4-7.43,7.75-3.17,12.5.34,18.57C300.71,301.91,295.4,298.39,292.59,300.93Z"/><path class="cls-8" d="M344.83,180.07c-10.31,9.86-24.41,11-34.64,2.71-8.9-7.18-11.31-21.06-5.46-31.44,6-10.61,19.06-15.06,30.88-10.22,3,1.25,8.52,1.79,6.55,6.72-1.78,4.43-4.73,8.59-11.54,4.37-4.3-2.66-10.12-1.39-13.53,3.6a13.75,13.75,0,0,0-.59,15.38c2.68,4.68,7.28,5.66,12.38,5.12,2.21-.24,4.08-.73,4.41-3.25.36-2.8-1.5-3.59-3.75-3.39-5.23.46-5.17-2.92-5.08-6.53.11-4.48,3.52-3.21,5.93-3.39,16.41-1.24,17.51.34,14.43,20.34-2.28-3.33-.28-7.11-.88-8.89C344.29,173,342.62,176.74,344.83,180.07Z"/><path class="cls-9" d="M274.21,225.82c-3.26,5.34-2.44,8.23,4.5,7.84,4.07-.23,8.17.09,12.24-.18,3.84-.25,5.39,1,5.4,5.08s-.78,6.25-5.54,6.1c-8.15-.26-16.32-.13-24.47.16-4.65.17-6.77-1.16-6.68-6.25q.31-17.34-.25-34.68c-.15-5,1.83-6.54,6.54-6.43,8.16.18,16.33.15,24.48-.19,4.78-.2,5.47,2.08,5.65,6.14.2,4.71-1.77,5.86-6,5.61a113.62,113.62,0,0,0-12.24.08c-2.11.11-5.19-.94-5.36,2.82-.19,4.38,3.2,3.51,5.75,3.61,2.72.1,5.44-.06,8.16,0,8.86.13,8.95.32,5.66,10C286.08,223.83,280.13,223.56,274.21,225.82Z"/><path class="cls-8" d="M297.65,158.15c0,3.39.15,6.79.06,10.17-.3,12.34-7.28,19.58-19.39,20.2-12.92.66-20.83-5.76-21.9-18.52-.65-7.75-.18-15.58-.57-23.37-.25-5,2-6.27,6.62-6.32s6.7,1.4,6.49,6.35c-.29,6.77,0,13.56.1,20.34.09,5.41,2.17,9.38,8.23,9.36,5.62,0,7.6-4.1,7.81-8.82.32-7.11.32-14.25-.07-21.35-.3-5.32,2.3-6,6.73-6.09s6.12,1.45,5.86,5.85C297.38,150,297.62,154.09,297.65,158.15Z"/><path class="cls-10" d="M323.6,282.6c-1.92,5.25-1.35,8.52,5.52,7.78,4-.44,8.15.07,12.21-.21s5.25,1.6,5.2,5.39c0,3.56-.65,5.81-5,5.74q-13.23-.19-26.47.21c-4.71.14-5.6-2.28-5.58-6.3.06-11.53,0-23.08-.28-34.61-.14-4.93,1.79-6.55,6.55-6.41,7.8.21,15.62.17,23.41-.19,4.75-.22,6.51,1.19,6.65,6.21.15,5.82-3.1,5.67-7.07,5.58s-8.15,0-12.22.09c-2.15,0-4.05.32-4,3.26s2,2.88,4.08,3.21c5.41.83,11.22-2.14,16.31,1.68-4.46,2.11-9.16.52-13.68,1.19a2.35,2.35,0,0,1,1.3-.05c3.84,1,10.81-2.9,11,2.7.27,6.25-6.81,2.25-10.5,3.33C328.7,281.91,325.78,280.23,323.6,282.6Z"/><path class="cls-11" d="M223.39,299.42c-.21-12.88-.31-25.77-.71-38.64-.13-4.36,1.35-6,5.8-5.93,8.14.2,16.29.08,24.42-.16,4.15-.13,6.12,1,6.27,5.63.17,5.22-2.13,6.38-6.68,6.14-4.4-.24-8.82,0-13.23.06-2.11,0-4,.19-4.07,3.11s1.6,3.35,3.87,3.34c3.74,0,7.47.07,11.2-.1s6.59.1,6.73,5.08c.14,4.77-2.18,5.81-6.21,5.62a55.15,55.15,0,0,0-8.13.1c-2.93.31-7.48-1.76-7.28,4.1.18,5.4,4.37,2.81,6.83,3.09a59.55,59.55,0,0,0,10.17,0c9.45-.58,8.7,4.14,5.47,10.26C246.46,298.49,234.77,302.18,223.39,299.42Z"/><path class="cls-8" d="M302.34,243.86c-4.57-14.37-1.48-29.13-2-43.7-.15-4.57,4.66-2.44,7.33-2.89,3.37-.55,5,1,5,4.52-.07,3.9,0,7.81.08,13.21,9.43-7.75,12.74-22.69,28.14-17.34,0,4.28-3.54,7.15-6.34,9.5-8.62,7.21-8.07,14-1.08,21.9,3.52,4,6.06,8.82,9.21,13.52-10.5,4.75-16.39.14-20.93-8.55-1.71-3.28-3.7-9-8.68-2.53C310.11,242,310.11,242,302.34,243.86Z"/><path class="cls-12" d="M238.2,197.21a16.87,16.87,0,0,1,10.31,2.25c2.22,1.37,8,1.09,5,6.47-1.85,3.3-3.32,8.24-8.94,4.31a10.18,10.18,0,0,0-3.85-1.16c-2.93-.56-6.84-2-7.76,2-.8,3.45,3.43,3.36,5.72,4.32,1.54.64,3.31.67,4.93,1.15,7.69,2.31,13.9,6.13,13.17,15.44-.63,8.05-7.62,13.46-17.36,14a30.94,30.94,0,0,1-16.58-4.09c-2.47-1.34-6.35-2.57-3.09-6.66,2.13-2.68,3.64-7.28,8.51-3.45a7.11,7.11,0,0,0,2.73,1.34c4.09.92,10.21,3.8,11.59-1,1.59-5.48-5.58-4.38-8.92-5.44-8.45-2.68-15.4-6.15-13.94-16.69C220.82,201.74,227.46,197.19,238.2,197.21Z"/><path class="cls-8" d="M169.5,236.49c4.14-6.85,11.64-10,17-15.47,2.71-2.76,5.94-5.82,3.33-9.57-2.75-3.95-6.71-2.26-9.51.67-4.4,4.58-6.6-.06-9.08-2.12-4.1-3.41.23-5.38,2-7.14,7.32-7.21,20.11-7.15,26.59-.17s5.21,16.17-3.44,23.92c-2.47,2.22-5.16,4.2-8,6.48,4.75,3.86,11.27-1.87,15.41,3.23-.22,5.12-2.27,7.75-8,7.25a76.34,76.34,0,0,0-17,.16C172.67,244.58,170.54,241.56,169.5,236.49Z"/><path class="cls-13" d="M251.9,350.64c-1.54,0-3.22-3.26-3.34-1.91-.76,8.23-7.93,7.35-12.72,9.82-4.69-5.45-3.6-10.84.13-16.22,6.89.15,13.83.07,20.12,3.59C257.37,349.87,254.63,350.24,251.9,350.64Z"/><path class="cls-14" d="M289.84,334.1c-3.35-2.9-3.26-2.81-5.3-.91-4.73,4.41-10.58,1.77-15.91,2.38a1.64,1.64,0,0,1-.87-1.42c0-.59.09-.89.23-.89,1.82-2.85,5.82-2.16,7.75-4.82,2.17-2.69,1.43-7,4.9-8.95,2.67-.24,4.27,1.36,5.81,3.22,2.7,3.26,2.68-.79,3.9-1.51C295.39,326.1,295.22,330.54,289.84,334.1Z"/><path class="cls-15" d="M247.77,325.61c2.61-11.16,7.82-6,12.84-2.05,3.08,4.28,1.58,7.58-2.19,10.41-2.26,2.61-5.89-4-8.49,1.42-.52,1.08-1.77-3.22-2.15-5.29A3.26,3.26,0,0,1,247.77,325.61Z"/><path class="cls-16" d="M247.77,325.61c0,1.5,0,3,0,4.49-1.85,1.77-3.45,4-5.63,5.19-3.34,1.81-6.62.61-8.93-2.23-2.62-3.21-2.72-6.81-.05-10,2.28-2.77,5.37-4.35,8.83-2.42C244.18,321.81,245.86,323.91,247.77,325.61Z"/><path class="cls-17" d="M321.63,319.24c4.07.06,8.21-.26,11.9,2.05,4.24,4.92,1.59,8.44-2.38,11.68-4.29-3.64-6.07,2.7-9.53,2.4C317.17,330,317.07,324.62,321.63,319.24Z"/><path class="cls-18" d="M215.21,334.17c-4.86,2.31-9.41-.55-14.32-.22,5.15-15.11,5.15-15.11,10.83-10C215.67,326.39,217.64,329.53,215.21,334.17Z"/><path class="cls-19" d="M190.77,348.58c2.52-8.46,7.55-3.58,11.92-2.24-1.28,3.53,3.68,6.8.44,10.42-5.08,1.86-10.67,5.44-12.39-3.76A3.17,3.17,0,0,1,190.77,348.58Z"/><path class="cls-20" d="M293.56,356c2.14.13,4.46-.86,7.34,1.72-5.47.76-9.88,1.26-14-1.63-2-1.38-2.55-3.36-2.42-5.65.57-2.71,2.27-4.75,4-6.78a40.57,40.57,0,0,1,26.1-.24c.11,0,.18.74,0,.94a9.38,9.38,0,0,1-1.34,1.16c-3.52-.12-6.92.79-10.39,1.17a14.94,14.94,0,0,0-3.8,1.17C294.73,348.92,289.85,349.57,293.56,356Z"/><path class="cls-21" d="M289.84,334.1c4.09-4.15,3.93-8.46.51-12.9,9.37-3.77,19.21-.7,28.74-2a1.49,1.49,0,0,1,1,1.33c0,.6-.07.9-.23.9-3.74,3-8.35,5.3-8.78,11a5.41,5.41,0,0,1-2.28,1.51l-1.71-10.69c-4.1-.79-8.19-1.19-12.23.32-.11,3-.06,5.95-.38,8.89C294.08,335.82,292.33,336.2,289.84,334.1Z"/><path class="cls-22" d="M227.63,346.66a2.32,2.32,0,0,1,1.64-.12c3.83,3.12,6.38,6.72,4.41,12-3.5,1.66-6.45-7.14-10.56-.43-.71,1.14-2.47-1.41-2.45-3.09.05-3.63.29-7.27.45-10.9C224.43,342.05,224.42,348.44,227.63,346.66Z"/><path class="cls-23" d="M169.5,236.49c7.15,8.81,28,8.7,34.38-.17,1.41,6,.58,9.73-7.14,9a126.78,126.78,0,0,0-20.25.11C169.15,246,167.43,242.91,169.5,236.49Z"/><path class="cls-24" d="M323.6,282.6c4.13-5.73,11.28.42,16.29-4.52-4.06-4-9.79-.19-15.24-3.91L343,274c1.72,6.27.36,9.85-7.17,8.92C331.79,282.45,327.67,282.69,323.6,282.6Z"/><path class="cls-16" d="M278.5,332.35c-3.08,2-6.55,1.28-9.89,1.42-4.65-4.63-4.23-9.26,0-13.89l9.55-.34c2.79,2.49,0,4.59-.48,6.84a11.41,11.41,0,0,0,0,2.41A18.08,18.08,0,0,1,278.5,332.35Z"/><path class="cls-25" d="M251.91,350.64l4.18-4.72c4.25-5.77,9.63-3.9,15-2.21-2.75,3.1-5.63,2.72-8.58.31-5.07,3.31-5.2,9.33-7.27,14.33C250.53,356.89,252.83,353.13,251.91,350.64Z"/><path class="cls-26" d="M345.76,321c-.65,4.14-4.79.78-6.46,3.11,1.3,2.7,6.68-1.09,6.3,3.32-.31,3.52-4.78.4-6.58,3l6.79,1.16c-2.8,5.21-6.88,2.38-10.63,1.71-2.45-4.12-.25-8.22.07-12.32A12.68,12.68,0,0,1,345.76,321Z"/><path class="cls-27" d="M278.11,352.29a1.84,1.84,0,0,1-1.15.49c-2.44-1.31-4.08-2.9-2-5.79,3.35-3.69,6.7-7.44,12.16-3.23.69,2.83-.92,5-2.09,7.3C283.08,353.62,280.79,354,278.11,352.29Z"/><path class="cls-28" d="M210.86,342.66c1.49.52,1.94.54,2.08.75,3,4.62,1.81,9.51.75,14.34-.06.24-2.49.4-2.59.12C209.15,352.83,209.51,347.87,210.86,342.66Z"/><path class="cls-22" d="M294.83,323.55c4-3.22,8.08-3.07,12.23-.32l-6.25,11.87C295.16,333.71,303.4,323.71,294.83,323.55Z"/><path class="cls-29" d="M213.2,324c2.74-7.3,8.11-2.46,13.1-2.77-6.4,3.07-3.49,8.74-4.79,13.09-5.73.69-4.24-4.52-5.86-7.17C215,326,213.89,325.12,213.2,324Z"/><path class="cls-30" d="M303.22,345.6c3.31-2.67,6.65-2.71,10-.07-6,2.22-.24,9.21-5,12.12-4.63-2.16-1.33-6.84-3.14-9.81C304.45,347.12,303.11,347,303.22,345.6Z"/><path class="cls-31" d="M262.49,344l8.58-.31,1.71,2.23a13.61,13.61,0,0,1-.89,2.21,4.3,4.3,0,0,0,.65,4.35,3.89,3.89,0,0,1-.06,3.59l-.11.05a9.69,9.69,0,0,1-9.58.12Z"/><path class="cls-4" d="M223.39,299.42c11.47,1,23.15-2.49,34.45,1.7-10.35.3-20.7.62-31.06.88C225.05,302.05,223.43,301.71,223.39,299.42Z"/><path class="cls-32" d="M319.37,321.17a2.68,2.68,0,0,0-.28-2l2.54,0q0,8.07,0,16.13l-2.24.09a8.12,8.12,0,0,0-2.24-1.62c-5.2.06-6.26-2.52-6.27-7.52C310.86,318.88,317.49,324.31,319.37,321.17Z"/><path class="cls-33" d="M265.9,335.52l-3.36.22c-3.44-3.81-1.09-8.08-1-12.18.64-2.05,1.07-4.35,4.14-3.63A18.33,18.33,0,0,1,265.9,335.52Z"/><path class="cls-34" d="M233.68,358.52c.38-4.67-5.41-7.08-4.41-12l6.7-4.21a32.75,32.75,0,0,0-.13,16.22Z"/><path class="cls-35" d="M204.46,277.13c3,3.08,2.51,7,2.13,10.63-.73,7,1.56,11.68,8.4,13.85-7.38,2.06-11.43.48-10.42-8.39C205.18,287.93,204.54,282.49,204.46,277.13Z"/><path class="cls-23" d="M278.11,352.29l7.2-2.57,1-.27.39.93.19,5.72C281.82,359.68,278.43,359.5,278.11,352.29Z"/><path class="cls-36" d="M349.12,244.26c-2.25.17-4-.31-4.08-3.06-.09-2.11-.16-4.09,2.78-4.11,2.37,0,4.8-.26,4.8,3.33C352.63,242.91,351.56,244.13,349.12,244.26Z"/><path class="cls-37" d="M272.36,325.55c-.18-4.06,8.72.68,5.83-6l2.45-.05c-2.26,4,2.49,9.23-2.14,12.86-1.7-1.65-5.2.92-6.11-2.6Q274.6,327.64,272.36,325.55Z"/><path class="cls-38" d="M335.94,321.06l-.08,12.23c.78.41,1.05.83.81,1.27s-.5.66-.75.67L331.15,333c-.16-4.09,3.93-7.31,2.38-11.68l2.44-2c.67.42.89.82.65,1.22S336.17,321.06,335.94,321.06Z"/><path class="cls-39" d="M213.2,324l3.64.22c2.42,3.82,1.6,7.85.74,11.87l-2.37-1.89-3.49-10.26A2.1,2.1,0,0,1,213.2,324Z"/><path class="cls-40" d="M203.13,356.76c-.25-2.19.79-4.71-2.1-6.13-1.33-.64-4.9,1.34-3.7-2.38.68-2.09,3.42-1.6,5.36-1.91C203.58,349.78,207.64,353.09,203.13,356.76Z"/><path class="cls-4" d="M274.21,225.82c5.88-4.47,11.86-3.13,17.86-.29A57.53,57.53,0,0,1,274.21,225.82Z"/><path class="cls-4" d="M302.34,243.86c6.81-1.31,7.77-7.71,10.74-12.36C312.7,238.41,315.28,247.88,302.34,243.86Z"/><path class="cls-41" d="M269.93,346.32l2.85-.38,2.14,1.05,2,5.79a6.57,6.57,0,0,1-4.48,3.31l-2.3-2A10.2,10.2,0,0,1,269.93,346.32Z"/><path class="cls-42" d="M293.56,356c-3.94-3-3.63-7.12-1.58-10.58,1.48-2.5,4.59-1.91,6.92,0-.28,2-1.64,3.05-3.19,4a10.43,10.43,0,0,0-2.52,3C293.32,353.62,293.44,354.81,293.56,356Z"/><path class="cls-43" d="M265.9,335.52q-.09-7.8-.17-15.59l2.91-.05,0,13.89a5.18,5.18,0,0,0,0,1.8Z"/><path class="cls-44" d="M261.59,323.56q.46,6.09,1,12.18L258.42,334c-1.41-3.91,3.08-6.6,2.19-10.41Z"/><path class="cls-45" d="M293.19,352.42c0-1.64,0-3.28,0-4.93,2.5-.62,5-1.48,7.31.56C300.94,354.31,295.6,350.91,293.19,352.42Z"/><path class="cls-4" d="M292.59,300.93l9.88-4.09c1.29,1.61,4.14,3.69-.24,4.48C299.14,301.87,295.81,301.11,292.59,300.93Z"/><path class="cls-46" d="M335.92,335.23a2.2,2.2,0,0,1-.06-1.94c3.38-.19,6.94.67,9.95-1.69,2.75,2.23.68,3.24-1.19,3.48A74.15,74.15,0,0,1,335.92,335.23Z"/><path class="cls-47" d="M217.58,336.06q-.37-5.94-.74-11.87c4.17,2.16.75,7.83,4.67,10.1C221.18,337,219.06,335.85,217.58,336.06Z"/><path class="cls-4" d="M240.66,187l9.92-4.19c1.4,1.66,4.16,3.84-.16,4.7C247.33,188.16,243.92,187.25,240.66,187Z"/><path class="cls-48" d="M300.52,348.05l-7.31-.56c1.22-2.55,3.83-1.26,5.69-2l4.32.14c1,.41,2.19.71,1.9,2.24Z"/><path class="cls-49" d="M286.66,350.38a1.83,1.83,0,0,0-1.35-.66l1.77-6a2.8,2.8,0,0,1,1.35-.09C288.26,346,290.51,349,286.66,350.38Z"/><path class="cls-50" d="M227.63,346.66c-3.68,3-4.1-2.32-6.51-2.56C225.57,339.16,225,347,227.63,346.66Z"/><path class="cls-21" d="M319.64,333.44l-.26,2c-3.51-.74-7.45,1.59-10.61-1.54l.67-.69C312.86,332.11,316.27,331.8,319.64,333.44Z"/><path class="cls-41" d="M262.79,356.26l9.58-.12C269.21,358.43,266,359.91,262.79,356.26Z"/><path class="cls-46" d="M335.94,321.06a4.6,4.6,0,0,1,0-1.81c3.24.73,7.1-2.13,9.79,1.73Z"/><path class="cls-51" d="M230.92,163.07c-4,.73-5.26-1.27-5.39-5.62-.15-5,2.49-5.27,6.25-5.21,4.15.07,7.83,1.08,7.79,5.79C239.53,163.24,235.1,163,230.92,163.07Z"/><path class="cls-52" d="M283.7,276.92c-3.59.29-6.51.2-6.54-4.95,0-4.42,1.38-6,5.77-5.79,4,.14,7.95.3,8.34,5.12C291.69,276.4,287.75,277,283.7,276.92Z"/><path class="cls-4" d="M344.83,180.07c-3.73-4.75-1.47-10-.12-15.19l.11,15.21Z"/><path class="cls-53" d="M242.11,327.87c-.15,1.55-.35,3.35-2.36,3.66-2.39.36-3.74-1.2-3.93-3.36a3.32,3.32,0,0,1,3.43-3.9C241.17,324.25,241.78,326,242.11,327.87Z"/><path class="cls-54" d="M319.64,333.44l-10.2-.21c-1.19-7.73,0-13.48,9.93-12.06-.81,4.08-4.65.91-6.47,2.79.74,3.32,6.19-.52,5.91,3.37s-4.77.67-6.33,2.94C314.07,333,318.65,329.18,319.64,333.44Z"/><path class="cls-54" d="M272.36,325.55c1.91.73,5.53-1.23,5.54,2.08s-3.61,1.37-5.51,2.12Z"/><path class="cls-55" d="M269.93,346.32a6.16,6.16,0,0,1,.25,7.73c-3.13.69-4.05-.79-4-3.71C266.23,347.71,266.55,345.69,269.93,346.32Z"/></svg>
