<svg id="Layer_1" data-name="Layer 1" xmlns="http://www.w3.org/2000/svg" width="481" height="458" viewBox="0 0 481 458"><defs><style>.cls-1{fill:#373d46;}.cls-2{fill:#41fd2e;}.cls-3{fill:#63676d;}.cls-4{fill:#fff;}.cls-5{fill:#eaeaea;}.cls-6{fill:#28292c;}</style></defs><title>bud_5</title><circle class="cls-1" cx="243.64" cy="228" r="208"/><path class="cls-2" d="M243.64,33A195,195,0,0,1,381.53,365.89,195,195,0,1,1,105.76,90.11,193.72,193.72,0,0,1,243.64,33m0-26c-122,0-221,99-221,221s99,221,221,221,221-98.95,221-221S365.7,7,243.64,7Z"/><rect class="cls-3" x="155.95" y="55.29" width="178.05" height="345.71"/><polygon class="cls-3" points="156 401 334 401 332 403 324 406 317 409 305 414 288 418 277 420 263 422 250 423 237 423 224 422 212 420 197 417 184 413 170 408 161 404 156 401"/><rect class="cls-3" x="154.62" y="55.29" width="178.05" height="345.71"/><polygon class="cls-3" points="332.62 55.29 154.62 55.29 156.62 53.29 164.62 50.29 171.62 47.29 183.62 42.29 200.62 38.29 211.62 36.29 225.62 34.29 238.62 33.29 251.62 33.29 264.62 34.29 276.62 36.29 291.62 39.29 304.62 43.29 318.62 48.29 327.62 52.29 332.62 55.29"/><rect class="cls-4" x="240" y="42" width="7" height="37"/><rect class="cls-4" x="240" y="104" width="7" height="37"/><rect class="cls-4" x="240" y="168" width="7" height="37"/><rect class="cls-4" x="240" y="228" width="7" height="37"/><rect class="cls-4" x="240.41" y="289" width="7" height="37"/><rect class="cls-4" x="240" y="344" width="7" height="37"/><rect class="cls-4" x="240.41" y="398.79" width="7" height="24.21"/><rect class="cls-4" x="279" y="336" width="28" height="65" rx="6.78"/><ellipse class="cls-4" cx="293" cy="361" rx="17" ry="1"/><path class="cls-1" d="M306,362c0,.58-1.66,3.64-3.12,4-2.32.58-6.05,0-9.88,0-4.08,0-8.26.58-10.92,0-1.72-.38-2.08-3.71-2.08-4.34a3.67,3.67,0,0,1,1.74-2.83C284,357.14,288.19,356,293,356s9,1.14,11.27,2.83A4.28,4.28,0,0,1,306,362Z"/><path class="cls-1" d="M280,394.6a5.21,5.21,0,0,1,3.12-2.44c2.32-.35,6.05,0,9.88,0,4.08,0,8.26-.36,10.92,0,1.72.23,2.08,2.26,2.08,2.65,0,.63-.63,1.22-1.74,1.73-2.25,1-6.45,1.72-11.26,1.72s-9-.69-11.27-1.73C280.63,396,280,395.23,280,394.6Z"/><polygon class="cls-5" points="280 339.03 281.07 337.56 282.8 337 284.52 337.56 280 340.85 280 339.03"/><polygon class="cls-5" points="305.84 338.74 304.77 337.27 303.05 336.7 301.32 337.27 305.84 340.55 305.84 338.74"/><polygon class="cls-6" points="305.84 398.52 304.77 399.99 303.05 400.55 301.32 399.99 305.84 396.7 305.84 398.52"/><polygon class="cls-6" points="280 398.82 281.07 400.29 282.8 400.85 284.52 400.29 280 397 280 398.82"/><polygon class="cls-1" points="304 367 306 365 306 378 304 378 304 367"/><polygon class="cls-1" points="304 379 306 379 306 391 304 389 304 379"/><polygon class="cls-1" points="282 367 280 365 280 378 282 378 282 367"/><polygon class="cls-1" points="282 379 280 379 280 391 282 389 282 379"/><rect class="cls-4" x="279" y="246" width="28" height="65" rx="6.78"/><ellipse class="cls-4" cx="293" cy="271" rx="17" ry="1"/><path class="cls-1" d="M306,272c0,.58-1.66,3.64-3.12,4-2.32.58-6.05,0-9.88,0-4.08,0-8.26.58-10.92,0-1.72-.38-2.08-3.71-2.08-4.34a3.67,3.67,0,0,1,1.74-2.83C284,267.14,288.19,266,293,266s9,1.14,11.27,2.83A4.28,4.28,0,0,1,306,272Z"/><path class="cls-1" d="M280,304.6a5.21,5.21,0,0,1,3.12-2.44c2.32-.35,6.05,0,9.88,0,4.08,0,8.26-.36,10.92,0,1.72.23,2.08,2.26,2.08,2.65,0,.63-.63,1.22-1.74,1.73-2.25,1-6.45,1.72-11.26,1.72s-9-.69-11.27-1.73C280.63,306,280,305.23,280,304.6Z"/><polygon class="cls-5" points="280 249.03 281.07 247.56 282.8 247 284.52 247.56 280 250.85 280 249.03"/><polygon class="cls-5" points="305.84 248.74 304.77 247.27 303.05 246.71 301.32 247.27 305.84 250.55 305.84 248.74"/><polygon class="cls-6" points="305.84 308.52 304.77 309.99 303.05 310.55 301.32 309.99 305.84 306.7 305.84 308.52"/><polygon class="cls-6" points="280 308.82 281.07 310.29 282.8 310.85 284.52 310.29 280 307 280 308.82"/><polygon class="cls-1" points="304 277 306 275 306 288 304 288 304 277"/><polygon class="cls-1" points="304 289 306 289 306 301 304 299 304 289"/><polygon class="cls-1" points="282 277 280 275 280 288 282 288 282 277"/><polygon class="cls-1" points="282 289 280 289 280 301 282 299 282 289"/><rect class="cls-4" x="279" y="166" width="28" height="65" rx="6.78"/><ellipse class="cls-4" cx="293" cy="191" rx="17" ry="1"/><path class="cls-1" d="M306,192c0,.58-1.66,3.64-3.12,4-2.32.58-6.05,0-9.88,0-4.08,0-8.26.58-10.92,0-1.72-.38-2.08-3.71-2.08-4.34a3.67,3.67,0,0,1,1.74-2.83C284,187.14,288.19,186,293,186s9,1.14,11.27,2.83A4.28,4.28,0,0,1,306,192Z"/><path class="cls-1" d="M280,224.6a5.21,5.21,0,0,1,3.12-2.44c2.32-.35,6.05,0,9.88,0,4.08,0,8.26-.36,10.92,0,1.72.23,2.08,2.26,2.08,2.65,0,.63-.63,1.22-1.74,1.73-2.25,1-6.45,1.72-11.26,1.72s-9-.69-11.27-1.73C280.63,226,280,225.23,280,224.6Z"/><polygon class="cls-5" points="280 169.03 281.07 167.56 282.8 167 284.52 167.56 280 170.85 280 169.03"/><polygon class="cls-5" points="305.84 168.74 304.77 167.27 303.05 166.71 301.32 167.27 305.84 170.55 305.84 168.74"/><polygon class="cls-6" points="305.84 228.52 304.77 229.99 303.05 230.55 301.32 229.99 305.84 226.71 305.84 228.52"/><polygon class="cls-6" points="280 228.82 281.07 230.29 282.8 230.85 284.52 230.29 280 227 280 228.82"/><polygon class="cls-1" points="304 197 306 195 306 208 304 208 304 197"/><polygon class="cls-1" points="304 209 306 209 306 221 304 219 304 209"/><polygon class="cls-1" points="282 197 280 195 280 208 282 208 282 197"/><polygon class="cls-1" points="282 209 280 209 280 221 282 219 282 209"/><rect class="cls-4" x="279" y="72" width="28" height="65" rx="6.78"/><ellipse class="cls-4" cx="293" cy="97" rx="17" ry="1"/><path class="cls-1" d="M306,98c0,.58-1.66,3.64-3.12,4-2.32.58-6.05,0-9.88,0-4.08,0-8.26.58-10.92,0-1.72-.38-2.08-3.71-2.08-4.34a3.67,3.67,0,0,1,1.74-2.83C284,93.14,288.19,92,293,92s9,1.14,11.27,2.83A4.28,4.28,0,0,1,306,98Z"/><path class="cls-1" d="M280,130.6a5.21,5.21,0,0,1,3.12-2.44c2.32-.35,6.05,0,9.88,0,4.08,0,8.26-.36,10.92,0,1.72.23,2.08,2.26,2.08,2.65,0,.63-.63,1.22-1.74,1.73-2.25,1-6.45,1.72-11.26,1.72s-9-.69-11.27-1.73C280.63,132,280,131.23,280,130.6Z"/><polygon class="cls-5" points="280 75.03 281.07 73.56 282.8 73 284.52 73.56 280 76.85 280 75.03"/><polygon class="cls-5" points="305.84 74.74 304.77 73.27 303.05 72.7 301.32 73.27 305.84 76.55 305.84 74.74"/><polygon class="cls-6" points="305.84 134.52 304.77 135.99 303.05 136.55 301.32 135.99 305.84 132.71 305.84 134.52"/><polygon class="cls-6" points="280 134.82 281.07 136.29 282.8 136.85 284.52 136.29 280 133 280 134.82"/><polygon class="cls-1" points="304 103 306 101 306 114 304 114 304 103"/><polygon class="cls-1" points="304 115 306 115 306 127 304 125 304 115"/><polygon class="cls-1" points="282 103 280 101 280 114 282 114 282 103"/><polygon class="cls-1" points="282 115 280 115 280 127 282 125 282 115"/><rect class="cls-4" x="188.86" y="47.2" width="28" height="65" rx="6.78" transform="translate(405.72 159.4) rotate(-180)"/><ellipse class="cls-4" cx="202.86" cy="87.2" rx="17" ry="1"/><path class="cls-1" d="M189.86,86.2c0-.58,1.66-3.63,3.12-4,2.32-.58,6.05,0,9.88,0,4.08,0,8.26-.58,10.92,0,1.72.38,2.08,3.71,2.08,4.34a3.69,3.69,0,0,1-1.74,2.84c-2.25,1.68-6.45,2.82-11.26,2.82s-9-1.14-11.27-2.83A4.28,4.28,0,0,1,189.86,86.2Z"/><path class="cls-1" d="M215.86,53.6A5.21,5.21,0,0,1,212.74,56c-2.32.36-6.05,0-9.88,0-4.08,0-8.26.36-10.92,0-1.72-.23-2.08-2.26-2.08-2.65,0-.63.63-1.22,1.74-1.73,2.25-1,6.45-1.72,11.26-1.72s9,.69,11.27,1.73C215.23,52.18,215.86,53,215.86,53.6Z"/><polygon class="cls-5" points="215.86 109.17 214.79 110.64 213.06 111.2 211.34 110.64 215.86 107.35 215.86 109.17"/><polygon class="cls-5" points="190.02 109.47 191.09 110.94 192.81 111.5 194.54 110.94 190.02 107.65 190.02 109.47"/><polygon class="cls-6" points="190.02 49.68 191.09 48.21 192.81 47.65 194.54 48.21 190.02 51.5 190.02 49.68"/><polygon class="cls-6" points="215.86 49.38 214.79 47.92 213.06 47.35 211.34 47.92 215.86 51.2 215.86 49.38"/><polygon class="cls-1" points="191.86 81.2 189.86 83.2 189.86 70.2 191.86 70.2 191.86 81.2"/><polygon class="cls-1" points="191.86 69.2 189.86 69.2 189.86 57.2 191.86 59.2 191.86 69.2"/><polygon class="cls-1" points="213.86 81.2 215.86 83.2 215.86 70.2 213.86 70.2 213.86 81.2"/><polygon class="cls-1" points="213.86 69.2 215.86 69.2 215.86 57.2 213.86 59.2 213.86 69.2"/><rect class="cls-4" x="187.86" y="189.2" width="28" height="65" rx="6.78" transform="translate(403.72 443.4) rotate(-180)"/><ellipse class="cls-4" cx="201.86" cy="229.2" rx="17" ry="1"/><path class="cls-1" d="M188.86,228.2c0-.58,1.66-3.63,3.12-4,2.32-.58,6.05,0,9.88,0,4.08,0,8.26-.58,10.92,0,1.72.38,2.08,3.71,2.08,4.34a3.69,3.69,0,0,1-1.74,2.84c-2.25,1.68-6.45,2.82-11.26,2.82s-9-1.14-11.27-2.83A4.28,4.28,0,0,1,188.86,228.2Z"/><path class="cls-1" d="M214.86,195.6a5.21,5.21,0,0,1-3.12,2.44c-2.32.36-6.05,0-9.88,0-4.08,0-8.26.36-10.92,0-1.72-.23-2.08-2.26-2.08-2.65,0-.63.63-1.22,1.74-1.73,2.25-1,6.45-1.72,11.26-1.72s9,.69,11.27,1.73C214.23,194.18,214.86,195,214.86,195.6Z"/><polygon class="cls-5" points="214.86 251.17 213.79 252.64 212.06 253.2 210.34 252.64 214.86 249.35 214.86 251.17"/><polygon class="cls-5" points="189.02 251.47 190.09 252.94 191.81 253.5 193.54 252.94 189.02 249.65 189.02 251.47"/><polygon class="cls-6" points="189.02 191.68 190.09 190.21 191.81 189.65 193.54 190.21 189.02 193.5 189.02 191.68"/><polygon class="cls-6" points="214.86 191.38 213.79 189.92 212.06 189.35 210.34 189.92 214.86 193.2 214.86 191.38"/><polygon class="cls-1" points="190.86 223.2 188.86 225.2 188.86 212.2 190.86 212.2 190.86 223.2"/><polygon class="cls-1" points="190.86 211.2 188.86 211.2 188.86 199.2 190.86 201.2 190.86 211.2"/><polygon class="cls-1" points="212.86 223.2 214.86 225.2 214.86 212.2 212.86 212.2 212.86 223.2"/><polygon class="cls-1" points="212.86 211.2 214.86 211.2 214.86 199.2 212.86 201.2 212.86 211.2"/><rect class="cls-4" x="187.86" y="330.2" width="28" height="65" rx="6.78" transform="translate(403.72 725.4) rotate(-180)"/><ellipse class="cls-4" cx="201.86" cy="370.2" rx="17" ry="1"/><path class="cls-1" d="M188.86,369.2c0-.58,1.66-3.63,3.12-4,2.32-.58,6.05,0,9.88,0,4.08,0,8.26-.58,10.92,0,1.72.38,2.08,3.71,2.08,4.34a3.69,3.69,0,0,1-1.74,2.84c-2.25,1.68-6.45,2.82-11.26,2.82s-9-1.14-11.27-2.83A4.28,4.28,0,0,1,188.86,369.2Z"/><path class="cls-1" d="M214.86,336.6a5.21,5.21,0,0,1-3.12,2.44c-2.32.36-6.05,0-9.88,0-4.08,0-8.26.36-10.92,0-1.72-.23-2.08-2.26-2.08-2.65,0-.63.63-1.22,1.74-1.73,2.25-1,6.45-1.72,11.26-1.72s9,.69,11.27,1.73C214.23,335.18,214.86,336,214.86,336.6Z"/><polygon class="cls-5" points="214.86 392.17 213.79 393.64 212.06 394.2 210.34 393.64 214.86 390.35 214.86 392.17"/><polygon class="cls-5" points="189.02 392.47 190.09 393.94 191.81 394.5 193.54 393.94 189.02 390.65 189.02 392.47"/><polygon class="cls-6" points="189.02 332.68 190.09 331.21 191.81 330.65 193.54 331.21 189.02 334.5 189.02 332.68"/><polygon class="cls-6" points="214.86 332.38 213.79 330.92 212.06 330.35 210.34 330.92 214.86 334.2 214.86 332.38"/><polygon class="cls-1" points="190.86 364.2 188.86 366.2 188.86 353.2 190.86 353.2 190.86 364.2"/><polygon class="cls-1" points="190.86 352.2 188.86 352.2 188.86 340.2 190.86 342.2 190.86 352.2"/><polygon class="cls-1" points="212.86 364.2 214.86 366.2 214.86 353.2 212.86 353.2 212.86 364.2"/><polygon class="cls-1" points="212.86 352.2 214.86 352.2 214.86 340.2 212.86 342.2 212.86 352.2"/></svg>
