<svg id="Layer_1" data-name="Layer 1" xmlns="http://www.w3.org/2000/svg" width="526" height="505" viewBox="0 0 526 505"><defs><style>.cls-1{fill:#373d46;}.cls-2{fill:#41fd2e;}.cls-3{fill:#eaeaea;}</style></defs><title>bud_8</title><circle class="cls-1" cx="263.53" cy="246.67" r="208"/><path class="cls-2" d="M263.53,51.67A195,195,0,0,1,401.41,384.55,195,195,0,0,1,125.64,108.78,193.72,193.72,0,0,1,263.53,51.67m0-26c-122.06,0-221,98.94-221,221s98.94,221,221,221,221-98.95,221-221-98.95-221-221-221Z"/><path class="cls-3" d="M268.14,341.22q-31,0-62-.05c-42.42-.07-74.29-27.64-80.65-69.58-3.3-21.77-1.53-42.94,7.76-63,13.2-28.57,35.55-44.17,67.06-47.1,27.58-2.57,55.08-5.87,82.62-8.85,1.31-.14,2.61-.31,3.92-.41,5.32-.41,7.09.31,9.13,5.27,3.6,8.74,3,15.78-6.34,19.08-12.24,4.31-24.69,8.06-37.09,11.91-6,1.88-12.16,3.46-18.26,5.15-3.45,1-5.77,3.11-6.08,6.7-1.72,20.14-20.42,38.95-46.85,39.6-6.4.16-10,5.2-7.68,10.58,1.38,3.19,4,4.64,7.4,4.63,27.94-.1,53.47-17.88,60.46-44.37.77-2.91,2.2-4,4.88-4.76,12.55-3.42,25.28-6.39,37.48-10.8,8.39-3,16.68-3.32,25.25-3.28,18.51.08,37,0,55.54.11a21.78,21.78,0,0,1,7,1.12,12.61,12.61,0,0,1,8.53,13.43c-.74,5.91-6,10.76-12.52,11.43-1.54.15-3.1.1-4.66.1L272.4,218a32.86,32.86,0,0,0-3.58.06,7.58,7.58,0,0,0-.29,15,30.66,30.66,0,0,0,4.29.12q57.51.06,115,.11c10.77,0,17.78,9.42,14.38,19.14a14.25,14.25,0,0,1-13.11,9.46c-3.82.12-7.64,0-11.46,0l-105.35-.08a31.44,31.44,0,0,0-3.22,0,7.49,7.49,0,0,0-7,7.68,7.34,7.34,0,0,0,6.83,7.42,36.9,36.9,0,0,0,3.94.08q45.5,0,91,.1a24.91,24.91,0,0,1,5.33.41c7,1.52,11.41,7,11,13.44s-5.94,11.63-12.91,12.21c-1.54.13-3.1.08-4.65.08l-90.3-.07c-.95,0-1.91,0-2.86,0-4.41.23-7.44,3.33-7.44,7.57a7.33,7.33,0,0,0,7.42,7.58c5.73.15,11.46.06,17.19.06,16.13,0,32.25-.11,48.37.16a23.65,23.65,0,0,1,9.84,2.62c4.14,2.09,5.75,6.89,4.83,11.76-.83,4.34-3.91,6.46-7.85,7.39a33.14,33.14,0,0,1-7.44.82Q301.28,341.3,268.14,341.22Z"/></svg>
