<svg xmlns="http://www.w3.org/2000/svg" width="243" height="114" viewBox="0 0 243 114">
  <g id="Group_6" data-name="Group 6" transform="translate(-1532 -716)">
    <rect id="Rectangle_7" data-name="Rectangle 7" width="243" height="114" rx="32" transform="translate(1532 716)" fill="#414b5a"/>
    <path id="Path_14" data-name="Path 14" d="M2.28,33q0-10.5,4.62-16.17t13.2-5.67a18.5,18.5,0,0,1,7.86,1.56,14.807,14.807,0,0,1,5.58,4.44,19.407,19.407,0,0,1,3.3,6.9A34.442,34.442,0,0,1,37.92,33q0,10.5-4.65,16.17T20.1,54.84a18.652,18.652,0,0,1-7.92-1.56,14.557,14.557,0,0,1-5.55-4.44,19.709,19.709,0,0,1-3.27-6.9A34.442,34.442,0,0,1,2.28,33Zm8.64,0a29.548,29.548,0,0,0,.54,5.85,15.113,15.113,0,0,0,1.65,4.59,8.4,8.4,0,0,0,2.85,3,7.692,7.692,0,0,0,4.14,1.08,7.8,7.8,0,0,0,6.78-3.42q2.4-3.42,2.4-11.1a30.06,30.06,0,0,0-.51-5.7,15.9,15.9,0,0,0-1.59-4.62,8.277,8.277,0,0,0-2.82-3.09,7.763,7.763,0,0,0-4.26-1.11,7.739,7.739,0,0,0-6.78,3.51Q10.92,25.5,10.92,33Zm43.26,3.06H52.02V54H43.8V12h8.22V30.6l1.92-.84L65.52,12h9.36L62.64,29.64,59.4,31.92l3.36,2.34L76.74,54H66.6Z" transform="translate(1611 736)" fill="#fff"/>
  </g>
</svg>
