<svg xmlns="http://www.w3.org/2000/svg" width="416.633" height="144.868" viewBox="0 0 416.633 144.868">
  <g id="Group_5" data-name="Group 5" transform="translate(-1031.366 -525)">
    <path id="Union_3" data-name="Union 3" d="M42.634,144.868V61.789l-.208.115L0,38.445,42.426,14.986l.208.115V0h374V144.868Z" transform="translate(1031.366 525)" fill="#1d5d2e"/>
    <path id="Path_11" data-name="Path 11" d="M13.2,47.94a8.676,8.676,0,0,0,6.06-1.92,6.8,6.8,0,0,0,2.1-5.28,5.942,5.942,0,0,0-2.46-5.28q-2.46-1.68-7.02-1.68l-4.74.18V12H27.78v7.32H13.86v8.1l2.46-.24a15.769,15.769,0,0,1,5.31,1.08,11.819,11.819,0,0,1,4.05,2.67,11.536,11.536,0,0,1,2.58,4.14,15.54,15.54,0,0,1,.9,5.43,15.234,15.234,0,0,1-1.2,6.24,12.371,12.371,0,0,1-3.33,4.5,14.244,14.244,0,0,1-5.01,2.7,21.034,21.034,0,0,1-6.3.9,28.145,28.145,0,0,1-5.13-.45,17.3,17.3,0,0,1-4.11-1.23l2.1-6.48a14.92,14.92,0,0,0,3.03.93A20.684,20.684,0,0,0,13.2,47.94Zm54-5.64H60.6V54H53.34V42.3H35.16V37.86L54.18,11.7H60.6V36.06h6.6ZM53.34,26.88l.54-5.04h-.24L51.6,26.16l-6.24,8.1-3,2.28,3.84-.48h7.14Zm17.76-5.4a12.267,12.267,0,0,1,.78-4.62,8.623,8.623,0,0,1,2.16-3.18,8.316,8.316,0,0,1,3.33-1.83,15.021,15.021,0,0,1,4.23-.57,15.473,15.473,0,0,1,4.2.54,8.7,8.7,0,0,1,3.33,1.74,7.894,7.894,0,0,1,2.19,3.15,13.963,13.963,0,0,1,0,9.54,7.894,7.894,0,0,1-2.19,3.15,8.7,8.7,0,0,1-3.33,1.74,15.473,15.473,0,0,1-4.2.54,15.8,15.8,0,0,1-4.23-.54,8.415,8.415,0,0,1-3.33-1.74,8.042,8.042,0,0,1-2.16-3.15A12.875,12.875,0,0,1,71.1,21.48Zm6.96,0q0,5.16,3.54,5.16a3.083,3.083,0,0,0,2.67-1.11,7.53,7.53,0,0,0,.87-4.05,7.56,7.56,0,0,0-.87-4.02,3.047,3.047,0,0,0-2.67-1.14,3.13,3.13,0,0,0-2.7,1.14A7.067,7.067,0,0,0,78.06,21.48Zm17.4,22.2a12.267,12.267,0,0,1,.78-4.62,8.623,8.623,0,0,1,2.16-3.18,8.317,8.317,0,0,1,3.33-1.83,15.021,15.021,0,0,1,4.23-.57,15.473,15.473,0,0,1,4.2.54,8.7,8.7,0,0,1,3.33,1.74,7.894,7.894,0,0,1,2.19,3.15,13.963,13.963,0,0,1,0,9.54,7.894,7.894,0,0,1-2.19,3.15,8.7,8.7,0,0,1-3.33,1.74,15.473,15.473,0,0,1-4.2.54,15.8,15.8,0,0,1-4.23-.54A8.415,8.415,0,0,1,98.4,51.6a8.042,8.042,0,0,1-2.16-3.15A12.875,12.875,0,0,1,95.46,43.68Zm6.96,0q0,5.16,3.54,5.16a3.083,3.083,0,0,0,2.67-1.11,7.53,7.53,0,0,0,.87-4.05,7.56,7.56,0,0,0-.87-4.02,3.047,3.047,0,0,0-2.67-1.14,3.13,3.13,0,0,0-2.7,1.14A7.067,7.067,0,0,0,102.42,43.68Zm6.24-32.52,4.38,3.96L78.48,54.84,74.1,50.7Z" transform="translate(1127 555)" fill="#fff"/>
  </g>
</svg>
