<svg xmlns="http://www.w3.org/2000/svg" width="416.634" height="144.868" viewBox="0 0 416.634 144.868">
  <g id="Group_5" data-name="Group 5" transform="translate(-1031.366 -525)">
    <path id="Union_3" data-name="Union 3" d="M42.634,144.868V61.789l-.208.115L0,38.445,42.426,14.986l.208.115V0h374V144.868Z" transform="translate(1031.366 525)" fill="#1d5d2e"/>
    <path id="Path_10" data-name="Path 10" d="M27.18,36.42H11.82V54H3.6V12h8.22V29.1H27.18V12H35.4V54H27.18ZM49.98,24V41.04a11.821,11.821,0,0,0,.87,5.28q.87,1.62,3.39,1.62a5.317,5.317,0,0,0,3.69-1.32,8.106,8.106,0,0,0,2.19-3.24V24h7.8V44.88a47.916,47.916,0,0,0,.24,4.83A30.378,30.378,0,0,0,68.88,54H63l-1.38-4.44h-.24a11.212,11.212,0,0,1-3.84,3.78,10.961,10.961,0,0,1-5.82,1.5,12.872,12.872,0,0,1-4.08-.6,6.7,6.7,0,0,1-3-1.98,9.257,9.257,0,0,1-1.83-3.72,23.068,23.068,0,0,1-.63-5.88V24ZM82.8,43.92a6.529,6.529,0,0,0,.54,3.06,1.847,1.847,0,0,0,1.74.96,8.215,8.215,0,0,0,1.41-.12,8.526,8.526,0,0,0,1.71-.54l.84,6.12a14.776,14.776,0,0,1-2.94.96,17.256,17.256,0,0,1-4.08.48,7.65,7.65,0,0,1-5.22-1.59Q75,51.66,75,48V12h7.8ZM108.3,24h7.8V54h-7.8Zm-1.14-8.46a3.955,3.955,0,0,1,1.29-2.97,4.963,4.963,0,0,1,3.57-1.23,5.411,5.411,0,0,1,3.69,1.23,3.806,3.806,0,0,1,1.41,2.97,3.634,3.634,0,0,1-1.41,2.91,5.589,5.589,0,0,1-3.69,1.17,5.119,5.119,0,0,1-3.57-1.17A3.768,3.768,0,0,1,107.16,15.54Zm40.92,24.18,1.02,4.62h.3l.84-4.74,5.1-15.6h8.4L151.2,54.3h-4.74L133.44,24h9.06Zm41.82,11.7a15.266,15.266,0,0,1-4.89,2.43,21.407,21.407,0,0,1-6.57.99q-7.26,0-10.62-4.23T164.46,39q0-7.92,3.78-11.88t10.62-3.96a16.512,16.512,0,0,1,4.44.6,10.333,10.333,0,0,1,3.84,1.98,9.742,9.742,0,0,1,2.7,3.72,14.588,14.588,0,0,1,1.02,5.82,26.141,26.141,0,0,1-.15,2.7q-.15,1.44-.45,3h-18a8.791,8.791,0,0,0,1.95,5.7q1.77,1.92,5.73,1.92a12.77,12.77,0,0,0,7.38-2.28ZM178.74,29.4a5.463,5.463,0,0,0-4.53,1.83,9.048,9.048,0,0,0-1.77,4.89H183.6a7.554,7.554,0,0,0-.99-4.98A4.412,4.412,0,0,0,178.74,29.4ZM197.1,24h7.8V55.26q0,5.46-2.16,8.34t-6.9,2.88a19.085,19.085,0,0,1-3.84-.42V59.52a2.585,2.585,0,0,1,.42.03,2.186,2.186,0,0,0,.36.03q2.7,0,3.51-1.74a11.6,11.6,0,0,0,.81-4.8Zm-1.02-8.46a3.955,3.955,0,0,1,1.29-2.97,4.963,4.963,0,0,1,3.57-1.23,5.411,5.411,0,0,1,3.69,1.23,3.806,3.806,0,0,1,1.41,2.97,3.634,3.634,0,0,1-1.41,2.91,5.589,5.589,0,0,1-3.69,1.17,5.119,5.119,0,0,1-3.57-1.17A3.768,3.768,0,0,1,196.08,15.54Zm40.38,35.88a15.266,15.266,0,0,1-4.89,2.43,21.407,21.407,0,0,1-6.57.99q-7.26,0-10.62-4.23T211.02,39q0-7.92,3.78-11.88t10.62-3.96a16.512,16.512,0,0,1,4.44.6,10.333,10.333,0,0,1,3.84,1.98,9.742,9.742,0,0,1,2.7,3.72,14.588,14.588,0,0,1,1.02,5.82,26.141,26.141,0,0,1-.15,2.7q-.15,1.44-.45,3h-18a8.791,8.791,0,0,0,1.95,5.7q1.77,1.92,5.73,1.92a12.77,12.77,0,0,0,7.38-2.28ZM225.3,29.4a5.463,5.463,0,0,0-4.53,1.83A9.048,9.048,0,0,0,219,36.12h11.16a7.554,7.554,0,0,0-.99-4.98A4.412,4.412,0,0,0,225.3,29.4Zm36,24.6V36.96q0-3.66-1.05-5.28a3.927,3.927,0,0,0-3.57-1.62,5.621,5.621,0,0,0-3.75,1.29,7.166,7.166,0,0,0-2.19,3.21V54h-7.8V24h6.18l.9,3.96h.24a12.933,12.933,0,0,1,3.66-3.36,10.851,10.851,0,0,1,5.88-1.44,12.115,12.115,0,0,1,3.96.6,6.741,6.741,0,0,1,2.94,1.98,9,9,0,0,1,1.8,3.75,24.249,24.249,0,0,1,.6,5.85V54Z" transform="translate(1127 555)" fill="#fff"/>
  </g>
</svg>
