<svg xmlns="http://www.w3.org/2000/svg" width="416.633" height="144.868" viewBox="0 0 416.633 144.868">
  <g id="Group_4" data-name="Group 4" transform="translate(-1031.366 -353)">
    <path id="Union_2" data-name="Union 2" d="M42.634,144.868V61.789l-.208.115L0,38.445,42.426,14.986l.208.115V0h374V144.868Z" transform="translate(1031.366 353)" fill="#29843f"/>
    <path id="Path_12" data-name="Path 12" d="M33.18,42.3h-6.6V54H19.32V42.3H1.14V37.86L20.16,11.7h6.42V36.06h6.6ZM19.32,26.88l.54-5.04h-.24l-2.04,4.32-6.24,8.1-3,2.28,3.84-.48h7.14Zm17.4-1.74a16.519,16.519,0,0,1,.93-5.64,12.2,12.2,0,0,1,2.7-4.41,12.591,12.591,0,0,1,4.32-2.88,15.262,15.262,0,0,1,5.85-1.05q6.78,0,10.65,4.05T65.04,27a36.58,36.58,0,0,1-1.77,12.03,25.353,25.353,0,0,1-4.74,8.46,20.489,20.489,0,0,1-6.87,5.19,24.274,24.274,0,0,1-8.22,2.16l-1.68-6.12a19.806,19.806,0,0,0,5.88-1.62,16.42,16.42,0,0,0,4.44-2.97,15.19,15.19,0,0,0,3.03-4.02,17.241,17.241,0,0,0,1.65-4.83,7.929,7.929,0,0,1-3.09,2.16,13.23,13.23,0,0,1-4.41.6,13.748,13.748,0,0,1-4.53-.78,11.682,11.682,0,0,1-4.02-2.37,12.038,12.038,0,0,1-2.88-4.02A13.686,13.686,0,0,1,36.72,25.14Zm7.56-.42a6.613,6.613,0,0,0,1.92,5.16A6.879,6.879,0,0,0,51,31.62a8.994,8.994,0,0,0,4.02-.78,6.535,6.535,0,0,0,2.4-1.92,16.993,16.993,0,0,0,.18-2.4,13.1,13.1,0,0,0-.42-3.3,8.991,8.991,0,0,0-1.29-2.88,6.281,6.281,0,0,0-5.43-2.76,5.68,5.68,0,0,0-4.56,1.89A7.814,7.814,0,0,0,44.28,24.72ZM71.1,21.48a12.267,12.267,0,0,1,.78-4.62,8.623,8.623,0,0,1,2.16-3.18,8.316,8.316,0,0,1,3.33-1.83,15.021,15.021,0,0,1,4.23-.57,15.473,15.473,0,0,1,4.2.54,8.7,8.7,0,0,1,3.33,1.74,7.894,7.894,0,0,1,2.19,3.15,13.963,13.963,0,0,1,0,9.54,7.894,7.894,0,0,1-2.19,3.15,8.7,8.7,0,0,1-3.33,1.74,15.473,15.473,0,0,1-4.2.54,15.8,15.8,0,0,1-4.23-.54,8.415,8.415,0,0,1-3.33-1.74,8.042,8.042,0,0,1-2.16-3.15A12.875,12.875,0,0,1,71.1,21.48Zm6.96,0q0,5.16,3.54,5.16a3.083,3.083,0,0,0,2.67-1.11,7.53,7.53,0,0,0,.87-4.05,7.56,7.56,0,0,0-.87-4.02,3.047,3.047,0,0,0-2.67-1.14,3.13,3.13,0,0,0-2.7,1.14A7.067,7.067,0,0,0,78.06,21.48Zm17.4,22.2a12.267,12.267,0,0,1,.78-4.62,8.623,8.623,0,0,1,2.16-3.18,8.317,8.317,0,0,1,3.33-1.83,15.021,15.021,0,0,1,4.23-.57,15.473,15.473,0,0,1,4.2.54,8.7,8.7,0,0,1,3.33,1.74,7.894,7.894,0,0,1,2.19,3.15,13.963,13.963,0,0,1,0,9.54,7.894,7.894,0,0,1-2.19,3.15,8.7,8.7,0,0,1-3.33,1.74,15.473,15.473,0,0,1-4.2.54,15.8,15.8,0,0,1-4.23-.54A8.415,8.415,0,0,1,98.4,51.6a8.042,8.042,0,0,1-2.16-3.15A12.875,12.875,0,0,1,95.46,43.68Zm6.96,0q0,5.16,3.54,5.16a3.083,3.083,0,0,0,2.67-1.11,7.53,7.53,0,0,0,.87-4.05,7.56,7.56,0,0,0-.87-4.02,3.047,3.047,0,0,0-2.67-1.14,3.13,3.13,0,0,0-2.7,1.14A7.067,7.067,0,0,0,102.42,43.68Zm6.24-32.52,4.38,3.96L78.48,54.84,74.1,50.7Z" transform="translate(1127 383)" fill="#fff"/>
  </g>
</svg>
