<svg xmlns="http://www.w3.org/2000/svg" width="416.634" height="144.868" viewBox="0 0 416.634 144.868">
  <g id="Group_4" data-name="Group 4" transform="translate(-1031.366 -353)">
    <path id="Union_2" data-name="Union 2" d="M42.634,144.868V61.789l-.208.115L0,38.445,42.426,14.986l.208.115V0h374V144.868Z" transform="translate(1031.366 353)" fill="#29843f"/>
    <path id="Path_9" data-name="Path 9" d="M30.15,26.85l.75-6.95h-.3l-2.15,5.6L21,38.55H18.8l-7.85-13.1L8.75,19.9H8.5l1,6.9V45H3V10H9.25L18.6,26l1.65,4h.2l1.5-4.1L30.8,10H37V45H30.15ZM43.45,20h6.5V45h-6.5Zm-.95-7.05a3.3,3.3,0,0,1,1.075-2.475A4.136,4.136,0,0,1,46.55,9.45a4.509,4.509,0,0,1,3.075,1.025A3.172,3.172,0,0,1,50.8,12.95a3.029,3.029,0,0,1-1.175,2.425,4.658,4.658,0,0,1-3.075.975,4.266,4.266,0,0,1-2.975-.975A3.14,3.14,0,0,1,42.5,12.95ZM66.65,38.1a1.866,1.866,0,0,0-.85-1.6,10.24,10.24,0,0,0-2.1-1.1q-1.25-.5-2.75-1.025a10.331,10.331,0,0,1-2.75-1.45,7.942,7.942,0,0,1-2.1-2.35,7.1,7.1,0,0,1-.85-3.675,7.152,7.152,0,0,1,2.2-5.65q2.2-1.95,6.35-1.95a20.417,20.417,0,0,1,5.15.6,14.9,14.9,0,0,1,3.6,1.35l-1.45,4.7q-1.15-.45-2.9-.95a12.862,12.862,0,0,0-3.55-.5q-2.9,0-2.9,2.25a1.664,1.664,0,0,0,.85,1.45,11.219,11.219,0,0,0,2.1,1.025q1.25.475,2.75,1.025a11.934,11.934,0,0,1,2.75,1.425,7.452,7.452,0,0,1,2.1,2.275,6.852,6.852,0,0,1,.85,3.6,7.618,7.618,0,0,1-2.425,5.975Q68.3,45.7,63.45,45.7a17.767,17.767,0,0,1-4.975-.675A15.312,15.312,0,0,1,54.7,43.45l1.8-4.85a17.348,17.348,0,0,0,3.05,1.275,12.4,12.4,0,0,0,3.9.625,4.325,4.325,0,0,0,2.325-.55A2.014,2.014,0,0,0,66.65,38.1ZM74.8,20h3.45V15.3l6.5-1.85V20h6.1v5.5h-6.1v9.6a9.515,9.515,0,0,0,.525,3.725A1.975,1.975,0,0,0,87.25,39.95a6.541,6.541,0,0,0,1.725-.2,11.776,11.776,0,0,0,1.625-.6l1.15,5a16.5,16.5,0,0,1-3.15,1.1,14.994,14.994,0,0,1-3.65.45q-3.45,0-5.075-1.775T78.25,38.1V25.5H74.8Zm39.8,22.85a12.722,12.722,0,0,1-4.075,2.025,17.839,17.839,0,0,1-5.475.825q-6.05,0-8.85-3.525T93.4,32.5q0-6.6,3.15-9.9t8.85-3.3a13.76,13.76,0,0,1,3.7.5,8.611,8.611,0,0,1,3.2,1.65,8.118,8.118,0,0,1,2.25,3.1,12.157,12.157,0,0,1,.85,4.85,21.785,21.785,0,0,1-.125,2.25q-.125,1.2-.375,2.5h-15a7.326,7.326,0,0,0,1.625,4.75Q103,40.5,106.3,40.5a10.642,10.642,0,0,0,6.15-1.9ZM105.3,24.5a4.552,4.552,0,0,0-3.775,1.525A7.54,7.54,0,0,0,100.05,30.1h9.3a6.3,6.3,0,0,0-.825-4.15A3.676,3.676,0,0,0,105.3,24.5Zm35.95,11.7q0,2.1.05,4.2a35.721,35.721,0,0,0,.45,4.65H137.1l-.9-3.25H136a7.555,7.555,0,0,1-2.875,2.825A8.746,8.746,0,0,1,128.7,45.7a9,9,0,0,1-7.3-3.1q-2.6-3.1-2.6-9.7,0-6.4,2.9-9.95t8.5-3.55a15.248,15.248,0,0,1,2.55.175,10.038,10.038,0,0,1,2,.575V10h6.5Zm-11.05,4a4.516,4.516,0,0,0,3-.925,5,5,0,0,0,1.55-2.675V26a4.961,4.961,0,0,0-1.55-.825A7.3,7.3,0,0,0,131,24.9a4.81,4.81,0,0,0-4.125,1.85Q125.5,28.6,125.5,33.1a10.258,10.258,0,0,0,1.125,5.15A3.825,3.825,0,0,0,130.2,40.2Zm36.75,2.65a12.722,12.722,0,0,1-4.075,2.025,17.839,17.839,0,0,1-5.475.825q-6.05,0-8.85-3.525t-2.8-9.675q0-6.6,3.15-9.9t8.85-3.3a13.76,13.76,0,0,1,3.7.5,8.611,8.611,0,0,1,3.2,1.65,8.118,8.118,0,0,1,2.25,3.1,12.157,12.157,0,0,1,.85,4.85,21.787,21.787,0,0,1-.125,2.25q-.125,1.2-.375,2.5h-15a7.326,7.326,0,0,0,1.625,4.75q1.475,1.6,4.775,1.6a10.642,10.642,0,0,0,6.15-1.9Zm-9.3-18.35a4.552,4.552,0,0,0-3.775,1.525A7.54,7.54,0,0,0,152.4,30.1h9.3a6.3,6.3,0,0,0-.825-4.15A3.676,3.676,0,0,0,157.65,24.5ZM2.85,75h6.5V87h.2a7.314,7.314,0,0,1,2.7-1.9,9.254,9.254,0,0,1,3.65-.7,8.163,8.163,0,0,1,6.875,3.075Q25.15,90.55,25.15,96.85q0,6.75-3.325,10.25T12.7,110.6a30.17,30.17,0,0,1-5.85-.525,17.555,17.555,0,0,1-4-1.175ZM14,89.9a4.456,4.456,0,0,0-2.925.925A5.791,5.791,0,0,0,9.35,93.5v10.9a5.969,5.969,0,0,0,1.725.55,12.344,12.344,0,0,0,1.975.15,4.634,4.634,0,0,0,4.025-1.925q1.375-1.925,1.375-6.125Q18.45,89.9,14,89.9Zm15.5-3.45a21.388,21.388,0,0,1,4.75-1.425A30.613,30.613,0,0,1,40,84.5a13.056,13.056,0,0,1,4.35.625,6.268,6.268,0,0,1,4.225,4.525A14.037,14.037,0,0,1,49,93.25q0,2.2-.15,4.425t-.175,4.375q-.025,2.15.125,4.175a15.723,15.723,0,0,0,.75,3.825h-5.3L43.2,106.6h-.25a8.9,8.9,0,0,1-2.775,2.675A8.419,8.419,0,0,1,35.6,110.4a8.919,8.919,0,0,1-3.15-.525,6.733,6.733,0,0,1-3.95-3.8,7.694,7.694,0,0,1-.55-2.975,6.957,6.957,0,0,1,1.025-3.875,7.413,7.413,0,0,1,2.95-2.55,14.654,14.654,0,0,1,4.6-1.35A32.6,32.6,0,0,1,42.5,95.1a6.5,6.5,0,0,0-.4-4.025q-.75-1.225-3.35-1.225a22.839,22.839,0,0,0-4.125.4A15.082,15.082,0,0,0,31.05,91.3Zm8.25,18.6a5,5,0,0,0,3.1-.875,6.1,6.1,0,0,0,1.7-1.875V99.05A17.882,17.882,0,0,0,39.575,99a10.857,10.857,0,0,0-2.525.45,4.245,4.245,0,0,0-1.75,1,2.236,2.236,0,0,0-.65,1.65,2.839,2.839,0,0,0,.825,2.175A3.191,3.191,0,0,0,37.75,105.05Zm23.4-3.45a5.441,5.441,0,0,0,.45,2.55,1.539,1.539,0,0,0,1.45.8,6.845,6.845,0,0,0,1.175-.1,7.105,7.105,0,0,0,1.425-.45l.7,5.1a12.313,12.313,0,0,1-2.45.8,14.38,14.38,0,0,1-3.4.4,6.375,6.375,0,0,1-4.35-1.325q-1.5-1.325-1.5-4.375V75h6.5ZM69,86.45a21.388,21.388,0,0,1,4.75-1.425A30.613,30.613,0,0,1,79.5,84.5a13.056,13.056,0,0,1,4.35.625,6.268,6.268,0,0,1,4.225,4.525,14.037,14.037,0,0,1,.425,3.6q0,2.2-.15,4.425t-.175,4.375q-.025,2.15.125,4.175a15.723,15.723,0,0,0,.75,3.825h-5.3L82.7,106.6h-.25a8.9,8.9,0,0,1-2.775,2.675A8.419,8.419,0,0,1,75.1,110.4a8.919,8.919,0,0,1-3.15-.525,6.733,6.733,0,0,1-3.95-3.8,7.694,7.694,0,0,1-.55-2.975,6.956,6.956,0,0,1,1.025-3.875,7.413,7.413,0,0,1,2.95-2.55,14.654,14.654,0,0,1,4.6-1.35A32.6,32.6,0,0,1,82,95.1a6.5,6.5,0,0,0-.4-4.025q-.75-1.225-3.35-1.225a22.839,22.839,0,0,0-4.125.4A15.082,15.082,0,0,0,70.55,91.3Zm8.25,18.6a5,5,0,0,0,3.1-.875,6.1,6.1,0,0,0,1.7-1.875V99.05A17.882,17.882,0,0,0,79.075,99a10.857,10.857,0,0,0-2.525.45,4.245,4.245,0,0,0-1.75,1,2.236,2.236,0,0,0-.65,1.65,2.839,2.839,0,0,0,.825,2.175A3.191,3.191,0,0,0,77.25,105.05Zm32,4.95V95.8a8.379,8.379,0,0,0-.875-4.4,3.272,3.272,0,0,0-2.975-1.35,4.684,4.684,0,0,0-3.125,1.075A5.971,5.971,0,0,0,100.45,93.8V110h-6.5V85H99.1l.75,3.3h.2a10.777,10.777,0,0,1,3.05-2.8,9.043,9.043,0,0,1,4.9-1.2,10.1,10.1,0,0,1,3.3.5,5.617,5.617,0,0,1,2.45,1.65,7.5,7.5,0,0,1,1.5,3.125,20.207,20.207,0,0,1,.5,4.875V110Zm29.65-1.55a10.865,10.865,0,0,1-3.625,1.675,16.676,16.676,0,0,1-4.375.575,12.152,12.152,0,0,1-5.075-.95,8.652,8.652,0,0,1-3.375-2.675,11.031,11.031,0,0,1-1.875-4.175A23.644,23.644,0,0,1,120,97.5q0-6.35,2.85-9.775t8.3-3.425a17.612,17.612,0,0,1,4.425.45A15.024,15.024,0,0,1,138.6,85.9l-1.55,5.3a13.1,13.1,0,0,0-2.275-.85,10.024,10.024,0,0,0-2.575-.3,4.908,4.908,0,0,0-4.1,1.775q-1.4,1.775-1.4,5.675a11.737,11.737,0,0,0,.35,2.95,7.214,7.214,0,0,0,1.05,2.35,4.922,4.922,0,0,0,1.825,1.575,5.694,5.694,0,0,0,2.625.575,8.114,8.114,0,0,0,2.8-.425,9.812,9.812,0,0,0,2.05-1.025Zm23.1-.6a12.721,12.721,0,0,1-4.075,2.025,17.839,17.839,0,0,1-5.475.825q-6.05,0-8.85-3.525T140.8,97.5q0-6.6,3.15-9.9t8.85-3.3a13.76,13.76,0,0,1,3.7.5,8.611,8.611,0,0,1,3.2,1.65,8.118,8.118,0,0,1,2.25,3.1,12.157,12.157,0,0,1,.85,4.85,21.787,21.787,0,0,1-.125,2.25q-.125,1.2-.375,2.5h-15a7.326,7.326,0,0,0,1.625,4.75q1.475,1.6,4.775,1.6a10.642,10.642,0,0,0,6.15-1.9ZM152.7,89.5a4.552,4.552,0,0,0-3.775,1.525A7.54,7.54,0,0,0,147.45,95.1h9.3a6.3,6.3,0,0,0-.825-4.15A3.676,3.676,0,0,0,152.7,89.5Zm30,20.5V95.8a8.38,8.38,0,0,0-.875-4.4,3.272,3.272,0,0,0-2.975-1.35,4.684,4.684,0,0,0-3.125,1.075A5.971,5.971,0,0,0,173.9,93.8V110h-6.5V85h5.15l.75,3.3h.2a10.777,10.777,0,0,1,3.05-2.8,9.043,9.043,0,0,1,4.9-1.2,10.1,10.1,0,0,1,3.3.5,5.618,5.618,0,0,1,2.45,1.65,7.5,7.5,0,0,1,1.5,3.125,20.207,20.207,0,0,1,.5,4.875V110Z" transform="translate(1123 364)" fill="#fff"/>
  </g>
</svg>
