<svg xmlns="http://www.w3.org/2000/svg" width="416.634" height="144.868" viewBox="0 0 416.634 144.868">
  <g id="Group_3" data-name="Group 3" transform="translate(-1031.366 -181)">
    <g id="Group_7" data-name="Group 7">
      <path id="Union_1" data-name="Union 1" d="M42.634,144.868V61.789l-.208.115L0,38.445,42.426,14.986l.208.115V0h374V144.868Z" transform="translate(1031.366 181)" fill="#54b848"/>
      <path id="Path_8" data-name="Path 8" d="M3,10.35q1.15-.2,2.475-.375T8.125,9.7Q9.45,9.6,10.7,9.55T13,9.5a25.861,25.861,0,0,1,4.825.45,13.174,13.174,0,0,1,4.25,1.55,8.289,8.289,0,0,1,3,3.025A9.439,9.439,0,0,1,26.2,19.35a11.463,11.463,0,0,1-2,7,10.3,10.3,0,0,1-5.35,3.75l2.45,1.55L29.3,45H21.4L13.45,31.3l-3.6-.65V45H3ZM13.5,15.6q-1.05,0-2.075.05a7.78,7.78,0,0,0-1.575.2V26h2.9a7.3,7.3,0,0,0,4.55-1.3Q19,23.4,19,20.4a4.528,4.528,0,0,0-1.4-3.525A5.9,5.9,0,0,0,13.5,15.6Zm19.3,5.85a21.388,21.388,0,0,1,4.75-1.425A30.613,30.613,0,0,1,43.3,19.5a13.056,13.056,0,0,1,4.35.625,6.268,6.268,0,0,1,4.225,4.525,14.037,14.037,0,0,1,.425,3.6q0,2.2-.15,4.425t-.175,4.375q-.025,2.15.125,4.175a15.723,15.723,0,0,0,.75,3.825h-5.3L46.5,41.6h-.25a8.9,8.9,0,0,1-2.775,2.675A8.419,8.419,0,0,1,38.9,45.4a8.919,8.919,0,0,1-3.15-.525,6.733,6.733,0,0,1-3.95-3.8,7.694,7.694,0,0,1-.55-2.975,6.956,6.956,0,0,1,1.025-3.875,7.413,7.413,0,0,1,2.95-2.55,14.654,14.654,0,0,1,4.6-1.35A32.6,32.6,0,0,1,45.8,30.1a6.5,6.5,0,0,0-.4-4.025q-.75-1.225-3.35-1.225a22.839,22.839,0,0,0-4.125.4A15.082,15.082,0,0,0,34.35,26.3Zm8.25,18.6a5,5,0,0,0,3.1-.875,6.1,6.1,0,0,0,1.7-1.875V34.05A17.882,17.882,0,0,0,42.875,34a10.856,10.856,0,0,0-2.525.45,4.245,4.245,0,0,0-1.75,1,2.236,2.236,0,0,0-.65,1.65,2.839,2.839,0,0,0,.825,2.175A3.191,3.191,0,0,0,41.05,40.05ZM71.95,45V31.4a13.09,13.09,0,0,0-.65-4.9,2.648,2.648,0,0,0-2.7-1.45,4.007,4.007,0,0,0-2.75.925,5.876,5.876,0,0,0-1.6,2.375V45h-6.5V20H62.8l.75,3.3h.2a11.453,11.453,0,0,1,2.925-2.8,8.011,8.011,0,0,1,4.575-1.2,7.173,7.173,0,0,1,3.925.975A6.3,6.3,0,0,1,77.55,23.55a9.082,9.082,0,0,1,2.95-3.1,7.912,7.912,0,0,1,4.35-1.15,11.208,11.208,0,0,1,3.575.5,4.915,4.915,0,0,1,2.4,1.725A8.37,8.37,0,0,1,92.2,24.8a24.89,24.89,0,0,1,.45,5.2V45h-6.5V30.95a11.924,11.924,0,0,0-.625-4.425A2.678,2.678,0,0,0,82.75,25.05a3.922,3.922,0,0,0-2.775.95,5.713,5.713,0,0,0-1.525,2.6V45ZM95.4,20h3.45V15.3l6.5-1.85V20h6.1v5.5h-6.1v9.6a9.515,9.515,0,0,0,.525,3.725,1.975,1.975,0,0,0,1.975,1.125,6.541,6.541,0,0,0,1.725-.2,11.776,11.776,0,0,0,1.625-.6l1.15,5a16.5,16.5,0,0,1-3.15,1.1,14.994,14.994,0,0,1-3.65.45q-3.45,0-5.075-1.775T98.85,38.1V25.5H95.4Zm39.8,22.85a12.722,12.722,0,0,1-4.075,2.025,17.839,17.839,0,0,1-5.475.825q-6.05,0-8.85-3.525T114,32.5q0-6.6,3.15-9.9T126,19.3a13.76,13.76,0,0,1,3.7.5,8.611,8.611,0,0,1,3.2,1.65,8.118,8.118,0,0,1,2.25,3.1A12.157,12.157,0,0,1,136,29.4a21.787,21.787,0,0,1-.125,2.25q-.125,1.2-.375,2.5h-15a7.326,7.326,0,0,0,1.625,4.75q1.475,1.6,4.775,1.6a10.642,10.642,0,0,0,6.15-1.9ZM125.9,24.5a4.552,4.552,0,0,0-3.775,1.525A7.54,7.54,0,0,0,120.65,30.1h9.3a6.3,6.3,0,0,0-.825-4.15A3.676,3.676,0,0,0,125.9,24.5ZM11.1,99.65H9.35V110H2.85V75h6.5V95.65l1.5-.7L16.55,85H23.7l-6,9.5-2.55,1.9,2.75,1.95L24.65,110H17.2Zm16.15-13.2A21.388,21.388,0,0,1,32,85.025a30.613,30.613,0,0,1,5.75-.525,13.056,13.056,0,0,1,4.35.625,6.268,6.268,0,0,1,4.225,4.525,14.037,14.037,0,0,1,.425,3.6q0,2.2-.15,4.425t-.175,4.375q-.025,2.15.125,4.175a15.723,15.723,0,0,0,.75,3.825H42l-1.05-3.45H40.7a8.9,8.9,0,0,1-2.775,2.675A8.419,8.419,0,0,1,33.35,110.4a8.919,8.919,0,0,1-3.15-.525,6.733,6.733,0,0,1-3.95-3.8,7.694,7.694,0,0,1-.55-2.975,6.957,6.957,0,0,1,1.025-3.875,7.413,7.413,0,0,1,2.95-2.55,14.654,14.654,0,0,1,4.6-1.35A32.6,32.6,0,0,1,40.25,95.1a6.5,6.5,0,0,0-.4-4.025Q39.1,89.85,36.5,89.85a22.839,22.839,0,0,0-4.125.4A15.082,15.082,0,0,0,28.8,91.3Zm8.25,18.6a5,5,0,0,0,3.1-.875,6.1,6.1,0,0,0,1.7-1.875V99.05A17.882,17.882,0,0,0,37.325,99a10.857,10.857,0,0,0-2.525.45,4.245,4.245,0,0,0-1.75,1,2.236,2.236,0,0,0-.65,1.65,2.839,2.839,0,0,0,.825,2.175A3.191,3.191,0,0,0,35.5,105.05Zm32,4.95V95.8a8.379,8.379,0,0,0-.875-4.4,3.272,3.272,0,0,0-2.975-1.35,4.684,4.684,0,0,0-3.125,1.075A5.971,5.971,0,0,0,58.7,93.8V110H52.2V85h5.15l.75,3.3h.2a10.777,10.777,0,0,1,3.05-2.8,9.043,9.043,0,0,1,4.9-1.2,10.1,10.1,0,0,1,3.3.5A5.617,5.617,0,0,1,72,86.45a7.5,7.5,0,0,1,1.5,3.125A20.207,20.207,0,0,1,74,94.45V110Zm9.35-25H80.3V80.3l6.5-1.85V85h6.1v5.5H86.8v9.6a9.515,9.515,0,0,0,.525,3.725A1.975,1.975,0,0,0,89.3,104.95a6.541,6.541,0,0,0,1.725-.2,11.775,11.775,0,0,0,1.625-.6l1.15,5a16.5,16.5,0,0,1-3.15,1.1,14.994,14.994,0,0,1-3.65.45q-3.45,0-5.075-1.775T80.3,103.1V90.5H76.85Zm30.4,18.1a1.866,1.866,0,0,0-.85-1.6,10.24,10.24,0,0,0-2.1-1.1q-1.25-.5-2.75-1.025a10.331,10.331,0,0,1-2.75-1.45,7.942,7.942,0,0,1-2.1-2.35,8.36,8.36,0,0,1,1.35-9.325q2.2-1.95,6.35-1.95a20.417,20.417,0,0,1,5.15.6,14.9,14.9,0,0,1,3.6,1.35l-1.45,4.7q-1.15-.45-2.9-.95a12.862,12.862,0,0,0-3.55-.5q-2.9,0-2.9,2.25a1.664,1.664,0,0,0,.85,1.45,11.218,11.218,0,0,0,2.1,1.025q1.25.475,2.75,1.025a11.934,11.934,0,0,1,2.75,1.425,7.452,7.452,0,0,1,2.1,2.275,6.852,6.852,0,0,1,.85,3.6,7.618,7.618,0,0,1-2.425,5.975Q108.9,110.7,104.05,110.7a17.767,17.767,0,0,1-4.975-.675A15.312,15.312,0,0,1,95.3,108.45l1.8-4.85a17.347,17.347,0,0,0,3.05,1.275,12.4,12.4,0,0,0,3.9.625,4.325,4.325,0,0,0,2.325-.55A2.014,2.014,0,0,0,107.25,103.1ZM115.4,85h3.45V80.3l6.5-1.85V85h6.1v5.5h-6.1v9.6a9.515,9.515,0,0,0,.525,3.725,1.975,1.975,0,0,0,1.975,1.125,6.541,6.541,0,0,0,1.725-.2,11.774,11.774,0,0,0,1.625-.6l1.15,5a16.5,16.5,0,0,1-3.15,1.1,14.994,14.994,0,0,1-3.65.45q-3.45,0-5.075-1.775T118.85,103.1V90.5H115.4Zm39.8,22.85a12.721,12.721,0,0,1-4.075,2.025,17.839,17.839,0,0,1-5.475.825q-6.05,0-8.85-3.525T134,97.5q0-6.6,3.15-9.9T146,84.3a13.76,13.76,0,0,1,3.7.5,8.611,8.611,0,0,1,3.2,1.65,8.118,8.118,0,0,1,2.25,3.1A12.157,12.157,0,0,1,156,94.4a21.787,21.787,0,0,1-.125,2.25q-.125,1.2-.375,2.5h-15a7.326,7.326,0,0,0,1.625,4.75q1.475,1.6,4.775,1.6a10.642,10.642,0,0,0,6.15-1.9ZM145.9,89.5a4.552,4.552,0,0,0-3.775,1.525A7.54,7.54,0,0,0,140.65,95.1h9.3a6.3,6.3,0,0,0-.825-4.15A3.676,3.676,0,0,0,145.9,89.5Zm30,20.5V95.8a8.38,8.38,0,0,0-.875-4.4,3.272,3.272,0,0,0-2.975-1.35,4.684,4.684,0,0,0-3.125,1.075A5.971,5.971,0,0,0,167.1,93.8V110h-6.5V85h5.15l.75,3.3h.2a10.777,10.777,0,0,1,3.05-2.8,9.043,9.043,0,0,1,4.9-1.2,10.1,10.1,0,0,1,3.3.5,5.618,5.618,0,0,1,2.45,1.65,7.5,7.5,0,0,1,1.5,3.125,20.207,20.207,0,0,1,.5,4.875V110Z" transform="translate(1127 196)" fill="#fff"/>
    </g>
  </g>
</svg>
