<svg xmlns="http://www.w3.org/2000/svg" width="416.633" height="144.868" viewBox="0 0 416.633 144.868">
  <g id="Group_3" data-name="Group 3" transform="translate(-1031.366 -181)">
    <path id="Union_1" data-name="Union 1" d="M42.634,144.868V61.789l-.208.115L0,38.445,42.426,14.986l.208.115V0h374V144.868Z" transform="translate(1031.366 181)" fill="#54b848"/>
    <path id="Path_13" data-name="Path 13" d="M33.18,42.3h-6.6V54H19.32V42.3H1.14V37.86L20.16,11.7h6.42V36.06h6.6ZM19.32,26.88l.54-5.04h-.24l-2.04,4.32-6.24,8.1-3,2.28,3.84-.48h7.14ZM40.26,54,54,21.66l2.64-2.94-3.6.6H37.62V12H64.68v2.28L47.88,54ZM71.1,21.48a12.267,12.267,0,0,1,.78-4.62,8.623,8.623,0,0,1,2.16-3.18,8.316,8.316,0,0,1,3.33-1.83,15.021,15.021,0,0,1,4.23-.57,15.473,15.473,0,0,1,4.2.54,8.7,8.7,0,0,1,3.33,1.74,7.894,7.894,0,0,1,2.19,3.15,13.963,13.963,0,0,1,0,9.54,7.894,7.894,0,0,1-2.19,3.15,8.7,8.7,0,0,1-3.33,1.74,15.473,15.473,0,0,1-4.2.54,15.8,15.8,0,0,1-4.23-.54,8.415,8.415,0,0,1-3.33-1.74,8.042,8.042,0,0,1-2.16-3.15A12.875,12.875,0,0,1,71.1,21.48Zm6.96,0q0,5.16,3.54,5.16a3.083,3.083,0,0,0,2.67-1.11,7.53,7.53,0,0,0,.87-4.05,7.56,7.56,0,0,0-.87-4.02,3.047,3.047,0,0,0-2.67-1.14,3.13,3.13,0,0,0-2.7,1.14A7.067,7.067,0,0,0,78.06,21.48Zm17.4,22.2a12.267,12.267,0,0,1,.78-4.62,8.623,8.623,0,0,1,2.16-3.18,8.317,8.317,0,0,1,3.33-1.83,15.021,15.021,0,0,1,4.23-.57,15.473,15.473,0,0,1,4.2.54,8.7,8.7,0,0,1,3.33,1.74,7.894,7.894,0,0,1,2.19,3.15,13.963,13.963,0,0,1,0,9.54,7.894,7.894,0,0,1-2.19,3.15,8.7,8.7,0,0,1-3.33,1.74,15.473,15.473,0,0,1-4.2.54,15.8,15.8,0,0,1-4.23-.54A8.415,8.415,0,0,1,98.4,51.6a8.042,8.042,0,0,1-2.16-3.15A12.875,12.875,0,0,1,95.46,43.68Zm6.96,0q0,5.16,3.54,5.16a3.083,3.083,0,0,0,2.67-1.11,7.53,7.53,0,0,0,.87-4.05,7.56,7.56,0,0,0-.87-4.02,3.047,3.047,0,0,0-2.67-1.14,3.13,3.13,0,0,0-2.7,1.14A7.067,7.067,0,0,0,102.42,43.68Zm6.24-32.52,4.38,3.96L78.48,54.84,74.1,50.7Z" transform="translate(1127 220)" fill="#fff"/>
  </g>
</svg>
