<svg xmlns="http://www.w3.org/2000/svg" width="636" height="490.868" viewBox="0 0 636 490.868">
  <g id="Group_2" data-name="Group 2" transform="translate(-324 -179)">
    <rect id="Rectangle_6" data-name="Rectangle 6" width="636" height="490.868" transform="translate(324 179)" fill="#414b5a"/>
    <path id="Path_5" data-name="Path 5" d="M27.18,36.42H11.82V54H3.6V12h8.22V29.1H27.18V12H35.4V54H27.18Zm25.68,3.3,1.02,4.62h.3l.84-4.74L60.12,24h8.4L55.98,54.3H51.24L38.22,24h9.06ZM69.24,39q0-7.62,3.72-11.73T83.4,23.16a15.658,15.658,0,0,1,6.24,1.14,11.657,11.657,0,0,1,4.38,3.21,13.729,13.729,0,0,1,2.61,5.01A22.775,22.775,0,0,1,97.5,39q0,7.62-3.69,11.73T83.4,54.84a15.658,15.658,0,0,1-6.24-1.14,11.926,11.926,0,0,1-4.41-3.21,13.48,13.48,0,0,1-2.64-5.01A22.775,22.775,0,0,1,69.24,39Zm8.04,0a17.472,17.472,0,0,0,.36,3.66,10.2,10.2,0,0,0,1.08,2.94,5.211,5.211,0,0,0,1.89,1.95,5.4,5.4,0,0,0,2.79.69,5.128,5.128,0,0,0,4.56-2.22q1.5-2.22,1.5-7.02a14.038,14.038,0,0,0-1.38-6.69,4.885,4.885,0,0,0-4.68-2.55,5.308,5.308,0,0,0-4.5,2.16Q77.28,34.08,77.28,39Zm42.18-7.68a10.162,10.162,0,0,0-3.36-.66,5.5,5.5,0,0,0-3.51,1.11,5.346,5.346,0,0,0-1.89,2.85V54h-7.8V24h6.06l.9,3.96h.24a8.18,8.18,0,0,1,2.76-3.42,7.008,7.008,0,0,1,4.08-1.2,11.348,11.348,0,0,1,3.54.66ZM156.18,54V37.68a15.708,15.708,0,0,0-.78-5.88q-.78-1.74-3.24-1.74a4.809,4.809,0,0,0-3.3,1.11,7.051,7.051,0,0,0-1.92,2.85V54h-7.8V24h6.06l.9,3.96h.24a13.743,13.743,0,0,1,3.51-3.36,9.613,9.613,0,0,1,5.49-1.44,8.607,8.607,0,0,1,4.71,1.17,7.565,7.565,0,0,1,2.85,3.93,10.9,10.9,0,0,1,3.54-3.72,9.494,9.494,0,0,1,5.22-1.38,13.45,13.45,0,0,1,4.29.6,5.9,5.9,0,0,1,2.88,2.07,10.044,10.044,0,0,1,1.65,3.93,29.868,29.868,0,0,1,.54,6.24V54h-7.8V37.14a14.309,14.309,0,0,0-.75-5.31q-.75-1.77-3.33-1.77a4.706,4.706,0,0,0-3.33,1.14,6.856,6.856,0,0,0-1.83,3.12V54Zm31.08-28.26a25.665,25.665,0,0,1,5.7-1.71,36.736,36.736,0,0,1,6.9-.63,15.667,15.667,0,0,1,5.22.75,7.522,7.522,0,0,1,5.07,5.43,16.845,16.845,0,0,1,.51,4.32q0,2.64-.18,5.31t-.21,5.25q-.03,2.58.15,5.01a18.868,18.868,0,0,0,.9,4.59h-6.36l-1.26-4.14h-.3a10.678,10.678,0,0,1-3.33,3.21,10.1,10.1,0,0,1-5.49,1.35,10.7,10.7,0,0,1-3.78-.63,8.08,8.08,0,0,1-4.74-4.56,9.233,9.233,0,0,1-.66-3.57,8.348,8.348,0,0,1,1.23-4.65,8.9,8.9,0,0,1,3.54-3.06,17.584,17.584,0,0,1,5.52-1.62,39.116,39.116,0,0,1,7.17-.27q.42-3.36-.48-4.83t-4.02-1.47a27.407,27.407,0,0,0-4.95.48,18.1,18.1,0,0,0-4.29,1.26Zm9.9,22.32a6,6,0,0,0,3.72-1.05,7.325,7.325,0,0,0,2.04-2.25v-3.9a21.458,21.458,0,0,0-3.57-.06,13.027,13.027,0,0,0-3.03.54,5.094,5.094,0,0,0-2.1,1.2,2.683,2.683,0,0,0-.78,1.98,3.407,3.407,0,0,0,.99,2.61A3.829,3.829,0,0,0,197.16,48.06ZM235.56,54V36.96q0-3.66-1.05-5.28a3.927,3.927,0,0,0-3.57-1.62,5.621,5.621,0,0,0-3.75,1.29A7.166,7.166,0,0,0,225,34.56V54h-7.8V24h6.18l.9,3.96h.24a12.933,12.933,0,0,1,3.66-3.36,10.851,10.851,0,0,1,5.88-1.44,12.115,12.115,0,0,1,3.96.6,6.741,6.741,0,0,1,2.94,1.98,9,9,0,0,1,1.8,3.75,24.248,24.248,0,0,1,.6,5.85V54Zm39.72,0q0,6.54-3.54,9.63t-9.9,3.09a30.4,30.4,0,0,1-6.81-.6,17.134,17.134,0,0,1-3.75-1.26l1.62-6.18q1.38.54,3.21,1.08a16.237,16.237,0,0,0,4.53.54q4.08,0,5.55-1.77a7.533,7.533,0,0,0,1.47-4.95V51.66h-.24q-2.1,2.82-7.44,2.82-5.82,0-8.67-3.6T248.46,39.6q0-8.04,3.84-12.18t11.16-4.14a39.408,39.408,0,0,1,6.87.54,28.863,28.863,0,0,1,4.95,1.26Zm-13.2-5.76a5.361,5.361,0,0,0,3.51-1.02,6.424,6.424,0,0,0,1.89-3.06V30.66a11.983,11.983,0,0,0-4.62-.78,5.509,5.509,0,0,0-4.68,2.25q-1.68,2.25-1.68,7.17a12.573,12.573,0,0,0,1.44,6.66A4.613,4.613,0,0,0,262.08,48.24Zm43.98,3.18a15.266,15.266,0,0,1-4.89,2.43,21.407,21.407,0,0,1-6.57.99q-7.26,0-10.62-4.23T280.62,39q0-7.92,3.78-11.88t10.62-3.96a16.512,16.512,0,0,1,4.44.6,10.333,10.333,0,0,1,3.84,1.98,9.741,9.741,0,0,1,2.7,3.72,14.587,14.587,0,0,1,1.02,5.82,26.141,26.141,0,0,1-.15,2.7q-.15,1.44-.45,3h-18a8.791,8.791,0,0,0,1.95,5.7q1.77,1.92,5.73,1.92a12.77,12.77,0,0,0,7.38-2.28ZM294.9,29.4a5.463,5.463,0,0,0-4.53,1.83,9.048,9.048,0,0,0-1.77,4.89h11.16a7.554,7.554,0,0,0-.99-4.98A4.412,4.412,0,0,0,294.9,29.4Zm42.54,18.66a6,6,0,0,0,3.72-1.05,7.325,7.325,0,0,0,2.04-2.25v-3.9a21.458,21.458,0,0,0-3.57-.06,13.028,13.028,0,0,0-3.03.54,5.094,5.094,0,0,0-2.1,1.2,2.683,2.683,0,0,0-.78,1.98,3.407,3.407,0,0,0,.99,2.61A3.829,3.829,0,0,0,337.44,48.06Zm7.86,1.38a15.884,15.884,0,0,1-3.99,3.54,11.979,11.979,0,0,1-6.45,1.5,10.7,10.7,0,0,1-3.78-.63,8.08,8.08,0,0,1-4.74-4.56,9.232,9.232,0,0,1-.66-3.57,8.348,8.348,0,0,1,1.23-4.65,8.939,8.939,0,0,1,3.51-3.06,17.234,17.234,0,0,1,5.49-1.62,39.116,39.116,0,0,1,7.17-.27q.42-3.36-.45-4.83t-3.99-1.47a18.959,18.959,0,0,0-4.77.63,23.269,23.269,0,0,0-4.29,1.53l-2.04-5.64a26.4,26.4,0,0,1,5.64-2.07,27.654,27.654,0,0,1,6.96-.87,12.679,12.679,0,0,1,4.98.81,7.438,7.438,0,0,1,3.06,2.43,9.664,9.664,0,0,1,3.9-2.58,14.751,14.751,0,0,1,5.22-.9,16.512,16.512,0,0,1,4.44.6,10.333,10.333,0,0,1,3.84,1.98,9.742,9.742,0,0,1,2.7,3.72,14.588,14.588,0,0,1,1.02,5.82,25.291,25.291,0,0,1-.15,2.67q-.15,1.41-.45,3.03H350.64a9.029,9.029,0,0,0,2.01,5.7q1.77,1.92,5.73,1.92a12.77,12.77,0,0,0,7.38-2.28l2.58,5.1a15.266,15.266,0,0,1-4.89,2.43,21.407,21.407,0,0,1-6.57.99,15.306,15.306,0,0,1-6.75-1.41,10.742,10.742,0,0,1-4.53-3.99ZM357.18,29.4a5.463,5.463,0,0,0-4.53,1.83,9.048,9.048,0,0,0-1.77,4.89H362.1a7.921,7.921,0,0,0-1.02-4.98A4.4,4.4,0,0,0,357.18,29.4Zm25.68,14.52a6.529,6.529,0,0,0,.54,3.06,1.847,1.847,0,0,0,1.74.96,8.214,8.214,0,0,0,1.41-.12,8.526,8.526,0,0,0,1.71-.54l.84,6.12a14.777,14.777,0,0,1-2.94.96,17.256,17.256,0,0,1-4.08.48,7.65,7.65,0,0,1-5.22-1.59q-1.8-1.59-1.8-5.25V12h7.8Zm35.1-.48q0,2.52.06,5.04a42.868,42.868,0,0,0,.54,5.58h-5.58l-1.08-3.9h-.24a9.065,9.065,0,0,1-3.45,3.39,10.5,10.5,0,0,1-5.31,1.29q-5.64,0-8.76-3.72t-3.12-11.64q0-7.68,3.48-11.94t10.2-4.26a18.3,18.3,0,0,1,3.06.21,12.045,12.045,0,0,1,2.4.69V12h7.8Zm-13.26,4.8a5.419,5.419,0,0,0,3.6-1.11,6,6,0,0,0,1.86-3.21V31.2a5.953,5.953,0,0,0-1.86-.99,8.763,8.763,0,0,0-2.64-.33,5.772,5.772,0,0,0-4.95,2.22q-1.65,2.22-1.65,7.62a12.31,12.31,0,0,0,1.35,6.18A4.59,4.59,0,0,0,404.7,48.24Zm36.66-16.92a10.162,10.162,0,0,0-3.36-.66,5.5,5.5,0,0,0-3.51,1.11,5.346,5.346,0,0,0-1.89,2.85V54h-7.8V24h6.06l.9,3.96H432a8.18,8.18,0,0,1,2.76-3.42,7.008,7.008,0,0,1,4.08-1.2,11.348,11.348,0,0,1,3.54.66Zm28.5,20.1a15.266,15.266,0,0,1-4.89,2.43,21.407,21.407,0,0,1-6.57.99q-7.26,0-10.62-4.23T444.42,39q0-7.92,3.78-11.88t10.62-3.96a16.512,16.512,0,0,1,4.44.6,10.333,10.333,0,0,1,3.84,1.98,9.741,9.741,0,0,1,2.7,3.72,14.587,14.587,0,0,1,1.02,5.82,26.141,26.141,0,0,1-.15,2.7q-.15,1.44-.45,3h-18a8.791,8.791,0,0,0,1.95,5.7q1.77,1.92,5.73,1.92a12.77,12.77,0,0,0,7.38-2.28ZM458.7,29.4a5.463,5.463,0,0,0-4.53,1.83,9.048,9.048,0,0,0-1.77,4.89h11.16a7.554,7.554,0,0,0-.99-4.98A4.412,4.412,0,0,0,458.7,29.4ZM24.66,130.14a13.038,13.038,0,0,1-4.35,2.01,20.01,20.01,0,0,1-5.25.69,14.582,14.582,0,0,1-6.09-1.14,10.382,10.382,0,0,1-4.05-3.21,13.237,13.237,0,0,1-2.25-5.01A28.372,28.372,0,0,1,1.98,117q0-7.62,3.42-11.73t9.96-4.11a21.135,21.135,0,0,1,5.31.54,18.029,18.029,0,0,1,3.63,1.38l-1.86,6.36a15.723,15.723,0,0,0-2.73-1.02,12.029,12.029,0,0,0-3.09-.36,5.889,5.889,0,0,0-4.92,2.13q-1.68,2.13-1.68,6.81a14.084,14.084,0,0,0,.42,3.54,8.657,8.657,0,0,0,1.26,2.82,5.906,5.906,0,0,0,2.19,1.89,6.833,6.833,0,0,0,3.15.69,9.737,9.737,0,0,0,3.36-.51,11.775,11.775,0,0,0,2.46-1.23ZM39.3,118.86l1.08,4.68h.36l.78-4.74L46.08,102h8.04L45,129.06q-1.14,3.36-2.19,6.15a27.917,27.917,0,0,1-2.31,4.83,10.876,10.876,0,0,1-2.79,3.15,6.015,6.015,0,0,1-3.63,1.11,10.373,10.373,0,0,1-4.98-1.02l1.44-6.24a4.815,4.815,0,0,0,1.8.36,3.958,3.958,0,0,0,2.67-1.17A7.942,7.942,0,0,0,36.96,132L24.42,102h9.36Zm27.66.72h-2.1V132h-7.8V90h7.8v24.78l1.8-.84L73.5,102h8.58l-7.2,11.4-3.06,2.28,3.3,2.34L83.22,132H74.28Zm27.6,2.34a6.529,6.529,0,0,0,.54,3.06,1.847,1.847,0,0,0,1.74.96,8.214,8.214,0,0,0,1.41-.12,8.526,8.526,0,0,0,1.71-.54l.84,6.12a14.775,14.775,0,0,1-2.94.96,17.256,17.256,0,0,1-4.08.48,7.65,7.65,0,0,1-5.22-1.59q-1.8-1.59-1.8-5.25V90h7.8ZM104.88,102h7.8v30h-7.8Zm-1.14-8.46a3.955,3.955,0,0,1,1.29-2.97,4.963,4.963,0,0,1,3.57-1.23,5.411,5.411,0,0,1,3.69,1.23,3.806,3.806,0,0,1,1.41,2.97,3.634,3.634,0,0,1-1.41,2.91,5.589,5.589,0,0,1-3.69,1.17,5.119,5.119,0,0,1-3.57-1.17A3.768,3.768,0,0,1,103.74,93.54Zm28.98,30.18a2.239,2.239,0,0,0-1.02-1.92,12.288,12.288,0,0,0-2.52-1.32q-1.5-.6-3.3-1.23a12.4,12.4,0,0,1-3.3-1.74,9.53,9.53,0,0,1-2.52-2.82,8.517,8.517,0,0,1-1.02-4.41q0-4.44,2.64-6.78t7.62-2.34a24.5,24.5,0,0,1,6.18.72,17.881,17.881,0,0,1,4.32,1.62l-1.74,5.64q-1.38-.54-3.48-1.14a15.434,15.434,0,0,0-4.26-.6q-3.48,0-3.48,2.7a2,2,0,0,0,1.02,1.74,13.462,13.462,0,0,0,2.52,1.23q1.5.57,3.3,1.23a14.32,14.32,0,0,1,3.3,1.71,8.943,8.943,0,0,1,2.52,2.73,8.223,8.223,0,0,1,1.02,4.32,9.141,9.141,0,0,1-2.91,7.17q-2.91,2.61-8.73,2.61a21.32,21.32,0,0,1-5.97-.81,18.374,18.374,0,0,1-4.53-1.89l2.16-5.82a20.818,20.818,0,0,0,3.66,1.53,14.883,14.883,0,0,0,4.68.75,5.19,5.19,0,0,0,2.79-.66A2.416,2.416,0,0,0,132.72,123.72ZM142.5,102h4.14V96.36l7.8-2.22V102h7.32v6.6h-7.32v11.52a11.419,11.419,0,0,0,.63,4.47,2.37,2.37,0,0,0,2.37,1.35,7.849,7.849,0,0,0,2.07-.24,14.129,14.129,0,0,0,1.95-.72l1.38,6a19.8,19.8,0,0,1-3.78,1.32,17.992,17.992,0,0,1-4.38.54q-4.14,0-6.09-2.13t-1.95-6.99V108.6H142.5Zm47.76,27.42a15.266,15.266,0,0,1-4.89,2.43,21.407,21.407,0,0,1-6.57.99q-7.26,0-10.62-4.23T164.82,117q0-7.92,3.78-11.88t10.62-3.96a16.512,16.512,0,0,1,4.44.6,10.333,10.333,0,0,1,3.84,1.98,9.741,9.741,0,0,1,2.7,3.72,14.588,14.588,0,0,1,1.02,5.82,26.141,26.141,0,0,1-.15,2.7q-.15,1.44-.45,3h-18a8.791,8.791,0,0,0,1.95,5.7q1.77,1.92,5.73,1.92a12.77,12.77,0,0,0,7.38-2.28ZM179.1,107.4a5.463,5.463,0,0,0-4.53,1.83,9.048,9.048,0,0,0-1.77,4.89h11.16a7.554,7.554,0,0,0-.99-4.98A4.412,4.412,0,0,0,179.1,107.4Zm34.2,1.92a10.162,10.162,0,0,0-3.36-.66,5.5,5.5,0,0,0-3.51,1.11,5.346,5.346,0,0,0-1.89,2.85V132h-7.8V102h6.06l.9,3.96h.24a8.18,8.18,0,0,1,2.76-3.42,7.008,7.008,0,0,1,4.08-1.2,11.348,11.348,0,0,1,3.54.66ZM259.08,102v30h-7.8V108.6h-9.06V132h-7.8V108.6h-4.14V102h4.14v-1.68q0-5.7,2.94-8.31t8.52-2.61a38.434,38.434,0,0,1,7.35.63,17.06,17.06,0,0,1,5.19,1.77l-2.04,6.06a15.127,15.127,0,0,0-3.78-1.35,22,22,0,0,0-4.92-.51,8.466,8.466,0,0,0-2.82.39,3.7,3.7,0,0,0-1.68,1.14,3.951,3.951,0,0,0-.78,1.89,16.66,16.66,0,0,0-.18,2.58Zm16.98,17.58h-2.1V132h-7.8V90h7.8v24.78l1.8-.84L282.6,102h8.58l-7.2,11.4-3.06,2.28,3.3,2.34,8.1,13.98h-8.94ZM333,129.42a15.266,15.266,0,0,1-4.89,2.43,21.407,21.407,0,0,1-6.57.99q-7.26,0-10.62-4.23T307.56,117q0-7.92,3.78-11.88t10.62-3.96a16.512,16.512,0,0,1,4.44.6,10.333,10.333,0,0,1,3.84,1.98,9.742,9.742,0,0,1,2.7,3.72,14.588,14.588,0,0,1,1.02,5.82,26.14,26.14,0,0,1-.15,2.7q-.15,1.44-.45,3h-18a8.791,8.791,0,0,0,1.95,5.7q1.77,1.92,5.73,1.92a12.77,12.77,0,0,0,7.38-2.28ZM321.84,107.4a5.463,5.463,0,0,0-4.53,1.83,9.048,9.048,0,0,0-1.77,4.89H326.7a7.554,7.554,0,0,0-.99-4.98A4.412,4.412,0,0,0,321.84,107.4Zm36,24.6V114.96q0-3.66-1.05-5.28a3.927,3.927,0,0,0-3.57-1.62,5.62,5.62,0,0,0-3.75,1.29,7.166,7.166,0,0,0-2.19,3.21V132h-7.8V102h6.18l.9,3.96h.24a12.933,12.933,0,0,1,3.66-3.36,10.851,10.851,0,0,1,5.88-1.44,12.114,12.114,0,0,1,3.96.6,6.741,6.741,0,0,1,2.94,1.98,9,9,0,0,1,1.8,3.75,24.249,24.249,0,0,1,.6,5.85V132ZM20.46,210V193.68a15.708,15.708,0,0,0-.78-5.88q-.78-1.74-3.24-1.74a4.809,4.809,0,0,0-3.3,1.11,7.051,7.051,0,0,0-1.92,2.85V210H3.42V180H9.48l.9,3.96h.24a13.744,13.744,0,0,1,3.51-3.36,9.613,9.613,0,0,1,5.49-1.44,8.607,8.607,0,0,1,4.71,1.17,7.565,7.565,0,0,1,2.85,3.93,10.9,10.9,0,0,1,3.54-3.72,9.494,9.494,0,0,1,5.22-1.38,13.45,13.45,0,0,1,4.29.6,5.9,5.9,0,0,1,2.88,2.07,10.044,10.044,0,0,1,1.65,3.93A29.868,29.868,0,0,1,45.3,192v18H37.5V193.14a14.309,14.309,0,0,0-.75-5.31q-.75-1.77-3.33-1.77a4.706,4.706,0,0,0-3.33,1.14,6.856,6.856,0,0,0-1.83,3.12V210Zm31.98-30h7.8v30h-7.8Zm-1.14-8.46a3.955,3.955,0,0,1,1.29-2.97,4.963,4.963,0,0,1,3.57-1.23,5.411,5.411,0,0,1,3.69,1.23,3.806,3.806,0,0,1,1.41,2.97,3.634,3.634,0,0,1-1.41,2.91,5.589,5.589,0,0,1-3.69,1.17,5.119,5.119,0,0,1-3.57-1.17A3.768,3.768,0,0,1,51.3,171.54ZM86.22,210V192.96q0-3.66-1.05-5.28a3.927,3.927,0,0,0-3.57-1.62,5.621,5.621,0,0,0-3.75,1.29,7.166,7.166,0,0,0-2.19,3.21V210h-7.8V180h6.18l.9,3.96h.24a12.933,12.933,0,0,1,3.66-3.36,10.851,10.851,0,0,1,5.88-1.44,12.115,12.115,0,0,1,3.96.6,6.741,6.741,0,0,1,2.94,1.98,9,9,0,0,1,1.8,3.75,24.248,24.248,0,0,1,.6,5.85V210Zm39.84-10.56q0,2.52.06,5.04a42.863,42.863,0,0,0,.54,5.58h-5.58l-1.08-3.9h-.24a9.066,9.066,0,0,1-3.45,3.39,10.5,10.5,0,0,1-5.31,1.29q-5.64,0-8.76-3.72t-3.12-11.64q0-7.68,3.48-11.94t10.2-4.26a18.3,18.3,0,0,1,3.06.21,12.046,12.046,0,0,1,2.4.69V168h7.8Zm-13.26,4.8a5.419,5.419,0,0,0,3.6-1.11,6,6,0,0,0,1.86-3.21V187.2a5.952,5.952,0,0,0-1.86-.99,8.763,8.763,0,0,0-2.64-.33,5.772,5.772,0,0,0-4.95,2.22q-1.65,2.22-1.65,7.62a12.31,12.31,0,0,0,1.35,6.18A4.59,4.59,0,0,0,112.8,204.24Zm36.66-16.92a10.162,10.162,0,0,0-3.36-.66,5.5,5.5,0,0,0-3.51,1.11,5.346,5.346,0,0,0-1.89,2.85V210h-7.8V180h6.06l.9,3.96h.24a8.18,8.18,0,0,1,2.76-3.42,7.008,7.008,0,0,1,4.08-1.2,11.348,11.348,0,0,1,3.54.66Zm28.5,20.1a15.266,15.266,0,0,1-4.89,2.43,21.407,21.407,0,0,1-6.57.99q-7.26,0-10.62-4.23T152.52,195q0-7.92,3.78-11.88t10.62-3.96a16.512,16.512,0,0,1,4.44.6,10.333,10.333,0,0,1,3.84,1.98,9.742,9.742,0,0,1,2.7,3.72,14.588,14.588,0,0,1,1.02,5.82,26.141,26.141,0,0,1-.15,2.7q-.15,1.44-.45,3h-18a8.791,8.791,0,0,0,1.95,5.7q1.77,1.92,5.73,1.92a12.77,12.77,0,0,0,7.38-2.28ZM166.8,185.4a5.463,5.463,0,0,0-4.53,1.83,9.048,9.048,0,0,0-1.77,4.89h11.16a7.554,7.554,0,0,0-.99-4.98A4.412,4.412,0,0,0,166.8,185.4Zm56.82,22.02a15.266,15.266,0,0,1-4.89,2.43,21.407,21.407,0,0,1-6.57.99q-7.26,0-10.62-4.23T198.18,195q0-7.92,3.78-11.88t10.62-3.96a16.512,16.512,0,0,1,4.44.6,10.333,10.333,0,0,1,3.84,1.98,9.742,9.742,0,0,1,2.7,3.72,14.588,14.588,0,0,1,1.02,5.82,26.141,26.141,0,0,1-.15,2.7q-.15,1.44-.45,3h-18a8.791,8.791,0,0,0,1.95,5.7q1.77,1.92,5.73,1.92a12.77,12.77,0,0,0,7.38-2.28ZM212.46,185.4a5.463,5.463,0,0,0-4.53,1.83,9.048,9.048,0,0,0-1.77,4.89h11.16a7.554,7.554,0,0,0-.99-4.98A4.412,4.412,0,0,0,212.46,185.4Zm25.68,14.52a6.529,6.529,0,0,0,.54,3.06,1.847,1.847,0,0,0,1.74.96,8.214,8.214,0,0,0,1.41-.12,8.526,8.526,0,0,0,1.71-.54l.84,6.12a14.775,14.775,0,0,1-2.94.96,17.256,17.256,0,0,1-4.08.48,7.65,7.65,0,0,1-5.22-1.59q-1.8-1.59-1.8-5.25V168h7.8Zm17.64,0a6.529,6.529,0,0,0,.54,3.06,1.847,1.847,0,0,0,1.74.96,8.214,8.214,0,0,0,1.41-.12,8.526,8.526,0,0,0,1.71-.54l.84,6.12a14.776,14.776,0,0,1-2.94.96,17.256,17.256,0,0,1-4.08.48,7.65,7.65,0,0,1-5.22-1.59q-1.8-1.59-1.8-5.25V168h7.8Zm33.6,7.5a15.266,15.266,0,0,1-4.89,2.43,21.407,21.407,0,0,1-6.57.99q-7.26,0-10.62-4.23T263.94,195q0-7.92,3.78-11.88t10.62-3.96a16.512,16.512,0,0,1,4.44.6,10.333,10.333,0,0,1,3.84,1.98,9.742,9.742,0,0,1,2.7,3.72,14.588,14.588,0,0,1,1.02,5.82,26.141,26.141,0,0,1-.15,2.7q-.15,1.44-.45,3h-18a8.791,8.791,0,0,0,1.95,5.7q1.77,1.92,5.73,1.92a12.77,12.77,0,0,0,7.38-2.28ZM278.22,185.4a5.463,5.463,0,0,0-4.53,1.83,9.048,9.048,0,0,0-1.77,4.89h11.16a7.554,7.554,0,0,0-.99-4.98A4.412,4.412,0,0,0,278.22,185.4Zm34.2,1.92a10.162,10.162,0,0,0-3.36-.66,5.5,5.5,0,0,0-3.51,1.11,5.346,5.346,0,0,0-1.89,2.85V210h-7.8V180h6.06l.9,3.96h.24a8.18,8.18,0,0,1,2.76-3.42,7.008,7.008,0,0,1,4.08-1.2,11.348,11.348,0,0,1,3.54.66Zm19.5-5.58a25.666,25.666,0,0,1,5.7-1.71,36.736,36.736,0,0,1,6.9-.63,15.667,15.667,0,0,1,5.22.75,7.521,7.521,0,0,1,5.07,5.43,16.844,16.844,0,0,1,.51,4.32q0,2.64-.18,5.31t-.21,5.25q-.03,2.58.15,5.01a18.867,18.867,0,0,0,.9,4.59h-6.36l-1.26-4.14h-.3a10.678,10.678,0,0,1-3.33,3.21,10.1,10.1,0,0,1-5.49,1.35,10.7,10.7,0,0,1-3.78-.63,8.08,8.08,0,0,1-4.74-4.56,9.232,9.232,0,0,1-.66-3.57,8.348,8.348,0,0,1,1.23-4.65,8.9,8.9,0,0,1,3.54-3.06,17.585,17.585,0,0,1,5.52-1.62,39.116,39.116,0,0,1,7.17-.27q.42-3.36-.48-4.83t-4.02-1.47a27.407,27.407,0,0,0-4.95.48,18.1,18.1,0,0,0-4.29,1.26Zm9.9,22.32a6,6,0,0,0,3.72-1.05,7.325,7.325,0,0,0,2.04-2.25v-3.9a21.456,21.456,0,0,0-3.57-.06,13.028,13.028,0,0,0-3.03.54,5.094,5.094,0,0,0-2.1,1.2,2.683,2.683,0,0,0-.78,1.98,3.407,3.407,0,0,0,.99,2.61A3.829,3.829,0,0,0,341.82,204.06Zm28.08-4.14a6.529,6.529,0,0,0,.54,3.06,1.847,1.847,0,0,0,1.74.96,8.214,8.214,0,0,0,1.41-.12,8.526,8.526,0,0,0,1.71-.54l.84,6.12a14.776,14.776,0,0,1-2.94.96,17.256,17.256,0,0,1-4.08.48,7.65,7.65,0,0,1-5.22-1.59q-1.8-1.59-1.8-5.25V168h7.8Zm19.98-4.2,1.02,4.62h.3l.84-4.74,5.1-15.6h8.4L393,210.3h-4.74L375.24,180h9.06Zm16.38-.72q0-7.62,3.72-11.73t10.44-4.11a15.658,15.658,0,0,1,6.24,1.14,11.657,11.657,0,0,1,4.38,3.21,13.729,13.729,0,0,1,2.61,5.01,22.775,22.775,0,0,1,.87,6.48q0,7.62-3.69,11.73t-10.41,4.11a15.658,15.658,0,0,1-6.24-1.14,11.926,11.926,0,0,1-4.41-3.21,13.48,13.48,0,0,1-2.64-5.01A22.775,22.775,0,0,1,406.26,195Zm8.04,0a17.471,17.471,0,0,0,.36,3.66,10.2,10.2,0,0,0,1.08,2.94,5.211,5.211,0,0,0,1.89,1.95,5.4,5.4,0,0,0,2.79.69,5.128,5.128,0,0,0,4.56-2.22q1.5-2.22,1.5-7.02a14.038,14.038,0,0,0-1.38-6.69,4.885,4.885,0,0,0-4.68-2.55,5.308,5.308,0,0,0-4.5,2.16Q414.3,190.08,414.3,195Zm42.18-7.68a10.162,10.162,0,0,0-3.36-.66,5.5,5.5,0,0,0-3.51,1.11,5.346,5.346,0,0,0-1.89,2.85V210h-7.8V180h6.06l.9,3.96h.24a8.18,8.18,0,0,1,2.76-3.42,7.008,7.008,0,0,1,4.08-1.2,11.348,11.348,0,0,1,3.54.66Zm12.54,12.6a6.529,6.529,0,0,0,.54,3.06,1.847,1.847,0,0,0,1.74.96,8.214,8.214,0,0,0,1.41-.12,8.526,8.526,0,0,0,1.71-.54l.84,6.12a14.776,14.776,0,0,1-2.94.96,17.256,17.256,0,0,1-4.08.48,7.65,7.65,0,0,1-5.22-1.59q-1.8-1.59-1.8-5.25V168h7.8ZM479.34,180h7.8v30h-7.8Zm-1.14-8.46a3.954,3.954,0,0,1,1.29-2.97,4.963,4.963,0,0,1,3.57-1.23,5.411,5.411,0,0,1,3.69,1.23,3.806,3.806,0,0,1,1.41,2.97,3.634,3.634,0,0,1-1.41,2.91,5.589,5.589,0,0,1-3.69,1.17,5.119,5.119,0,0,1-3.57-1.17A3.768,3.768,0,0,1,478.2,171.54ZM520.14,210q0,6.54-3.54,9.63t-9.9,3.09a30.4,30.4,0,0,1-6.81-.6,17.133,17.133,0,0,1-3.75-1.26l1.62-6.18q1.38.54,3.21,1.08a16.236,16.236,0,0,0,4.53.54q4.08,0,5.55-1.77a7.533,7.533,0,0,0,1.47-4.95v-1.92h-.24q-2.1,2.82-7.44,2.82-5.82,0-8.67-3.6t-2.85-11.28q0-8.04,3.84-12.18t11.16-4.14a39.409,39.409,0,0,1,6.87.54,28.865,28.865,0,0,1,4.95,1.26Zm-13.2-5.76a5.36,5.36,0,0,0,3.51-1.02,6.425,6.425,0,0,0,1.89-3.06v-13.5a11.983,11.983,0,0,0-4.62-.78,5.509,5.509,0,0,0-4.68,2.25q-1.68,2.25-1.68,7.17a12.573,12.573,0,0,0,1.44,6.66A4.613,4.613,0,0,0,506.94,204.24ZM15.84,279.72a2.239,2.239,0,0,0-1.02-1.92,12.287,12.287,0,0,0-2.52-1.32q-1.5-.6-3.3-1.23a12.4,12.4,0,0,1-3.3-1.74,9.531,9.531,0,0,1-2.52-2.82,8.517,8.517,0,0,1-1.02-4.41q0-4.44,2.64-6.78t7.62-2.34a24.5,24.5,0,0,1,6.18.72,17.881,17.881,0,0,1,4.32,1.62l-1.74,5.64Q19.8,264.6,17.7,264a15.434,15.434,0,0,0-4.26-.6q-3.48,0-3.48,2.7a2,2,0,0,0,1.02,1.74,13.462,13.462,0,0,0,2.52,1.23q1.5.57,3.3,1.23a14.32,14.32,0,0,1,3.3,1.71,8.942,8.942,0,0,1,2.52,2.73,8.223,8.223,0,0,1,1.02,4.32,9.141,9.141,0,0,1-2.91,7.17q-2.91,2.61-8.73,2.61a21.32,21.32,0,0,1-5.97-.81,18.374,18.374,0,0,1-4.53-1.89l2.16-5.82a20.818,20.818,0,0,0,3.66,1.53,14.883,14.883,0,0,0,4.68.75,5.19,5.19,0,0,0,2.79-.66A2.416,2.416,0,0,0,15.84,279.72Zm22.8-4.14h-2.1V288h-7.8V246h7.8v24.78l1.8-.84L45.18,258h8.58l-7.2,11.4-3.06,2.28,3.3,2.34L54.9,288H45.96Zm19.38-15.84a25.666,25.666,0,0,1,5.7-1.71,36.735,36.735,0,0,1,6.9-.63,15.667,15.667,0,0,1,5.22.75,7.522,7.522,0,0,1,5.07,5.43,16.844,16.844,0,0,1,.51,4.32q0,2.64-.18,5.31t-.21,5.25q-.03,2.58.15,5.01a18.867,18.867,0,0,0,.9,4.59H75.72l-1.26-4.14h-.3a10.678,10.678,0,0,1-3.33,3.21,10.1,10.1,0,0,1-5.49,1.35,10.7,10.7,0,0,1-3.78-.63,8.08,8.08,0,0,1-4.74-4.56,9.233,9.233,0,0,1-.66-3.57,8.348,8.348,0,0,1,1.23-4.65,8.9,8.9,0,0,1,3.54-3.06,17.584,17.584,0,0,1,5.52-1.62,39.114,39.114,0,0,1,7.17-.27q.42-3.36-.48-4.83t-4.02-1.47a27.409,27.409,0,0,0-4.95.48,18.1,18.1,0,0,0-4.29,1.26Zm9.9,22.32a6,6,0,0,0,3.72-1.05,7.326,7.326,0,0,0,2.04-2.25v-3.9a21.46,21.46,0,0,0-3.57-.06,13.029,13.029,0,0,0-3.03.54,5.094,5.094,0,0,0-2.1,1.2,2.683,2.683,0,0,0-.78,1.98,3.407,3.407,0,0,0,.99,2.61A3.829,3.829,0,0,0,67.92,282.06Zm45.54-4.62q0,2.52.06,5.04a42.863,42.863,0,0,0,.54,5.58h-5.58l-1.08-3.9h-.24a9.065,9.065,0,0,1-3.45,3.39,10.5,10.5,0,0,1-5.31,1.29q-5.64,0-8.76-3.72t-3.12-11.64q0-7.68,3.48-11.94t10.2-4.26a18.3,18.3,0,0,1,3.06.21,12.049,12.049,0,0,1,2.4.69V246h7.8Zm-13.26,4.8a5.419,5.419,0,0,0,3.6-1.11,6,6,0,0,0,1.86-3.21V265.2a5.953,5.953,0,0,0-1.86-.99,8.763,8.763,0,0,0-2.64-.33,5.772,5.772,0,0,0-4.95,2.22q-1.65,2.22-1.65,7.62a12.31,12.31,0,0,0,1.35,6.18A4.59,4.59,0,0,0,100.2,282.24Zm44.1,3.18a15.266,15.266,0,0,1-4.89,2.43,21.407,21.407,0,0,1-6.57.99q-7.26,0-10.62-4.23T118.86,273q0-7.92,3.78-11.88t10.62-3.96a16.512,16.512,0,0,1,4.44.6,10.333,10.333,0,0,1,3.84,1.98,9.741,9.741,0,0,1,2.7,3.72,14.588,14.588,0,0,1,1.02,5.82,26.145,26.145,0,0,1-.15,2.7q-.15,1.44-.45,3h-18a8.791,8.791,0,0,0,1.95,5.7q1.77,1.92,5.73,1.92a12.77,12.77,0,0,0,7.38-2.28ZM133.14,263.4a5.463,5.463,0,0,0-4.53,1.83,9.048,9.048,0,0,0-1.77,4.89H138a7.554,7.554,0,0,0-.99-4.98A4.412,4.412,0,0,0,133.14,263.4Zm45.24,16.32a2.239,2.239,0,0,0-1.02-1.92,12.287,12.287,0,0,0-2.52-1.32q-1.5-.6-3.3-1.23a12.4,12.4,0,0,1-3.3-1.74,9.531,9.531,0,0,1-2.52-2.82,8.517,8.517,0,0,1-1.02-4.41q0-4.44,2.64-6.78t7.62-2.34a24.5,24.5,0,0,1,6.18.72,17.881,17.881,0,0,1,4.32,1.62l-1.74,5.64q-1.38-.54-3.48-1.14a15.434,15.434,0,0,0-4.26-.6q-3.48,0-3.48,2.7a2,2,0,0,0,1.02,1.74,13.462,13.462,0,0,0,2.52,1.23q1.5.57,3.3,1.23a14.32,14.32,0,0,1,3.3,1.71,8.942,8.942,0,0,1,2.52,2.73,8.223,8.223,0,0,1,1.02,4.32,9.141,9.141,0,0,1-2.91,7.17q-2.91,2.61-8.73,2.61a21.32,21.32,0,0,1-5.97-.81,18.374,18.374,0,0,1-4.53-1.89l2.16-5.82a20.818,20.818,0,0,0,3.66,1.53,14.883,14.883,0,0,0,4.68.75,5.19,5.19,0,0,0,2.79-.66A2.416,2.416,0,0,0,178.38,279.72ZM192,258h7.8v30H192Zm-1.14-8.46a3.955,3.955,0,0,1,1.29-2.97,4.963,4.963,0,0,1,3.57-1.23,5.411,5.411,0,0,1,3.69,1.23,3.806,3.806,0,0,1,1.41,2.97,3.634,3.634,0,0,1-1.41,2.91,5.589,5.589,0,0,1-3.69,1.17,5.12,5.12,0,0,1-3.57-1.17A3.768,3.768,0,0,1,190.86,249.54Zm42.06,27.9q0,2.52.06,5.04a42.86,42.86,0,0,0,.54,5.58h-5.58l-1.08-3.9h-.24a9.065,9.065,0,0,1-3.45,3.39,10.5,10.5,0,0,1-5.31,1.29q-5.64,0-8.76-3.72t-3.12-11.64q0-7.68,3.48-11.94t10.2-4.26a18.3,18.3,0,0,1,3.06.21,12.048,12.048,0,0,1,2.4.69V246h7.8Zm-13.26,4.8a5.419,5.419,0,0,0,3.6-1.11,6,6,0,0,0,1.86-3.21V265.2a5.953,5.953,0,0,0-1.86-.99,8.763,8.763,0,0,0-2.64-.33,5.772,5.772,0,0,0-4.95,2.22q-1.65,2.22-1.65,7.62a12.31,12.31,0,0,0,1.35,6.18A4.59,4.59,0,0,0,219.66,282.24Zm32.52-2.52a2.239,2.239,0,0,0-1.02-1.92,12.287,12.287,0,0,0-2.52-1.32q-1.5-.6-3.3-1.23a12.4,12.4,0,0,1-3.3-1.74,9.531,9.531,0,0,1-2.52-2.82,8.517,8.517,0,0,1-1.02-4.41q0-4.44,2.64-6.78t7.62-2.34a24.5,24.5,0,0,1,6.18.72,17.881,17.881,0,0,1,4.32,1.62l-1.74,5.64q-1.38-.54-3.48-1.14a15.434,15.434,0,0,0-4.26-.6q-3.48,0-3.48,2.7a2,2,0,0,0,1.02,1.74,13.462,13.462,0,0,0,2.52,1.23q1.5.57,3.3,1.23a14.32,14.32,0,0,1,3.3,1.71,8.942,8.942,0,0,1,2.52,2.73,8.223,8.223,0,0,1,1.02,4.32,9.141,9.141,0,0,1-2.91,7.17q-2.91,2.61-8.73,2.61a21.32,21.32,0,0,1-5.97-.81,18.374,18.374,0,0,1-4.53-1.89l2.16-5.82a20.818,20.818,0,0,0,3.66,1.53,14.883,14.883,0,0,0,4.68.75,5.19,5.19,0,0,0,2.79-.66A2.416,2.416,0,0,0,252.18,279.72ZM261.96,258h4.14v-5.64l7.8-2.22V258h7.32v6.6H273.9v11.52a11.418,11.418,0,0,0,.63,4.47,2.37,2.37,0,0,0,2.37,1.35,7.849,7.849,0,0,0,2.07-.24,14.135,14.135,0,0,0,1.95-.72l1.38,6a19.8,19.8,0,0,1-3.78,1.32,17.991,17.991,0,0,1-4.38.54q-4.14,0-6.09-2.13t-1.95-6.99V264.6h-4.14Zm47.76,27.42a15.266,15.266,0,0,1-4.89,2.43,21.407,21.407,0,0,1-6.57.99q-7.26,0-10.62-4.23T284.28,273q0-7.92,3.78-11.88t10.62-3.96a16.512,16.512,0,0,1,4.44.6,10.333,10.333,0,0,1,3.84,1.98,9.742,9.742,0,0,1,2.7,3.72,14.587,14.587,0,0,1,1.02,5.82,26.141,26.141,0,0,1-.15,2.7q-.15,1.44-.45,3h-18a8.791,8.791,0,0,0,1.95,5.7q1.77,1.92,5.73,1.92a12.77,12.77,0,0,0,7.38-2.28ZM298.56,263.4a5.463,5.463,0,0,0-4.53,1.83,9.048,9.048,0,0,0-1.77,4.89h11.16a7.554,7.554,0,0,0-.99-4.98A4.412,4.412,0,0,0,298.56,263.4Zm58.2,24.6q0,6.54-3.54,9.63t-9.9,3.09a30.4,30.4,0,0,1-6.81-.6,17.133,17.133,0,0,1-3.75-1.26l1.62-6.18q1.38.54,3.21,1.08a16.237,16.237,0,0,0,4.53.54q4.08,0,5.55-1.77a7.533,7.533,0,0,0,1.47-4.95v-1.92h-.24q-2.1,2.82-7.44,2.82-5.82,0-8.67-3.6t-2.85-11.28q0-8.04,3.84-12.18t11.16-4.14a39.407,39.407,0,0,1,6.87.54,28.86,28.86,0,0,1,4.95,1.26Zm-13.2-5.76a5.361,5.361,0,0,0,3.51-1.02,6.425,6.425,0,0,0,1.89-3.06v-13.5a11.983,11.983,0,0,0-4.62-.78,5.509,5.509,0,0,0-4.68,2.25q-1.68,2.25-1.68,7.17a12.572,12.572,0,0,0,1.44,6.66A4.613,4.613,0,0,0,343.56,282.24Zm19.8-22.5a25.667,25.667,0,0,1,5.7-1.71,36.735,36.735,0,0,1,6.9-.63,15.667,15.667,0,0,1,5.22.75,7.521,7.521,0,0,1,5.07,5.43,16.844,16.844,0,0,1,.51,4.32q0,2.64-.18,5.31t-.21,5.25q-.03,2.58.15,5.01a18.867,18.867,0,0,0,.9,4.59h-6.36l-1.26-4.14h-.3a10.678,10.678,0,0,1-3.33,3.21,10.1,10.1,0,0,1-5.49,1.35,10.7,10.7,0,0,1-3.78-.63,8.08,8.08,0,0,1-4.74-4.56,9.232,9.232,0,0,1-.66-3.57,8.348,8.348,0,0,1,1.23-4.65,8.9,8.9,0,0,1,3.54-3.06,17.584,17.584,0,0,1,5.52-1.62,39.114,39.114,0,0,1,7.17-.27q.42-3.36-.48-4.83t-4.02-1.47a27.408,27.408,0,0,0-4.95.48,18.1,18.1,0,0,0-4.29,1.26Zm9.9,22.32a6,6,0,0,0,3.72-1.05,7.325,7.325,0,0,0,2.04-2.25v-3.9a21.46,21.46,0,0,0-3.57-.06,13.029,13.029,0,0,0-3.03.54,5.094,5.094,0,0,0-2.1,1.2,2.683,2.683,0,0,0-.78,1.98,3.407,3.407,0,0,0,.99,2.61A3.829,3.829,0,0,0,373.26,282.06Zm38.4,5.94V270.96q0-3.66-1.05-5.28a3.927,3.927,0,0,0-3.57-1.62,5.62,5.62,0,0,0-3.75,1.29,7.166,7.166,0,0,0-2.19,3.21V288h-7.8V258h6.18l.9,3.96h.24a12.933,12.933,0,0,1,3.66-3.36,10.851,10.851,0,0,1,5.88-1.44,12.115,12.115,0,0,1,3.96.6,6.741,6.741,0,0,1,2.94,1.98,9,9,0,0,1,1.8,3.75,24.249,24.249,0,0,1,.6,5.85V288Zm39.72,0q0,6.54-3.54,9.63t-9.9,3.09a30.4,30.4,0,0,1-6.81-.6,17.133,17.133,0,0,1-3.75-1.26l1.62-6.18q1.38.54,3.21,1.08a16.237,16.237,0,0,0,4.53.54q4.08,0,5.55-1.77a7.533,7.533,0,0,0,1.47-4.95v-1.92h-.24q-2.1,2.82-7.44,2.82-5.82,0-8.67-3.6t-2.85-11.28q0-8.04,3.84-12.18t11.16-4.14a39.407,39.407,0,0,1,6.87.54,28.86,28.86,0,0,1,4.95,1.26Zm-13.2-5.76a5.361,5.361,0,0,0,3.51-1.02,6.425,6.425,0,0,0,1.89-3.06v-13.5a11.983,11.983,0,0,0-4.62-.78,5.509,5.509,0,0,0-4.68,2.25q-1.68,2.25-1.68,7.17a12.572,12.572,0,0,0,1.44,6.66A4.613,4.613,0,0,0,438.18,282.24Zm60.66-4.8q0,2.52.06,5.04a42.868,42.868,0,0,0,.54,5.58h-5.58l-1.08-3.9h-.24a9.065,9.065,0,0,1-3.45,3.39,10.5,10.5,0,0,1-5.31,1.29q-5.64,0-8.76-3.72t-3.12-11.64q0-7.68,3.48-11.94t10.2-4.26a18.3,18.3,0,0,1,3.06.21,12.048,12.048,0,0,1,2.4.69V246h7.8Zm-13.26,4.8a5.419,5.419,0,0,0,3.6-1.11,6,6,0,0,0,1.86-3.21V265.2a5.953,5.953,0,0,0-1.86-.99,8.763,8.763,0,0,0-2.64-.33,5.772,5.772,0,0,0-4.95,2.22q-1.65,2.22-1.65,7.62a12.31,12.31,0,0,0,1.35,6.18A4.59,4.59,0,0,0,485.58,282.24Zm44.1,3.18a15.266,15.266,0,0,1-4.89,2.43,21.407,21.407,0,0,1-6.57.99q-7.26,0-10.62-4.23T504.24,273q0-7.92,3.78-11.88t10.62-3.96a16.512,16.512,0,0,1,4.44.6,10.333,10.333,0,0,1,3.84,1.98,9.741,9.741,0,0,1,2.7,3.72,14.588,14.588,0,0,1,1.02,5.82,26.132,26.132,0,0,1-.15,2.7q-.15,1.44-.45,3h-18a8.791,8.791,0,0,0,1.95,5.7q1.77,1.92,5.73,1.92a12.77,12.77,0,0,0,7.38-2.28ZM518.52,263.4a5.463,5.463,0,0,0-4.53,1.83,9.048,9.048,0,0,0-1.77,4.89h11.16a7.554,7.554,0,0,0-.99-4.98A4.412,4.412,0,0,0,518.52,263.4ZM.66,336H4.8v-1.68q0-5.7,2.4-8.25t6.96-2.55a23.912,23.912,0,0,1,7.98,1.14l-1.5,6.24a13.263,13.263,0,0,0-2.43-.63,15.478,15.478,0,0,0-2.19-.15,4.126,4.126,0,0,0-1.89.36,2.214,2.214,0,0,0-1.02,1.11,5.805,5.805,0,0,0-.42,1.86q-.09,1.11-.09,2.55h6.6v6.6H12.6V366H4.8V342.6H.66Zm21.84,1.74a25.666,25.666,0,0,1,5.7-1.71,36.735,36.735,0,0,1,6.9-.63,15.667,15.667,0,0,1,5.22.75,7.522,7.522,0,0,1,5.07,5.43,16.844,16.844,0,0,1,.51,4.32q0,2.64-.18,5.31t-.21,5.25q-.03,2.58.15,5.01a18.867,18.867,0,0,0,.9,4.59H40.2l-1.26-4.14h-.3a10.678,10.678,0,0,1-3.33,3.21,10.1,10.1,0,0,1-5.49,1.35,10.7,10.7,0,0,1-3.78-.63,8.08,8.08,0,0,1-4.74-4.56,9.233,9.233,0,0,1-.66-3.57,8.348,8.348,0,0,1,1.23-4.65,8.9,8.9,0,0,1,3.54-3.06,17.584,17.584,0,0,1,5.52-1.62,39.114,39.114,0,0,1,7.17-.27q.42-3.36-.48-4.83t-4.02-1.47a27.409,27.409,0,0,0-4.95.48,18.1,18.1,0,0,0-4.29,1.26Zm9.9,22.32a6,6,0,0,0,3.72-1.05,7.326,7.326,0,0,0,2.04-2.25v-3.9a21.46,21.46,0,0,0-3.57-.06,13.029,13.029,0,0,0-3.03.54,5.094,5.094,0,0,0-2.1,1.2,2.683,2.683,0,0,0-.78,1.98,3.407,3.407,0,0,0,.99,2.61A3.829,3.829,0,0,0,32.4,360.06Zm28.08-4.14a6.529,6.529,0,0,0,.54,3.06,1.847,1.847,0,0,0,1.74.96,8.216,8.216,0,0,0,1.41-.12,8.525,8.525,0,0,0,1.71-.54l.84,6.12a14.774,14.774,0,0,1-2.94.96,17.255,17.255,0,0,1-4.08.48,7.65,7.65,0,0,1-5.22-1.59q-1.8-1.59-1.8-5.25V324h7.8Zm35.1-.48q0,2.52.06,5.04a42.863,42.863,0,0,0,.54,5.58H90.6l-1.08-3.9h-.24a9.065,9.065,0,0,1-3.45,3.39,10.5,10.5,0,0,1-5.31,1.29q-5.64,0-8.76-3.72t-3.12-11.64q0-7.68,3.48-11.94t10.2-4.26a18.3,18.3,0,0,1,3.06.21,12.048,12.048,0,0,1,2.4.69V324h7.8Zm-13.26,4.8a5.419,5.419,0,0,0,3.6-1.11,6,6,0,0,0,1.86-3.21V343.2a5.953,5.953,0,0,0-1.86-.99,8.763,8.763,0,0,0-2.64-.33,5.772,5.772,0,0,0-4.95,2.22q-1.65,2.22-1.65,7.62a12.31,12.31,0,0,0,1.35,6.18A4.59,4.59,0,0,0,82.32,360.24ZM99.3,336h4.14v-5.64l7.8-2.22V336h7.32v6.6h-7.32v11.52a11.418,11.418,0,0,0,.63,4.47,2.37,2.37,0,0,0,2.37,1.35,7.849,7.849,0,0,0,2.07-.24,14.134,14.134,0,0,0,1.95-.72l1.38,6a19.8,19.8,0,0,1-3.78,1.32,17.991,17.991,0,0,1-4.38.54q-4.14,0-6.09-2.13t-1.95-6.99V342.6H99.3Zm39.24,0h5.7l.9,3.6h.24a9.942,9.942,0,0,1,3.69-3.36,11.379,11.379,0,0,1,5.19-1.08q5.64,0,8.46,3.57t2.82,11.49a24.761,24.761,0,0,1-.9,6.93,14.621,14.621,0,0,1-2.67,5.25,11.668,11.668,0,0,1-4.32,3.3,16.171,16.171,0,0,1-8.91.87,10.538,10.538,0,0,1-2.4-.87V378h-7.8Zm13.38,5.76a5.206,5.206,0,0,0-3.57,1.14,7.44,7.44,0,0,0-2.01,3.42V358.8a6.411,6.411,0,0,0,4.44,1.44,5.771,5.771,0,0,0,5.04-2.37q1.68-2.37,1.68-7.83a11.787,11.787,0,0,0-1.32-6.12A4.613,4.613,0,0,0,151.92,341.76Zm18.84-4.02a25.666,25.666,0,0,1,5.7-1.71,36.735,36.735,0,0,1,6.9-.63,15.667,15.667,0,0,1,5.22.75,7.522,7.522,0,0,1,5.07,5.43,16.845,16.845,0,0,1,.51,4.32q0,2.64-.18,5.31t-.21,5.25q-.03,2.58.15,5.01a18.868,18.868,0,0,0,.9,4.59h-6.36l-1.26-4.14h-.3a10.678,10.678,0,0,1-3.33,3.21,10.1,10.1,0,0,1-5.49,1.35,10.7,10.7,0,0,1-3.78-.63,8.08,8.08,0,0,1-4.74-4.56,9.233,9.233,0,0,1-.66-3.57,8.348,8.348,0,0,1,1.23-4.65,8.9,8.9,0,0,1,3.54-3.06,17.584,17.584,0,0,1,5.52-1.62,39.114,39.114,0,0,1,7.17-.27q.42-3.36-.48-4.83t-4.02-1.47a27.409,27.409,0,0,0-4.95.48,18.1,18.1,0,0,0-4.29,1.26Zm9.9,22.32a6,6,0,0,0,3.72-1.05,7.325,7.325,0,0,0,2.04-2.25v-3.9a21.46,21.46,0,0,0-3.57-.06,13.029,13.029,0,0,0-3.03.54,5.094,5.094,0,0,0-2.1,1.2,2.683,2.683,0,0,0-.78,1.98,3.407,3.407,0,0,0,.99,2.61A3.829,3.829,0,0,0,180.66,360.06Zm-4.5-32.88a5.452,5.452,0,0,1,1.71-4.14,6.93,6.93,0,0,1,4.95-1.62,7.456,7.456,0,0,1,4.86,1.47,5.69,5.69,0,0,1,.03,8.28,6.892,6.892,0,0,1-4.89,1.65,7.212,7.212,0,0,1-4.92-1.53A5.2,5.2,0,0,1,176.16,327.18Zm4.32,0a1.691,1.691,0,0,0,.72,1.47,2.736,2.736,0,0,0,1.62.51,2.784,2.784,0,0,0,1.68-.48,1.73,1.73,0,0,0,.66-1.5,1.78,1.78,0,0,0-.69-1.53,2.7,2.7,0,0,0-1.65-.51,2.855,2.855,0,0,0-1.62.48A1.737,1.737,0,0,0,180.48,327.18Zm56.64,36.96a13.039,13.039,0,0,1-4.35,2.01,20.011,20.011,0,0,1-5.25.69,14.583,14.583,0,0,1-6.09-1.14,10.382,10.382,0,0,1-4.05-3.21,13.237,13.237,0,0,1-2.25-5.01,28.372,28.372,0,0,1-.69-6.48q0-7.62,3.42-11.73t9.96-4.11a21.134,21.134,0,0,1,5.31.54,18.028,18.028,0,0,1,3.63,1.38l-1.86,6.36a15.722,15.722,0,0,0-2.73-1.02,12.028,12.028,0,0,0-3.09-.36,5.889,5.889,0,0,0-4.92,2.13q-1.68,2.13-1.68,6.81a14.084,14.084,0,0,0,.42,3.54,8.657,8.657,0,0,0,1.26,2.82,5.906,5.906,0,0,0,2.19,1.89,6.833,6.833,0,0,0,3.15.69,9.737,9.737,0,0,0,3.36-.51,11.774,11.774,0,0,0,2.46-1.23Zm14.64-11.28,1.08,4.68h.36l.78-4.74,4.56-16.8h8.04l-9.12,27.06q-1.14,3.36-2.19,6.15a27.916,27.916,0,0,1-2.31,4.83,10.876,10.876,0,0,1-2.79,3.15,6.015,6.015,0,0,1-3.63,1.11,10.373,10.373,0,0,1-4.98-1.02l1.44-6.24a4.815,4.815,0,0,0,1.8.36,3.958,3.958,0,0,0,2.67-1.17,7.942,7.942,0,0,0,1.95-4.23l-12.54-30h9.36Zm27.66.72h-2.1V366h-7.8V324h7.8v24.78l1.8-.84L285.96,336h8.58l-7.2,11.4-3.06,2.28,3.3,2.34,8.1,13.98h-8.94Zm27.6,2.34a6.529,6.529,0,0,0,.54,3.06,1.847,1.847,0,0,0,1.74.96,8.216,8.216,0,0,0,1.41-.12,8.525,8.525,0,0,0,1.71-.54l.84,6.12a14.775,14.775,0,0,1-2.94.96,17.256,17.256,0,0,1-4.08.48,7.65,7.65,0,0,1-5.22-1.59q-1.8-1.59-1.8-5.25V324h7.8Zm33.6,7.5a15.266,15.266,0,0,1-4.89,2.43,21.407,21.407,0,0,1-6.57.99q-7.26,0-10.62-4.23T315.18,351q0-7.92,3.78-11.88t10.62-3.96a16.512,16.512,0,0,1,4.44.6,10.333,10.333,0,0,1,3.84,1.98,9.742,9.742,0,0,1,2.7,3.72,14.587,14.587,0,0,1,1.02,5.82,26.141,26.141,0,0,1-.15,2.7q-.15,1.44-.45,3h-18a8.791,8.791,0,0,0,1.95,5.7q1.77,1.92,5.73,1.92a12.77,12.77,0,0,0,7.38-2.28ZM329.46,341.4a5.463,5.463,0,0,0-4.53,1.83,9.048,9.048,0,0,0-1.77,4.89h11.16a7.554,7.554,0,0,0-.99-4.98A4.412,4.412,0,0,0,329.46,341.4Zm36,24.6V348.96q0-3.66-1.05-5.28a3.927,3.927,0,0,0-3.57-1.62,5.62,5.62,0,0,0-3.75,1.29,7.166,7.166,0,0,0-2.19,3.21V366h-7.8V336h6.18l.9,3.96h.24a12.933,12.933,0,0,1,3.66-3.36,10.851,10.851,0,0,1,5.88-1.44,12.115,12.115,0,0,1,3.96.6,6.741,6.741,0,0,1,2.94,1.98,9,9,0,0,1,1.8,3.75,24.249,24.249,0,0,1,.6,5.85V366Zm19.08-12.48a14.89,14.89,0,0,1,.3-5.31,13.092,13.092,0,0,1,1.65-3.78,13.385,13.385,0,0,1,2.4-2.76q1.35-1.17,2.52-2.25a12.565,12.565,0,0,0,1.95-2.25,4.913,4.913,0,0,0,.78-2.79,4.741,4.741,0,0,0-1.17-3.36q-1.17-1.26-4.17-1.26a10.709,10.709,0,0,0-2.04.21,14.506,14.506,0,0,0-2.16.6,17.471,17.471,0,0,0-2.07.9,15.92,15.92,0,0,0-1.77,1.05l-3-5.76a21.762,21.762,0,0,1,5.25-2.58,22.194,22.194,0,0,1,7.17-1.02q5.64,0,8.82,2.73a9.192,9.192,0,0,1,3.18,7.35,13.667,13.667,0,0,1-.81,5.07,12.35,12.35,0,0,1-2.01,3.42,16.32,16.32,0,0,1-2.64,2.49,22.74,22.74,0,0,0-2.64,2.31,11.88,11.88,0,0,0-2.04,2.85,8.966,8.966,0,0,0-.84,4.14Zm-1.2,8.52a4.331,4.331,0,0,1,1.32-3.33,4.9,4.9,0,0,1,3.48-1.23,5.072,5.072,0,0,1,3.6,1.23,4.331,4.331,0,0,1,1.32,3.33,4.428,4.428,0,0,1-1.32,3.36,5,5,0,0,1-3.6,1.26,4.831,4.831,0,0,1-3.48-1.26A4.428,4.428,0,0,1,383.34,362.04Z" transform="translate(362 207)" fill="#fff"/>
  </g>
</svg>
