<svg xmlns="http://www.w3.org/2000/svg" width="636" height="490.868" viewBox="0 0 636 490.868">
  <g id="Group_2" data-name="Group 2" transform="translate(-324 -179)">
    <rect id="Rectangle_6" data-name="Rectangle 6" width="636" height="490.868" transform="translate(324 179)" fill="#414b5a"/>
    <path id="Path_7" data-name="Path 7" d="M3.6,12q1.26-.18,2.85-.3t3.27-.18q1.68-.06,3.27-.09t2.85-.03a26.044,26.044,0,0,1,9.54,1.56,16.229,16.229,0,0,1,6.42,4.38,17.565,17.565,0,0,1,3.6,6.72,30.5,30.5,0,0,1,1.14,8.58,31.1,31.1,0,0,1-1.08,8.22,18.6,18.6,0,0,1-3.6,7.02,18.052,18.052,0,0,1-6.63,4.92,24.642,24.642,0,0,1-10.17,1.86q-.96,0-2.55-.06t-3.3-.15q-1.71-.09-3.27-.18T3.6,54.06Zm12.9,6.72q-1.32,0-2.67.06a16.323,16.323,0,0,0-2.01.18V47.1a4.822,4.822,0,0,0,.81.09q.57.03,1.23.06l1.26.06q.6.03.9.03a12.227,12.227,0,0,0,5.79-1.23,9.837,9.837,0,0,0,3.66-3.27,13.17,13.17,0,0,0,1.89-4.71,27.628,27.628,0,0,0,.54-5.49,26.1,26.1,0,0,0-.48-4.95,12.4,12.4,0,0,0-1.77-4.47,9.977,9.977,0,0,0-3.51-3.24A11.318,11.318,0,0,0,16.5,18.72Zm49.74,32.7a15.266,15.266,0,0,1-4.89,2.43,21.407,21.407,0,0,1-6.57.99q-7.26,0-10.62-4.23T40.8,39q0-7.92,3.78-11.88T55.2,23.16a16.512,16.512,0,0,1,4.44.6,10.333,10.333,0,0,1,3.84,1.98,9.741,9.741,0,0,1,2.7,3.72,14.588,14.588,0,0,1,1.02,5.82,26.143,26.143,0,0,1-.15,2.7q-.15,1.44-.45,3h-18a8.791,8.791,0,0,0,1.95,5.7q1.77,1.92,5.73,1.92a12.77,12.77,0,0,0,7.38-2.28ZM55.08,29.4a5.463,5.463,0,0,0-4.53,1.83,9.048,9.048,0,0,0-1.77,4.89H59.94a7.554,7.554,0,0,0-.99-4.98A4.412,4.412,0,0,0,55.08,29.4Zm36,24.6V36.96q0-3.66-1.05-5.28a3.927,3.927,0,0,0-3.57-1.62,5.621,5.621,0,0,0-3.75,1.29,7.166,7.166,0,0,0-2.19,3.21V54h-7.8V24H78.9l.9,3.96h.24A12.933,12.933,0,0,1,83.7,24.6a10.851,10.851,0,0,1,5.88-1.44,12.115,12.115,0,0,1,3.96.6,6.741,6.741,0,0,1,2.94,1.98,9,9,0,0,1,1.8,3.75,24.248,24.248,0,0,1,.6,5.85V54Zm46.56,0V37.68a15.708,15.708,0,0,0-.78-5.88q-.78-1.74-3.24-1.74a4.809,4.809,0,0,0-3.3,1.11,7.051,7.051,0,0,0-1.92,2.85V54h-7.8V24h6.06l.9,3.96h.24a13.743,13.743,0,0,1,3.51-3.36,9.613,9.613,0,0,1,5.49-1.44,8.607,8.607,0,0,1,4.71,1.17,7.565,7.565,0,0,1,2.85,3.93,10.9,10.9,0,0,1,3.54-3.72,9.494,9.494,0,0,1,5.22-1.38,13.45,13.45,0,0,1,4.29.6,5.9,5.9,0,0,1,2.88,2.07,10.045,10.045,0,0,1,1.65,3.93,29.868,29.868,0,0,1,.54,6.24V54h-7.8V37.14a14.309,14.309,0,0,0-.75-5.31q-.75-1.77-3.33-1.77a4.706,4.706,0,0,0-3.33,1.14,6.856,6.856,0,0,0-1.83,3.12V54Zm55.26-2.58a15.266,15.266,0,0,1-4.89,2.43,21.407,21.407,0,0,1-6.57.99q-7.26,0-10.62-4.23T167.46,39q0-7.92,3.78-11.88t10.62-3.96a16.512,16.512,0,0,1,4.44.6,10.333,10.333,0,0,1,3.84,1.98,9.742,9.742,0,0,1,2.7,3.72,14.588,14.588,0,0,1,1.02,5.82,26.141,26.141,0,0,1-.15,2.7q-.15,1.44-.45,3h-18a8.791,8.791,0,0,0,1.95,5.7q1.77,1.92,5.73,1.92a12.77,12.77,0,0,0,7.38-2.28ZM181.74,29.4a5.463,5.463,0,0,0-4.53,1.83,9.048,9.048,0,0,0-1.77,4.89H186.6a7.554,7.554,0,0,0-.99-4.98A4.412,4.412,0,0,0,181.74,29.4ZM211.8,45.72a2.239,2.239,0,0,0-1.02-1.92,12.288,12.288,0,0,0-2.52-1.32q-1.5-.6-3.3-1.23a12.4,12.4,0,0,1-3.3-1.74,9.53,9.53,0,0,1-2.52-2.82,8.517,8.517,0,0,1-1.02-4.41q0-4.44,2.64-6.78t7.62-2.34a24.5,24.5,0,0,1,6.18.72,17.88,17.88,0,0,1,4.32,1.62l-1.74,5.64q-1.38-.54-3.48-1.14a15.434,15.434,0,0,0-4.26-.6q-3.48,0-3.48,2.7a2,2,0,0,0,1.02,1.74,13.463,13.463,0,0,0,2.52,1.23q1.5.57,3.3,1.23a14.321,14.321,0,0,1,3.3,1.71,8.942,8.942,0,0,1,2.52,2.73,8.222,8.222,0,0,1,1.02,4.32,9.141,9.141,0,0,1-2.91,7.17q-2.91,2.61-8.73,2.61a21.32,21.32,0,0,1-5.97-.81,18.374,18.374,0,0,1-4.53-1.89l2.16-5.82a20.817,20.817,0,0,0,3.66,1.53,14.883,14.883,0,0,0,4.68.75,5.19,5.19,0,0,0,2.79-.66A2.416,2.416,0,0,0,211.8,45.72ZM221.58,24h4.14V18.36l7.8-2.22V24h7.32v6.6h-7.32V42.12a11.419,11.419,0,0,0,.63,4.47,2.37,2.37,0,0,0,2.37,1.35,7.849,7.849,0,0,0,2.07-.24,14.131,14.131,0,0,0,1.95-.72l1.38,6a19.8,19.8,0,0,1-3.78,1.32,17.992,17.992,0,0,1-4.38.54q-4.14,0-6.09-2.13t-1.95-6.99V30.6h-4.14ZM3.24,103.74a25.666,25.666,0,0,1,5.7-1.71,36.736,36.736,0,0,1,6.9-.63,15.667,15.667,0,0,1,5.22.75,7.521,7.521,0,0,1,5.07,5.43,16.844,16.844,0,0,1,.51,4.32q0,2.64-.18,5.31t-.21,5.25q-.03,2.58.15,5.01a18.867,18.867,0,0,0,.9,4.59H20.94l-1.26-4.14h-.3a10.678,10.678,0,0,1-3.33,3.21,10.1,10.1,0,0,1-5.49,1.35,10.7,10.7,0,0,1-3.78-.63,8.08,8.08,0,0,1-4.74-4.56,9.233,9.233,0,0,1-.66-3.57,8.348,8.348,0,0,1,1.23-4.65,8.9,8.9,0,0,1,3.54-3.06,17.584,17.584,0,0,1,5.52-1.62,39.117,39.117,0,0,1,7.17-.27q.42-3.36-.48-4.83t-4.02-1.47a27.407,27.407,0,0,0-4.95.48,18.1,18.1,0,0,0-4.29,1.26Zm9.9,22.32a6,6,0,0,0,3.72-1.05,7.325,7.325,0,0,0,2.04-2.25v-3.9a21.457,21.457,0,0,0-3.57-.06,13.028,13.028,0,0,0-3.03.54,5.094,5.094,0,0,0-2.1,1.2,2.683,2.683,0,0,0-.78,1.98,3.407,3.407,0,0,0,.99,2.61A3.829,3.829,0,0,0,13.14,126.06Zm28.08-4.14a6.529,6.529,0,0,0,.54,3.06,1.847,1.847,0,0,0,1.74.96,8.214,8.214,0,0,0,1.41-.12,8.526,8.526,0,0,0,1.71-.54l.84,6.12a14.775,14.775,0,0,1-2.94.96,17.256,17.256,0,0,1-4.08.48,7.65,7.65,0,0,1-5.22-1.59q-1.8-1.59-1.8-5.25V90h7.8ZM67.86,132V115.68a15.708,15.708,0,0,0-.78-5.88q-.78-1.74-3.24-1.74a4.809,4.809,0,0,0-3.3,1.11,7.051,7.051,0,0,0-1.92,2.85V132h-7.8V102h6.06l.9,3.96h.24a13.743,13.743,0,0,1,3.51-3.36,9.613,9.613,0,0,1,5.49-1.44,8.607,8.607,0,0,1,4.71,1.17,7.565,7.565,0,0,1,2.85,3.93,10.9,10.9,0,0,1,3.54-3.72,9.494,9.494,0,0,1,5.22-1.38,13.45,13.45,0,0,1,4.29.6,5.9,5.9,0,0,1,2.88,2.07,10.045,10.045,0,0,1,1.65,3.93A29.868,29.868,0,0,1,92.7,114v18H84.9V115.14a14.309,14.309,0,0,0-.75-5.31q-.75-1.77-3.33-1.77a4.706,4.706,0,0,0-3.33,1.14,6.856,6.856,0,0,0-1.83,3.12V132Zm31.98-30h7.8v30h-7.8ZM98.7,93.54a3.955,3.955,0,0,1,1.29-2.97,4.963,4.963,0,0,1,3.57-1.23,5.411,5.411,0,0,1,3.69,1.23,3.806,3.806,0,0,1,1.41,2.97,3.634,3.634,0,0,1-1.41,2.91,5.589,5.589,0,0,1-3.69,1.17,5.119,5.119,0,0,1-3.57-1.17A3.768,3.768,0,0,1,98.7,93.54ZM133.62,132V114.96q0-3.66-1.05-5.28a3.927,3.927,0,0,0-3.57-1.62,5.621,5.621,0,0,0-3.75,1.29,7.166,7.166,0,0,0-2.19,3.21V132h-7.8V102h6.18l.9,3.96h.24a12.933,12.933,0,0,1,3.66-3.36,10.851,10.851,0,0,1,5.88-1.44,12.115,12.115,0,0,1,3.96.6,6.741,6.741,0,0,1,2.94,1.98,9,9,0,0,1,1.8,3.75,24.248,24.248,0,0,1,.6,5.85V132Zm39.84-10.56q0,2.52.06,5.04a42.86,42.86,0,0,0,.54,5.58h-5.58l-1.08-3.9h-.24a9.065,9.065,0,0,1-3.45,3.39,10.5,10.5,0,0,1-5.31,1.29q-5.64,0-8.76-3.72t-3.12-11.64q0-7.68,3.48-11.94t10.2-4.26a18.3,18.3,0,0,1,3.06.21,12.045,12.045,0,0,1,2.4.69V90h7.8Zm-13.26,4.8a5.419,5.419,0,0,0,3.6-1.11,6,6,0,0,0,1.86-3.21V109.2a5.953,5.953,0,0,0-1.86-.99,8.763,8.763,0,0,0-2.64-.33,5.772,5.772,0,0,0-4.95,2.22q-1.65,2.22-1.65,7.62a12.31,12.31,0,0,0,1.35,6.18A4.59,4.59,0,0,0,160.2,126.24Zm44.1,3.18a15.266,15.266,0,0,1-4.89,2.43,21.407,21.407,0,0,1-6.57.99q-7.26,0-10.62-4.23T178.86,117q0-7.92,3.78-11.88t10.62-3.96a16.512,16.512,0,0,1,4.44.6,10.333,10.333,0,0,1,3.84,1.98,9.741,9.741,0,0,1,2.7,3.72,14.588,14.588,0,0,1,1.02,5.82,26.141,26.141,0,0,1-.15,2.7q-.15,1.44-.45,3h-18a8.791,8.791,0,0,0,1.95,5.7q1.77,1.92,5.73,1.92a12.77,12.77,0,0,0,7.38-2.28ZM193.14,107.4a5.463,5.463,0,0,0-4.53,1.83,9.048,9.048,0,0,0-1.77,4.89H198a7.554,7.554,0,0,0-.99-4.98A4.412,4.412,0,0,0,193.14,107.4Zm25.68,14.52a6.529,6.529,0,0,0,.54,3.06,1.847,1.847,0,0,0,1.74.96,8.214,8.214,0,0,0,1.41-.12,8.526,8.526,0,0,0,1.71-.54l.84,6.12a14.775,14.775,0,0,1-2.94.96,17.256,17.256,0,0,1-4.08.48,7.65,7.65,0,0,1-5.22-1.59q-1.8-1.59-1.8-5.25V90h7.8ZM229.14,102h7.8v30h-7.8ZM228,93.54a3.955,3.955,0,0,1,1.29-2.97,4.963,4.963,0,0,1,3.57-1.23,5.411,5.411,0,0,1,3.69,1.23,3.806,3.806,0,0,1,1.41,2.97,3.634,3.634,0,0,1-1.41,2.91,5.589,5.589,0,0,1-3.69,1.17,5.12,5.12,0,0,1-3.57-1.17A3.768,3.768,0,0,1,228,93.54ZM269.94,132q0,6.54-3.54,9.63t-9.9,3.09a30.4,30.4,0,0,1-6.81-.6,17.133,17.133,0,0,1-3.75-1.26l1.62-6.18q1.38.54,3.21,1.08a16.236,16.236,0,0,0,4.53.54q4.08,0,5.55-1.77a7.533,7.533,0,0,0,1.47-4.95v-1.92h-.24q-2.1,2.82-7.44,2.82-5.82,0-8.67-3.6t-2.85-11.28q0-8.04,3.84-12.18t11.16-4.14a39.408,39.408,0,0,1,6.87.54,28.863,28.863,0,0,1,4.95,1.26Zm-13.2-5.76a5.36,5.36,0,0,0,3.51-1.02,6.425,6.425,0,0,0,1.89-3.06v-13.5a11.983,11.983,0,0,0-4.62-.78,5.509,5.509,0,0,0-4.68,2.25q-1.68,2.25-1.68,7.17a12.572,12.572,0,0,0,1.44,6.66A4.613,4.613,0,0,0,256.74,126.24Zm43.98,3.18a15.266,15.266,0,0,1-4.89,2.43,21.407,21.407,0,0,1-6.57.99q-7.26,0-10.62-4.23T275.28,117q0-7.92,3.78-11.88t10.62-3.96a16.512,16.512,0,0,1,4.44.6,10.333,10.333,0,0,1,3.84,1.98,9.741,9.741,0,0,1,2.7,3.72,14.587,14.587,0,0,1,1.02,5.82,26.14,26.14,0,0,1-.15,2.7q-.15,1.44-.45,3h-18a8.791,8.791,0,0,0,1.95,5.7q1.77,1.92,5.73,1.92a12.77,12.77,0,0,0,7.38-2.28ZM289.56,107.4a5.463,5.463,0,0,0-4.53,1.83,9.048,9.048,0,0,0-1.77,4.89h11.16a7.554,7.554,0,0,0-.99-4.98A4.412,4.412,0,0,0,289.56,107.4Zm58.2,24.6q0,6.54-3.54,9.63t-9.9,3.09a30.4,30.4,0,0,1-6.81-.6,17.133,17.133,0,0,1-3.75-1.26l1.62-6.18q1.38.54,3.21,1.08a16.236,16.236,0,0,0,4.53.54q4.08,0,5.55-1.77a7.533,7.533,0,0,0,1.47-4.95v-1.92h-.24q-2.1,2.82-7.44,2.82-5.82,0-8.67-3.6t-2.85-11.28q0-8.04,3.84-12.18t11.16-4.14a39.408,39.408,0,0,1,6.87.54,28.862,28.862,0,0,1,4.95,1.26Zm-13.2-5.76a5.36,5.36,0,0,0,3.51-1.02,6.425,6.425,0,0,0,1.89-3.06v-13.5a11.983,11.983,0,0,0-4.62-.78,5.509,5.509,0,0,0-4.68,2.25q-1.68,2.25-1.68,7.17a12.572,12.572,0,0,0,1.44,6.66A4.613,4.613,0,0,0,334.56,126.24Zm36.54-16.92a10.162,10.162,0,0,0-3.36-.66,5.5,5.5,0,0,0-3.51,1.11,5.346,5.346,0,0,0-1.89,2.85V132h-7.8V102h6.06l.9,3.96h.24a8.18,8.18,0,0,1,2.76-3.42,7.008,7.008,0,0,1,4.08-1.2,11.348,11.348,0,0,1,3.54.66Zm12-7.32v17.04a11.821,11.821,0,0,0,.87,5.28q.87,1.62,3.39,1.62a5.317,5.317,0,0,0,3.69-1.32,8.106,8.106,0,0,0,2.19-3.24V102h7.8v20.88a47.916,47.916,0,0,0,.24,4.83A30.378,30.378,0,0,0,402,132h-5.88l-1.38-4.44h-.24a11.212,11.212,0,0,1-3.84,3.78,10.961,10.961,0,0,1-5.82,1.5,12.872,12.872,0,0,1-4.08-.6,6.7,6.7,0,0,1-3-1.98,9.258,9.258,0,0,1-1.83-3.72,23.068,23.068,0,0,1-.63-5.88V102Zm43.14,30V114.96q0-3.66-1.05-5.28a3.927,3.927,0,0,0-3.57-1.62,5.62,5.62,0,0,0-3.75,1.29,7.166,7.166,0,0,0-2.19,3.21V132h-7.8V102h6.18l.9,3.96h.24a12.933,12.933,0,0,1,3.66-3.36,10.851,10.851,0,0,1,5.88-1.44,12.114,12.114,0,0,1,3.96.6,6.741,6.741,0,0,1,2.94,1.98,9,9,0,0,1,1.8,3.75,24.249,24.249,0,0,1,.6,5.85V132Zm39.84-10.56q0,2.52.06,5.04a42.868,42.868,0,0,0,.54,5.58H461.1l-1.08-3.9h-.24a9.065,9.065,0,0,1-3.45,3.39,10.5,10.5,0,0,1-5.31,1.29q-5.64,0-8.76-3.72t-3.12-11.64q0-7.68,3.48-11.94t10.2-4.26a18.3,18.3,0,0,1,3.06.21,12.045,12.045,0,0,1,2.4.69V90h7.8Zm-13.26,4.8a5.419,5.419,0,0,0,3.6-1.11,6,6,0,0,0,1.86-3.21V109.2a5.953,5.953,0,0,0-1.86-.99,8.763,8.763,0,0,0-2.64-.33,5.772,5.772,0,0,0-4.95,2.22q-1.65,2.22-1.65,7.62a12.31,12.31,0,0,0,1.35,6.18A4.59,4.59,0,0,0,452.82,126.24ZM484.98,102h4.14V96.36l7.8-2.22V102h7.32v6.6h-7.32v11.52a11.418,11.418,0,0,0,.63,4.47,2.37,2.37,0,0,0,2.37,1.35,7.849,7.849,0,0,0,2.07-.24,14.131,14.131,0,0,0,1.95-.72l1.38,6a19.8,19.8,0,0,1-3.78,1.32,17.992,17.992,0,0,1-4.38.54q-4.14,0-6.09-2.13t-1.95-6.99V108.6h-4.14Zm24.78,0h7.8v30h-7.8Zm-1.14-8.46a3.954,3.954,0,0,1,1.29-2.97,4.963,4.963,0,0,1,3.57-1.23,5.411,5.411,0,0,1,3.69,1.23,3.806,3.806,0,0,1,1.41,2.97,3.634,3.634,0,0,1-1.41,2.91,5.589,5.589,0,0,1-3.69,1.17,5.119,5.119,0,0,1-3.57-1.17A3.768,3.768,0,0,1,508.62,93.54Zm24.6,28.38a6.529,6.529,0,0,0,.54,3.06,1.847,1.847,0,0,0,1.74.96,8.214,8.214,0,0,0,1.41-.12,8.525,8.525,0,0,0,1.71-.54l.84,6.12a14.775,14.775,0,0,1-2.94.96,17.256,17.256,0,0,1-4.08.48,7.65,7.65,0,0,1-5.22-1.59q-1.8-1.59-1.8-5.25V90h7.8ZM.66,180H4.8v-1.68q0-5.7,2.4-8.25t6.96-2.55a23.912,23.912,0,0,1,7.98,1.14l-1.5,6.24a13.26,13.26,0,0,0-2.43-.63,15.478,15.478,0,0,0-2.19-.15,4.127,4.127,0,0,0-1.89.36,2.214,2.214,0,0,0-1.02,1.11,5.805,5.805,0,0,0-.42,1.86q-.09,1.11-.09,2.55h6.6v6.6H12.6V210H4.8V186.6H.66Zm21.84,1.74a25.665,25.665,0,0,1,5.7-1.71,36.736,36.736,0,0,1,6.9-.63,15.667,15.667,0,0,1,5.22.75,7.522,7.522,0,0,1,5.07,5.43,16.844,16.844,0,0,1,.51,4.32q0,2.64-.18,5.31t-.21,5.25q-.03,2.58.15,5.01a18.867,18.867,0,0,0,.9,4.59H40.2l-1.26-4.14h-.3a10.678,10.678,0,0,1-3.33,3.21,10.1,10.1,0,0,1-5.49,1.35,10.7,10.7,0,0,1-3.78-.63,8.08,8.08,0,0,1-4.74-4.56,9.233,9.233,0,0,1-.66-3.57,8.348,8.348,0,0,1,1.23-4.65,8.9,8.9,0,0,1,3.54-3.06,17.585,17.585,0,0,1,5.52-1.62,39.116,39.116,0,0,1,7.17-.27q.42-3.36-.48-4.83t-4.02-1.47a27.407,27.407,0,0,0-4.95.48,18.1,18.1,0,0,0-4.29,1.26Zm9.9,22.32a6,6,0,0,0,3.72-1.05,7.325,7.325,0,0,0,2.04-2.25v-3.9a21.456,21.456,0,0,0-3.57-.06,13.028,13.028,0,0,0-3.03.54,5.094,5.094,0,0,0-2.1,1.2,2.683,2.683,0,0,0-.78,1.98,3.407,3.407,0,0,0,.99,2.61A3.829,3.829,0,0,0,32.4,204.06Zm28.08-4.14a6.529,6.529,0,0,0,.54,3.06,1.847,1.847,0,0,0,1.74.96,8.214,8.214,0,0,0,1.41-.12,8.526,8.526,0,0,0,1.71-.54l.84,6.12a14.775,14.775,0,0,1-2.94.96,17.256,17.256,0,0,1-4.08.48,7.65,7.65,0,0,1-5.22-1.59q-1.8-1.59-1.8-5.25V168h7.8Zm35.1-.48q0,2.52.06,5.04a42.863,42.863,0,0,0,.54,5.58H90.6l-1.08-3.9h-.24a9.066,9.066,0,0,1-3.45,3.39,10.5,10.5,0,0,1-5.31,1.29q-5.64,0-8.76-3.72t-3.12-11.64q0-7.68,3.48-11.94t10.2-4.26a18.3,18.3,0,0,1,3.06.21,12.046,12.046,0,0,1,2.4.69V168h7.8Zm-13.26,4.8a5.419,5.419,0,0,0,3.6-1.11,6,6,0,0,0,1.86-3.21V187.2a5.952,5.952,0,0,0-1.86-.99,8.763,8.763,0,0,0-2.64-.33,5.772,5.772,0,0,0-4.95,2.22q-1.65,2.22-1.65,7.62a12.31,12.31,0,0,0,1.35,6.18A4.59,4.59,0,0,0,82.32,204.24ZM117.6,180h5.7l.9,3.6h.24a9.942,9.942,0,0,1,3.69-3.36,11.379,11.379,0,0,1,5.19-1.08q5.64,0,8.46,3.57t2.82,11.49a24.761,24.761,0,0,1-.9,6.93,14.62,14.62,0,0,1-2.67,5.25,11.668,11.668,0,0,1-4.32,3.3,16.171,16.171,0,0,1-8.91.87,10.536,10.536,0,0,1-2.4-.87V222h-7.8Zm13.38,5.76a5.206,5.206,0,0,0-3.57,1.14,7.44,7.44,0,0,0-2.01,3.42V202.8a6.411,6.411,0,0,0,4.44,1.44,5.771,5.771,0,0,0,5.04-2.37q1.68-2.37,1.68-7.83a11.787,11.787,0,0,0-1.32-6.12A4.613,4.613,0,0,0,130.98,185.76Zm18.84-4.02a25.665,25.665,0,0,1,5.7-1.71,36.736,36.736,0,0,1,6.9-.63,15.667,15.667,0,0,1,5.22.75,7.522,7.522,0,0,1,5.07,5.43,16.844,16.844,0,0,1,.51,4.32q0,2.64-.18,5.31t-.21,5.25q-.03,2.58.15,5.01a18.868,18.868,0,0,0,.9,4.59h-6.36l-1.26-4.14h-.3a10.678,10.678,0,0,1-3.33,3.21,10.1,10.1,0,0,1-5.49,1.35,10.7,10.7,0,0,1-3.78-.63,8.08,8.08,0,0,1-4.74-4.56,9.233,9.233,0,0,1-.66-3.57,8.348,8.348,0,0,1,1.23-4.65,8.9,8.9,0,0,1,3.54-3.06,17.585,17.585,0,0,1,5.52-1.62,39.116,39.116,0,0,1,7.17-.27q.42-3.36-.48-4.83t-4.02-1.47a27.407,27.407,0,0,0-4.95.48,18.1,18.1,0,0,0-4.29,1.26Zm9.9,22.32a6,6,0,0,0,3.72-1.05,7.325,7.325,0,0,0,2.04-2.25v-3.9a21.456,21.456,0,0,0-3.57-.06,13.028,13.028,0,0,0-3.03.54,5.094,5.094,0,0,0-2.1,1.2,2.683,2.683,0,0,0-.78,1.98,3.407,3.407,0,0,0,.99,2.61A3.829,3.829,0,0,0,159.72,204.06Zm-4.5-32.88a5.452,5.452,0,0,1,1.71-4.14,6.929,6.929,0,0,1,4.95-1.62,7.456,7.456,0,0,1,4.86,1.47,5.69,5.69,0,0,1,.03,8.28,6.892,6.892,0,0,1-4.89,1.65,7.212,7.212,0,0,1-4.92-1.53A5.2,5.2,0,0,1,155.22,171.18Zm4.32,0a1.691,1.691,0,0,0,.72,1.47,2.736,2.736,0,0,0,1.62.51,2.784,2.784,0,0,0,1.68-.48,1.73,1.73,0,0,0,.66-1.5,1.78,1.78,0,0,0-.69-1.53,2.7,2.7,0,0,0-1.65-.51,2.855,2.855,0,0,0-1.62.48A1.737,1.737,0,0,0,159.54,171.18Zm56.64,36.96a13.038,13.038,0,0,1-4.35,2.01,20.01,20.01,0,0,1-5.25.69,14.582,14.582,0,0,1-6.09-1.14,10.382,10.382,0,0,1-4.05-3.21,13.237,13.237,0,0,1-2.25-5.01,28.372,28.372,0,0,1-.69-6.48q0-7.62,3.42-11.73t9.96-4.11a21.134,21.134,0,0,1,5.31.54,18.029,18.029,0,0,1,3.63,1.38l-1.86,6.36a15.724,15.724,0,0,0-2.73-1.02,12.029,12.029,0,0,0-3.09-.36,5.889,5.889,0,0,0-4.92,2.13q-1.68,2.13-1.68,6.81a14.084,14.084,0,0,0,.42,3.54,8.657,8.657,0,0,0,1.26,2.82,5.906,5.906,0,0,0,2.19,1.89,6.832,6.832,0,0,0,3.15.69,9.736,9.736,0,0,0,3.36-.51,11.775,11.775,0,0,0,2.46-1.23Zm14.64-11.28,1.08,4.68h.36l.78-4.74L237.6,180h8.04l-9.12,27.06q-1.14,3.36-2.19,6.15a27.916,27.916,0,0,1-2.31,4.83,10.876,10.876,0,0,1-2.79,3.15,6.015,6.015,0,0,1-3.63,1.11,10.373,10.373,0,0,1-4.98-1.02l1.44-6.24a4.815,4.815,0,0,0,1.8.36,3.958,3.958,0,0,0,2.67-1.17,7.942,7.942,0,0,0,1.95-4.23l-12.54-30h9.36Zm27.66.72h-2.1V210h-7.8V168h7.8v24.78l1.8-.84L265.02,180h8.58l-7.2,11.4-3.06,2.28,3.3,2.34,8.1,13.98H265.8Zm27.6,2.34a6.529,6.529,0,0,0,.54,3.06,1.847,1.847,0,0,0,1.74.96,8.214,8.214,0,0,0,1.41-.12,8.526,8.526,0,0,0,1.71-.54l.84,6.12a14.776,14.776,0,0,1-2.94.96,17.256,17.256,0,0,1-4.08.48,7.65,7.65,0,0,1-5.22-1.59q-1.8-1.59-1.8-5.25V168h7.8Zm33.6,7.5a15.266,15.266,0,0,1-4.89,2.43,21.407,21.407,0,0,1-6.57.99q-7.26,0-10.62-4.23T294.24,195q0-7.92,3.78-11.88t10.62-3.96a16.512,16.512,0,0,1,4.44.6,10.333,10.333,0,0,1,3.84,1.98,9.741,9.741,0,0,1,2.7,3.72,14.588,14.588,0,0,1,1.02,5.82,26.141,26.141,0,0,1-.15,2.7q-.15,1.44-.45,3h-18a8.791,8.791,0,0,0,1.95,5.7q1.77,1.92,5.73,1.92a12.77,12.77,0,0,0,7.38-2.28ZM308.52,185.4a5.463,5.463,0,0,0-4.53,1.83,9.048,9.048,0,0,0-1.77,4.89h11.16a7.554,7.554,0,0,0-.99-4.98A4.412,4.412,0,0,0,308.52,185.4Zm36,24.6V192.96q0-3.66-1.05-5.28a3.927,3.927,0,0,0-3.57-1.62,5.621,5.621,0,0,0-3.75,1.29,7.166,7.166,0,0,0-2.19,3.21V210h-7.8V180h6.18l.9,3.96h.24a12.933,12.933,0,0,1,3.66-3.36,10.851,10.851,0,0,1,5.88-1.44,12.115,12.115,0,0,1,3.96.6,6.741,6.741,0,0,1,2.94,1.98,9,9,0,0,1,1.8,3.75,24.249,24.249,0,0,1,.6,5.85V210Zm38.7-14.28,1.02,4.62h.3l.84-4.74,5.1-15.6h8.4l-12.54,30.3H381.6L368.58,180h9.06Zm18.06-13.98a25.666,25.666,0,0,1,5.7-1.71,36.736,36.736,0,0,1,6.9-.63,15.667,15.667,0,0,1,5.22.75,7.521,7.521,0,0,1,5.07,5.43,16.845,16.845,0,0,1,.51,4.32q0,2.64-.18,5.31t-.21,5.25q-.03,2.58.15,5.01a18.867,18.867,0,0,0,.9,4.59h-6.36l-1.26-4.14h-.3a10.678,10.678,0,0,1-3.33,3.21,10.1,10.1,0,0,1-5.49,1.35,10.7,10.7,0,0,1-3.78-.63,8.08,8.08,0,0,1-4.74-4.56,9.232,9.232,0,0,1-.66-3.57,8.348,8.348,0,0,1,1.23-4.65,8.9,8.9,0,0,1,3.54-3.06,17.585,17.585,0,0,1,5.52-1.62,39.116,39.116,0,0,1,7.17-.27q.42-3.36-.48-4.83t-4.02-1.47a27.408,27.408,0,0,0-4.95.48,18.1,18.1,0,0,0-4.29,1.26Zm9.9,22.32a6,6,0,0,0,3.72-1.05,7.325,7.325,0,0,0,2.04-2.25v-3.9a21.456,21.456,0,0,0-3.57-.06,13.028,13.028,0,0,0-3.03.54,5.094,5.094,0,0,0-2.1,1.2,2.683,2.683,0,0,0-.78,1.98,3.407,3.407,0,0,0,.99,2.61A3.829,3.829,0,0,0,411.18,204.06Zm36.6-16.74a10.162,10.162,0,0,0-3.36-.66,5.5,5.5,0,0,0-3.51,1.11,5.346,5.346,0,0,0-1.89,2.85V210h-7.8V180h6.06l.9,3.96h.24a8.18,8.18,0,0,1,2.76-3.42,7.008,7.008,0,0,1,4.08-1.2,11.348,11.348,0,0,1,3.54.66Zm32.7-14.4a3.566,3.566,0,0,1-1.17,2.79,4.2,4.2,0,0,1-2.91,1.05,4.427,4.427,0,0,1-3.48-1.41,5.418,5.418,0,0,1-1.26-3.75,9.977,9.977,0,0,1,.75-4.08,9.872,9.872,0,0,1,1.8-2.79,9.1,9.1,0,0,1,2.19-1.74,13.878,13.878,0,0,1,1.98-.93l1.92,3.24a4.922,4.922,0,0,0-2.04,1.53,4.236,4.236,0,0,0-.96,2.25,2.964,2.964,0,0,1,2.19,1.05A3.9,3.9,0,0,1,480.48,172.92Zm-10.38,0a3.566,3.566,0,0,1-1.17,2.79,4.2,4.2,0,0,1-2.91,1.05,4.427,4.427,0,0,1-3.48-1.41,5.418,5.418,0,0,1-1.26-3.75,9.977,9.977,0,0,1,.75-4.08,9.872,9.872,0,0,1,1.8-2.79,9.1,9.1,0,0,1,2.19-1.74,13.878,13.878,0,0,1,1.98-.93l1.92,3.24a4.921,4.921,0,0,0-2.04,1.53,4.236,4.236,0,0,0-.96,2.25,2.964,2.964,0,0,1,2.19,1.05A3.9,3.9,0,0,1,470.1,172.92Zm11.52,8.82a25.666,25.666,0,0,1,5.7-1.71,36.736,36.736,0,0,1,6.9-.63,15.667,15.667,0,0,1,5.22.75,7.521,7.521,0,0,1,5.07,5.43,16.844,16.844,0,0,1,.51,4.32q0,2.64-.18,5.31t-.21,5.25q-.03,2.58.15,5.01a18.867,18.867,0,0,0,.9,4.59h-6.36l-1.26-4.14h-.3a10.678,10.678,0,0,1-3.33,3.21,10.1,10.1,0,0,1-5.49,1.35,10.7,10.7,0,0,1-3.78-.63,8.08,8.08,0,0,1-4.74-4.56,9.232,9.232,0,0,1-.66-3.57,8.348,8.348,0,0,1,1.23-4.65,8.9,8.9,0,0,1,3.54-3.06,17.585,17.585,0,0,1,5.52-1.62,39.116,39.116,0,0,1,7.17-.27q.42-3.36-.48-4.83t-4.02-1.47a27.407,27.407,0,0,0-4.95.48,18.1,18.1,0,0,0-4.29,1.26Zm9.9,22.32a6,6,0,0,0,3.72-1.05,7.325,7.325,0,0,0,2.04-2.25v-3.9a21.456,21.456,0,0,0-3.57-.06,13.028,13.028,0,0,0-3.03.54,5.094,5.094,0,0,0-2.1,1.2,2.683,2.683,0,0,0-.78,1.98,3.407,3.407,0,0,0,.99,2.61A3.829,3.829,0,0,0,491.52,204.06ZM508.44,180h4.14v-5.64l7.8-2.22V180h7.32v6.6h-7.32v11.52a11.419,11.419,0,0,0,.63,4.47,2.37,2.37,0,0,0,2.37,1.35,7.849,7.849,0,0,0,2.07-.24,14.129,14.129,0,0,0,1.95-.72l1.38,6A19.8,19.8,0,0,1,525,210.3a17.992,17.992,0,0,1-4.38.54q-4.14,0-6.09-2.13t-1.95-6.99V186.6h-4.14ZM20.46,288V271.68a15.708,15.708,0,0,0-.78-5.88q-.78-1.74-3.24-1.74a4.809,4.809,0,0,0-3.3,1.11,7.051,7.051,0,0,0-1.92,2.85V288H3.42V258H9.48l.9,3.96h.24a13.743,13.743,0,0,1,3.51-3.36,9.613,9.613,0,0,1,5.49-1.44,8.607,8.607,0,0,1,4.71,1.17,7.565,7.565,0,0,1,2.85,3.93,10.9,10.9,0,0,1,3.54-3.72,9.494,9.494,0,0,1,5.22-1.38,13.45,13.45,0,0,1,4.29.6,5.9,5.9,0,0,1,2.88,2.07,10.044,10.044,0,0,1,1.65,3.93A29.868,29.868,0,0,1,45.3,270v18H37.5V271.14a14.309,14.309,0,0,0-.75-5.31q-.75-1.77-3.33-1.77a4.706,4.706,0,0,0-3.33,1.14,6.855,6.855,0,0,0-1.83,3.12V288Zm31.98-30h7.8v30h-7.8Zm-1.14-8.46a3.955,3.955,0,0,1,1.29-2.97,4.963,4.963,0,0,1,3.57-1.23,5.411,5.411,0,0,1,3.69,1.23,3.806,3.806,0,0,1,1.41,2.97,3.634,3.634,0,0,1-1.41,2.91,5.589,5.589,0,0,1-3.69,1.17,5.119,5.119,0,0,1-3.57-1.17A3.768,3.768,0,0,1,51.3,249.54Zm28.98,30.18a2.239,2.239,0,0,0-1.02-1.92,12.287,12.287,0,0,0-2.52-1.32q-1.5-.6-3.3-1.23a12.4,12.4,0,0,1-3.3-1.74,9.531,9.531,0,0,1-2.52-2.82,8.517,8.517,0,0,1-1.02-4.41q0-4.44,2.64-6.78t7.62-2.34a24.5,24.5,0,0,1,6.18.72,17.881,17.881,0,0,1,4.32,1.62l-1.74,5.64q-1.38-.54-3.48-1.14a15.434,15.434,0,0,0-4.26-.6q-3.48,0-3.48,2.7a2,2,0,0,0,1.02,1.74,13.462,13.462,0,0,0,2.52,1.23q1.5.57,3.3,1.23a14.32,14.32,0,0,1,3.3,1.71,8.942,8.942,0,0,1,2.52,2.73,8.223,8.223,0,0,1,1.02,4.32,9.141,9.141,0,0,1-2.91,7.17q-2.91,2.61-8.73,2.61a21.32,21.32,0,0,1-5.97-.81,18.374,18.374,0,0,1-4.53-1.89l2.16-5.82a20.818,20.818,0,0,0,3.66,1.53,14.883,14.883,0,0,0,4.68.75,5.19,5.19,0,0,0,2.79-.66A2.416,2.416,0,0,0,80.28,279.72ZM90.06,258H94.2v-5.64l7.8-2.22V258h7.32v6.6H102v11.52a11.418,11.418,0,0,0,.63,4.47,2.37,2.37,0,0,0,2.37,1.35,7.849,7.849,0,0,0,2.07-.24,14.134,14.134,0,0,0,1.95-.72l1.38,6a19.8,19.8,0,0,1-3.78,1.32,17.991,17.991,0,0,1-4.38.54q-4.14,0-6.09-2.13t-1.95-6.99V264.6H90.06Zm47.76,27.42a15.266,15.266,0,0,1-4.89,2.43,21.406,21.406,0,0,1-6.57.99q-7.26,0-10.62-4.23T112.38,273q0-7.92,3.78-11.88t10.62-3.96a16.512,16.512,0,0,1,4.44.6,10.333,10.333,0,0,1,3.84,1.98,9.742,9.742,0,0,1,2.7,3.72,14.588,14.588,0,0,1,1.02,5.82,26.145,26.145,0,0,1-.15,2.7q-.15,1.44-.45,3h-18a8.791,8.791,0,0,0,1.95,5.7q1.77,1.92,5.73,1.92a12.77,12.77,0,0,0,7.38-2.28ZM126.66,263.4a5.463,5.463,0,0,0-4.53,1.83,9.048,9.048,0,0,0-1.77,4.89h11.16a7.554,7.554,0,0,0-.99-4.98A4.412,4.412,0,0,0,126.66,263.4ZM159.48,246h7.8v14.4h.24a8.777,8.777,0,0,1,3.24-2.28,11.1,11.1,0,0,1,4.38-.84q5.4,0,8.25,3.69t2.85,11.25q0,8.1-3.99,12.3t-10.95,4.2a36.2,36.2,0,0,1-7.02-.63,21.067,21.067,0,0,1-4.8-1.41Zm13.38,17.88a5.348,5.348,0,0,0-3.51,1.11,6.949,6.949,0,0,0-2.07,3.21v13.08a7.162,7.162,0,0,0,2.07.66,14.813,14.813,0,0,0,2.37.18,5.56,5.56,0,0,0,4.83-2.31q1.65-2.31,1.65-7.35Q178.2,263.88,172.86,263.88Zm18.6-4.14a25.666,25.666,0,0,1,5.7-1.71,36.735,36.735,0,0,1,6.9-.63,15.667,15.667,0,0,1,5.22.75,7.522,7.522,0,0,1,5.07,5.43,16.845,16.845,0,0,1,.51,4.32q0,2.64-.18,5.31t-.21,5.25q-.03,2.58.15,5.01a18.868,18.868,0,0,0,.9,4.59h-6.36l-1.26-4.14h-.3a10.678,10.678,0,0,1-3.33,3.21,10.1,10.1,0,0,1-5.49,1.35,10.7,10.7,0,0,1-3.78-.63,8.08,8.08,0,0,1-4.74-4.56,9.233,9.233,0,0,1-.66-3.57,8.348,8.348,0,0,1,1.23-4.65,8.9,8.9,0,0,1,3.54-3.06,17.584,17.584,0,0,1,5.52-1.62,39.114,39.114,0,0,1,7.17-.27q.42-3.36-.48-4.83t-4.02-1.47a27.409,27.409,0,0,0-4.95.48,18.1,18.1,0,0,0-4.29,1.26Zm9.9,22.32a6,6,0,0,0,3.72-1.05,7.325,7.325,0,0,0,2.04-2.25v-3.9a21.46,21.46,0,0,0-3.57-.06,13.029,13.029,0,0,0-3.03.54,5.094,5.094,0,0,0-2.1,1.2,2.683,2.683,0,0,0-.78,1.98,3.407,3.407,0,0,0,.99,2.61A3.829,3.829,0,0,0,201.36,282.06Zm28.08-4.14a6.529,6.529,0,0,0,.54,3.06,1.847,1.847,0,0,0,1.74.96,8.215,8.215,0,0,0,1.41-.12,8.525,8.525,0,0,0,1.71-.54l.84,6.12a14.774,14.774,0,0,1-2.94.96,17.255,17.255,0,0,1-4.08.48,7.65,7.65,0,0,1-5.22-1.59q-1.8-1.59-1.8-5.25V246h7.8Zm9.42-18.18a25.666,25.666,0,0,1,5.7-1.71,36.735,36.735,0,0,1,6.9-.63,15.667,15.667,0,0,1,5.22.75,7.521,7.521,0,0,1,5.07,5.43,16.844,16.844,0,0,1,.51,4.32q0,2.64-.18,5.31t-.21,5.25q-.03,2.58.15,5.01a18.867,18.867,0,0,0,.9,4.59h-6.36l-1.26-4.14H255a10.678,10.678,0,0,1-3.33,3.21,10.1,10.1,0,0,1-5.49,1.35,10.7,10.7,0,0,1-3.78-.63,8.08,8.08,0,0,1-4.74-4.56,9.233,9.233,0,0,1-.66-3.57,8.348,8.348,0,0,1,1.23-4.65,8.9,8.9,0,0,1,3.54-3.06,17.584,17.584,0,0,1,5.52-1.62,39.114,39.114,0,0,1,7.17-.27q.42-3.36-.48-4.83t-4.02-1.47a27.409,27.409,0,0,0-4.95.48,18.1,18.1,0,0,0-4.29,1.26Zm9.9,22.32a6,6,0,0,0,3.72-1.05,7.325,7.325,0,0,0,2.04-2.25v-3.9a21.46,21.46,0,0,0-3.57-.06,13.029,13.029,0,0,0-3.03.54,5.094,5.094,0,0,0-2.1,1.2,2.683,2.683,0,0,0-.78,1.98,3.407,3.407,0,0,0,.99,2.61A3.829,3.829,0,0,0,248.76,282.06Zm38.4,5.94V270.96q0-3.66-1.05-5.28a3.927,3.927,0,0,0-3.57-1.62,5.62,5.62,0,0,0-3.75,1.29,7.166,7.166,0,0,0-2.19,3.21V288h-7.8V258h6.18l.9,3.96h.24a12.933,12.933,0,0,1,3.66-3.36,10.851,10.851,0,0,1,5.88-1.44,12.115,12.115,0,0,1,3.96.6,6.741,6.741,0,0,1,2.94,1.98,9,9,0,0,1,1.8,3.75,24.249,24.249,0,0,1,.6,5.85V288Zm35.58-1.86a13.038,13.038,0,0,1-4.35,2.01,20.011,20.011,0,0,1-5.25.69,14.583,14.583,0,0,1-6.09-1.14,10.382,10.382,0,0,1-4.05-3.21,13.236,13.236,0,0,1-2.25-5.01,28.373,28.373,0,0,1-.69-6.48q0-7.62,3.42-11.73t9.96-4.11a21.134,21.134,0,0,1,5.31.54,18.028,18.028,0,0,1,3.63,1.38l-1.86,6.36a15.723,15.723,0,0,0-2.73-1.02,12.028,12.028,0,0,0-3.09-.36,5.889,5.889,0,0,0-4.92,2.13q-1.68,2.13-1.68,6.81a14.084,14.084,0,0,0,.42,3.54,8.656,8.656,0,0,0,1.26,2.82,5.906,5.906,0,0,0,2.19,1.89,6.833,6.833,0,0,0,3.15.69,9.737,9.737,0,0,0,3.36-.51,11.774,11.774,0,0,0,2.46-1.23Zm27.72-.72a15.266,15.266,0,0,1-4.89,2.43,21.407,21.407,0,0,1-6.57.99q-7.26,0-10.62-4.23T325.02,273q0-7.92,3.78-11.88t10.62-3.96a16.512,16.512,0,0,1,4.44.6,10.333,10.333,0,0,1,3.84,1.98,9.742,9.742,0,0,1,2.7,3.72,14.588,14.588,0,0,1,1.02,5.82,26.141,26.141,0,0,1-.15,2.7q-.15,1.44-.45,3h-18a8.791,8.791,0,0,0,1.95,5.7q1.77,1.92,5.73,1.92a12.77,12.77,0,0,0,7.38-2.28ZM339.3,263.4a5.463,5.463,0,0,0-4.53,1.83,9.048,9.048,0,0,0-1.77,4.89h11.16a7.554,7.554,0,0,0-.99-4.98A4.412,4.412,0,0,0,339.3,263.4Zm36,24.6V270.96q0-3.66-1.05-5.28a3.927,3.927,0,0,0-3.57-1.62,5.62,5.62,0,0,0-3.75,1.29,7.166,7.166,0,0,0-2.19,3.21V288h-7.8V258h6.18l.9,3.96h.24a12.933,12.933,0,0,1,3.66-3.36,10.851,10.851,0,0,1,5.88-1.44,12.115,12.115,0,0,1,3.96.6,6.741,6.741,0,0,1,2.94,1.98,9,9,0,0,1,1.8,3.75,24.249,24.249,0,0,1,.6,5.85V288Zm23.58-38.64a3.659,3.659,0,0,1,1.17-2.82,4.208,4.208,0,0,1,2.97-1.08,4.312,4.312,0,0,1,3.42,1.44,5.532,5.532,0,0,1,1.26,3.78,9.977,9.977,0,0,1-.75,4.08,9.871,9.871,0,0,1-1.8,2.79,8.85,8.85,0,0,1-2.22,1.74,17.732,17.732,0,0,1-1.95.93l-1.98-3.3a7.41,7.41,0,0,0,2.13-1.44,3.48,3.48,0,0,0,1.05-2.28,3,3,0,0,1-2.25-.93A3.811,3.811,0,0,1,398.88,249.36Zm-10.38,0a3.659,3.659,0,0,1,1.17-2.82,4.208,4.208,0,0,1,2.97-1.08,4.312,4.312,0,0,1,3.42,1.44,5.532,5.532,0,0,1,1.26,3.78,9.977,9.977,0,0,1-.75,4.08,9.871,9.871,0,0,1-1.8,2.79,8.85,8.85,0,0,1-2.22,1.74,17.732,17.732,0,0,1-1.95.93l-1.98-3.3a7.41,7.41,0,0,0,2.13-1.44,3.48,3.48,0,0,0,1.05-2.28,3,3,0,0,1-2.25-.93A3.811,3.811,0,0,1,388.5,249.36Z" transform="translate(362 207)" fill="#fff"/>
  </g>
</svg>
